<svg width="170" height="188" viewBox="0 0 170 188" fill="none" xmlns="http://www.w3.org/2000/svg">
<path fill-rule="evenodd" clip-rule="evenodd" d="M93.3931 9.75299L153.35 44.3693C158.714 47.4662 162.019 53.1897 162.019 59.3837V128.616C162.019 134.81 158.714 140.534 153.35 143.631L93.3931 178.247C88.0289 181.344 81.42 181.344 76.0559 178.247L16.0988 143.631C10.7347 140.534 7.43023 134.81 7.43023 128.616V59.3837C7.43023 53.1897 10.7347 47.4662 16.0988 44.3693L76.0559 9.75299C81.42 6.65599 88.0289 6.65599 93.3931 9.75299ZM72.3407 3.31821C80.0038 -1.10607 89.4451 -1.10607 97.1082 3.31821L157.065 37.9345C164.728 42.3588 169.449 50.5352 169.449 59.3837V128.616C169.449 137.465 164.728 145.641 157.065 150.066L97.1082 184.682C89.4451 189.106 80.0038 189.106 72.3407 184.682L12.3837 150.066C4.72065 145.641 0 137.465 0 128.616V59.3837C0 50.5352 4.72065 42.3588 12.3837 37.9345L72.3407 3.31821ZM96.4685 48.0413C96.4685 48.9169 96.374 49.7705 96.1946 50.5924L116.096 62.8865C118.28 60.3552 121.512 58.753 125.117 58.753C131.695 58.753 137.027 64.0852 137.027 70.6628C137.027 76.0965 133.388 80.6803 128.414 82.1103V105.665C133.388 107.095 137.027 111.678 137.027 117.112C137.027 123.69 131.695 129.022 125.117 129.022C121.714 129.022 118.645 127.595 116.475 125.307L96.0101 136.856C96.3086 137.899 96.4685 139.001 96.4685 140.14C96.4685 146.717 91.1363 152.05 84.5587 152.05C77.9811 152.05 72.6488 146.717 72.6488 140.14C72.6488 134.449 76.6398 129.691 81.9753 128.511V106.393C76.6398 105.213 72.6488 100.455 72.6488 94.7642C72.6488 93.7531 72.7748 92.7714 73.012 91.834L52.7816 79.3368C50.6499 81.3432 47.7787 82.5726 44.6203 82.5726C38.0427 82.5726 32.7105 77.2404 32.7105 70.6628C32.7105 64.0852 38.0427 58.753 44.6203 58.753C51.1979 58.753 56.5301 64.0852 56.5301 70.6628C56.5301 71.9801 56.3163 73.2474 55.9214 74.4319L75.7895 86.7053C77.4096 84.9432 79.554 83.6708 81.9753 83.1353V59.6701C76.6398 58.4901 72.6488 53.7318 72.6488 48.0413C72.6488 41.4637 77.9811 36.1314 84.5587 36.1314C91.1363 36.1314 96.4685 41.4637 96.4685 48.0413ZM87.7626 128.666V106.238C92.7841 104.839 96.4685 100.232 96.4685 94.7642C96.4685 89.2966 92.7841 84.6895 87.7626 83.2903V59.5152C90.0534 58.8769 92.066 57.5709 93.5774 55.8201L113.48 68.1151C113.302 68.9359 113.207 69.7883 113.207 70.6628C113.207 76.3865 117.245 81.1671 122.627 82.3119V105.463C117.245 106.608 113.207 111.388 113.207 117.112C113.207 118.328 113.39 119.502 113.728 120.607L93.3519 132.107C91.8683 130.484 89.9413 129.273 87.7626 128.666ZM56.5301 117.112C56.5301 123.69 51.1979 129.022 44.6203 129.022C38.0427 129.022 32.7105 123.69 32.7105 117.112C32.7105 110.535 38.0427 105.202 44.6203 105.202C51.1979 105.202 56.5301 110.535 56.5301 117.112Z" fill="url(#paint0_linear_431_7764)"/>
<defs>
<linearGradient id="paint0_linear_431_7764" x1="46.2576" y1="26.2115" x2="97.4953" y2="170.667" gradientUnits="userSpaceOnUse">
<stop stop-color="#99C2FF"/>
<stop offset="1" stop-color="#2656FF"/>
</linearGradient>
</defs>
</svg>
