<svg width="1416" height="188" viewBox="0 0 1416 188" fill="none" xmlns="http://www.w3.org/2000/svg">
<path fill-rule="evenodd" clip-rule="evenodd" d="M93.3931 9.75299L153.35 44.3693C158.714 47.4662 162.019 53.1897 162.019 59.3837V128.616C162.019 134.81 158.714 140.534 153.35 143.631L93.3931 178.247C88.0289 181.344 81.42 181.344 76.0559 178.247L16.0988 143.631C10.7347 140.534 7.43023 134.81 7.43023 128.616V59.3837C7.43023 53.1897 10.7347 47.4662 16.0988 44.3693L76.0559 9.75299C81.42 6.65599 88.0289 6.65599 93.3931 9.75299ZM72.3407 3.31821C80.0038 -1.10607 89.4451 -1.10607 97.1082 3.31821L157.065 37.9345C164.728 42.3588 169.449 50.5352 169.449 59.3837V128.616C169.449 137.465 164.728 145.641 157.065 150.066L97.1082 184.682C89.4451 189.106 80.0038 189.106 72.3407 184.682L12.3837 150.066C4.72065 145.641 0 137.465 0 128.616V59.3837C0 50.5352 4.72065 42.3588 12.3837 37.9345L72.3407 3.31821ZM96.4685 48.0413C96.4685 48.9169 96.374 49.7705 96.1946 50.5924L116.096 62.8865C118.28 60.3552 121.512 58.753 125.117 58.753C131.695 58.753 137.027 64.0852 137.027 70.6628C137.027 76.0965 133.388 80.6803 128.414 82.1103V105.665C133.388 107.095 137.027 111.678 137.027 117.112C137.027 123.69 131.695 129.022 125.117 129.022C121.714 129.022 118.645 127.595 116.475 125.307L96.0101 136.856C96.3086 137.899 96.4685 139.001 96.4685 140.14C96.4685 146.717 91.1363 152.05 84.5587 152.05C77.9811 152.05 72.6488 146.717 72.6488 140.14C72.6488 134.449 76.6398 129.691 81.9753 128.511V106.393C76.6398 105.213 72.6488 100.455 72.6488 94.7642C72.6488 93.7531 72.7748 92.7714 73.012 91.834L52.7816 79.3368C50.6499 81.3432 47.7787 82.5726 44.6203 82.5726C38.0427 82.5726 32.7105 77.2404 32.7105 70.6628C32.7105 64.0852 38.0427 58.753 44.6203 58.753C51.1979 58.753 56.5301 64.0852 56.5301 70.6628C56.5301 71.9801 56.3163 73.2474 55.9214 74.4319L75.7895 86.7053C77.4096 84.9432 79.554 83.6708 81.9753 83.1353V59.6701C76.6398 58.4901 72.6488 53.7318 72.6488 48.0413C72.6488 41.4637 77.9811 36.1314 84.5587 36.1314C91.1363 36.1314 96.4685 41.4637 96.4685 48.0413ZM87.7626 128.666V106.238C92.7841 104.839 96.4685 100.232 96.4685 94.7642C96.4685 89.2966 92.7841 84.6895 87.7626 83.2903V59.5152C90.0534 58.8769 92.066 57.5709 93.5774 55.8201L113.48 68.1151C113.302 68.9359 113.207 69.7883 113.207 70.6628C113.207 76.3865 117.245 81.1671 122.627 82.3119V105.463C117.245 106.608 113.207 111.388 113.207 117.112C113.207 118.328 113.39 119.502 113.728 120.607L93.3519 132.107C91.8683 130.484 89.9413 129.273 87.7626 128.666ZM56.5301 117.112C56.5301 123.69 51.1979 129.022 44.6203 129.022C38.0427 129.022 32.7105 123.69 32.7105 117.112C32.7105 110.535 38.0427 105.202 44.6203 105.202C51.1979 105.202 56.5301 110.535 56.5301 117.112Z" fill="url(#paint0_linear_431_6033)"/>
<path d="M413.628 49.3585V132.256H400.031V49.3585H413.628Z" fill="#CFDDFF"/>
<path d="M462.254 65.461C467.423 65.461 472.035 66.5345 476.09 68.6815C480.225 70.8285 483.446 74.0093 485.752 78.2237C488.058 82.4382 489.211 87.5274 489.211 93.4913V132.256H475.733V95.519C475.733 89.6346 474.261 85.1418 471.319 82.0406C468.377 78.8599 464.361 77.2695 459.272 77.2695C454.183 77.2695 450.128 78.8599 447.106 82.0406C444.164 85.1418 442.693 89.6346 442.693 95.519V132.256H429.095V66.5345H442.693V74.049C444.919 71.3454 447.742 69.2381 451.161 67.7273C454.66 66.2164 458.358 65.461 462.254 65.461Z" fill="#CFDDFF"/>
<path d="M520.034 77.6273V114.007C520.034 116.472 520.59 118.261 521.704 119.375C522.896 120.408 524.884 120.925 527.667 120.925H536.017V132.256H525.282C519.159 132.256 514.467 130.825 511.207 127.963C507.947 125.1 506.317 120.448 506.317 114.007V77.6273H498.564V66.5345H506.317V49.0764H520.034V66.5345H536.017V77.6273H520.034Z" fill="#CFDDFF"/>
<path d="M606.399 97.7853C606.399 100.25 606.24 102.477 605.922 104.465H555.706C556.104 109.713 558.052 113.928 561.551 117.108C565.049 120.289 569.343 121.879 574.432 121.879C581.748 121.879 586.917 118.818 589.939 112.695H604.61C602.622 118.738 599.004 123.708 593.755 127.605C588.587 131.422 582.146 133.33 574.432 133.33C568.151 133.33 562.505 131.938 557.495 129.155C552.565 126.293 548.669 122.317 545.806 117.228C543.023 112.059 541.631 106.095 541.631 99.3359C541.631 92.5768 542.983 86.6527 545.687 81.5635C548.47 76.3948 552.326 72.4189 557.257 69.6357C562.266 66.8526 567.992 65.461 574.432 65.461C580.635 65.461 586.161 66.8128 591.012 69.5165C595.863 72.2201 599.64 76.037 602.343 80.9671C605.047 85.8177 606.399 91.4238 606.399 97.7853ZM592.205 93.4913C592.125 88.4816 590.336 84.4659 586.837 81.4442C583.339 78.4225 579.005 76.9117 573.836 76.9117C569.145 76.9117 565.129 78.4225 561.789 81.4442C558.449 84.3864 556.461 88.4021 555.825 93.4913H592.205Z" fill="#CFDDFF"/>
<path d="M643.874 65.461C648.963 65.461 653.456 66.4948 657.352 68.5622C661.328 70.5502 664.43 73.055 666.656 76.0767V66.5345H680.373V133.33C680.373 139.373 679.101 144.741 676.556 149.432C674.012 154.204 670.314 157.941 665.463 160.645C660.692 163.348 654.967 164.7 648.287 164.7C639.381 164.7 631.986 162.593 626.102 158.378C620.218 154.243 616.878 148.598 616.083 141.441H629.561C630.595 144.86 632.781 147.604 636.121 149.671C639.54 151.818 643.596 152.892 648.287 152.892C653.774 152.892 658.187 151.222 661.527 147.882C664.946 144.542 666.656 139.691 666.656 133.33V122.356C664.35 125.458 661.209 128.082 657.233 130.229C653.337 132.296 648.884 133.33 643.874 133.33C638.149 133.33 632.901 131.899 628.13 129.036C623.438 126.094 619.701 122.038 616.918 116.87C614.214 111.621 612.862 105.697 612.862 99.0973C612.862 92.4973 614.214 86.6527 616.918 81.5635C619.701 76.4743 623.438 72.5382 628.13 69.755C632.901 66.8924 638.149 65.461 643.874 65.461ZM666.656 99.3359C666.656 94.8033 665.702 90.8672 663.793 87.5274C661.965 84.1876 659.539 81.643 656.518 79.8936C653.496 78.1442 650.236 77.2695 646.737 77.2695C643.238 77.2695 639.978 78.1442 636.956 79.8936C633.934 81.5635 631.469 84.0684 629.561 87.4081C627.732 90.6684 626.818 94.5648 626.818 99.0973C626.818 103.63 627.732 107.606 629.561 111.025C631.469 114.444 633.934 117.068 636.956 118.897C640.057 120.647 643.318 121.522 646.737 121.522C650.236 121.522 653.496 120.647 656.518 118.897C659.539 117.148 661.965 114.603 663.793 111.264C665.702 107.844 666.656 103.868 666.656 99.3359Z" fill="#CFDDFF"/>
<path d="M709.445 76.0767C711.433 72.737 714.057 70.1526 717.317 68.3237C720.657 66.4152 724.593 65.461 729.126 65.461V79.5358H725.667C720.339 79.5358 716.283 80.8876 713.5 83.5912C710.797 86.2949 709.445 90.9865 709.445 97.666V132.256H695.847V66.5345H709.445V76.0767Z" fill="#CFDDFF"/>
<path d="M734.707 99.0973C734.707 92.4973 736.058 86.6527 738.762 81.5635C741.545 76.4743 745.282 72.5382 749.974 69.755C754.745 66.8924 759.993 65.461 765.719 65.461C770.887 65.461 775.38 66.4948 779.197 68.5622C783.093 70.5502 786.194 73.055 788.501 76.0767V66.5345H802.217V132.256H788.501V122.476C786.194 125.577 783.054 128.161 779.078 130.229C775.102 132.296 770.569 133.33 765.48 133.33C759.834 133.33 754.666 131.899 749.974 129.036C745.282 126.094 741.545 122.038 738.762 116.87C736.058 111.621 734.707 105.697 734.707 99.0973ZM788.501 99.3359C788.501 94.8033 787.546 90.8672 785.638 87.5274C783.809 84.1876 781.384 81.643 778.362 79.8936C775.34 78.1442 772.08 77.2695 768.581 77.2695C765.082 77.2695 761.822 78.1442 758.8 79.8936C755.779 81.5635 753.314 84.0684 751.405 87.4081C749.576 90.6684 748.662 94.5648 748.662 99.0973C748.662 103.63 749.576 107.606 751.405 111.025C753.314 114.444 755.779 117.068 758.8 118.897C761.902 120.647 765.162 121.522 768.581 121.522C772.08 121.522 775.34 120.647 778.362 118.897C781.384 117.148 783.809 114.603 785.638 111.264C787.546 107.844 788.501 103.868 788.501 99.3359Z" fill="#CFDDFF"/>
<path d="M833.556 77.6273V114.007C833.556 116.472 834.112 118.261 835.225 119.375C836.418 120.408 838.406 120.925 841.189 120.925H849.539V132.256H838.804C832.681 132.256 827.989 130.825 824.729 127.963C821.469 125.1 819.839 120.448 819.839 114.007V77.6273H812.086V66.5345H819.839V49.0764H833.556V66.5345H849.539V77.6273H833.556Z" fill="#CFDDFF"/>
<path d="M873.283 78.2237V132.256H859.686V78.2237H873.283Z" fill="#CFDDFF"/>
<path d="M917.257 133.33C911.055 133.33 905.449 131.938 900.439 129.155C895.43 126.293 891.494 122.317 888.631 117.228C885.768 112.059 884.337 106.095 884.337 99.3359C884.337 92.6563 885.808 86.7322 888.75 81.5635C891.692 76.3948 895.708 72.4189 900.797 69.6357C905.886 66.8526 911.572 65.461 917.854 65.461C924.136 65.461 929.821 66.8526 934.91 69.6357C940 72.4189 944.015 76.3948 946.957 81.5635C949.9 86.7322 951.371 92.6563 951.371 99.3359C951.371 106.015 949.86 111.94 946.838 117.108C943.816 122.277 939.682 126.293 934.433 129.155C929.265 131.938 923.539 133.33 917.257 133.33ZM917.257 121.522C920.756 121.522 924.016 120.687 927.038 119.017C930.139 117.347 932.644 114.842 934.553 111.502C936.461 108.162 937.415 104.107 937.415 99.3359C937.415 94.5648 936.501 90.5491 934.672 87.2888C932.843 83.9491 930.418 81.4442 927.396 79.7743C924.374 78.1045 921.114 77.2695 917.615 77.2695C914.116 77.2695 910.856 78.1045 907.835 79.7743C904.892 81.4442 902.547 83.9491 900.797 87.2888C899.048 90.5491 898.173 94.5648 898.173 99.3359C898.173 106.413 899.962 111.9 903.541 115.796C907.198 119.613 911.771 121.522 917.257 121.522Z" fill="#CFDDFF"/>
<path d="M995.586 65.461C1000.75 65.461 1005.37 66.5345 1009.42 68.6815C1013.56 70.8285 1016.78 74.0093 1019.08 78.2237C1021.39 82.4382 1022.54 87.5274 1022.54 93.4913V132.256H1009.06V95.519C1009.06 89.6346 1007.59 85.1418 1004.65 82.0406C1001.71 78.8599 997.693 77.2695 992.604 77.2695C987.515 77.2695 983.46 78.8599 980.438 82.0406C977.496 85.1418 976.025 89.6346 976.025 95.519V132.256H962.427V66.5345H976.025V74.049C978.251 71.3454 981.074 69.2381 984.493 67.7273C987.992 66.2164 991.69 65.461 995.586 65.461Z" fill="#CFDDFF"/>
<path d="M1085.83 86.5638H1073.67V132.256H1059.95V86.5638H1052.2V75.471H1059.95V70.8191C1059.95 63.2649 1061.94 57.7781 1065.91 54.3588C1069.97 50.86 1076.29 49.1106 1084.88 49.1106V60.442C1080.74 60.442 1077.84 61.2372 1076.17 62.8275C1074.5 64.3384 1073.67 67.0022 1073.67 70.8191V75.471H1085.83V86.5638Z" fill="#CFDDFF"/>
<path d="M1124.01 133.33C1117.8 133.33 1112.2 131.938 1107.19 129.155C1102.18 126.293 1098.24 122.317 1095.38 117.228C1092.52 112.059 1091.09 106.095 1091.09 99.3359C1091.09 92.6563 1092.56 86.7322 1095.5 81.5635C1098.44 76.3948 1102.46 72.4189 1107.55 69.6357C1112.64 66.8526 1118.32 65.461 1124.6 65.461C1130.88 65.461 1136.57 66.8526 1141.66 69.6357C1146.75 72.4189 1150.76 76.3948 1153.71 81.5635C1156.65 86.7322 1158.12 92.6563 1158.12 99.3359C1158.12 106.015 1156.61 111.94 1153.59 117.108C1150.57 122.277 1146.43 126.293 1141.18 129.155C1136.01 131.938 1130.29 133.33 1124.01 133.33ZM1124.01 121.522C1127.51 121.522 1130.77 120.687 1133.79 119.017C1136.89 117.347 1139.39 114.842 1141.3 111.502C1143.21 108.162 1144.16 104.107 1144.16 99.3359C1144.16 94.5648 1143.25 90.5491 1141.42 87.2888C1139.59 83.9491 1137.17 81.4442 1134.14 79.7743C1131.12 78.1045 1127.86 77.2695 1124.36 77.2695C1120.87 77.2695 1117.61 78.1045 1114.58 79.7743C1111.64 81.4442 1109.3 83.9491 1107.55 87.2888C1105.8 90.5491 1104.92 94.5648 1104.92 99.3359C1104.92 106.413 1106.71 111.9 1110.29 115.796C1113.95 119.613 1118.52 121.522 1124.01 121.522Z" fill="#CFDDFF"/>
<path d="M1182.77 76.0767C1184.76 72.737 1187.39 70.1526 1190.65 68.3237C1193.99 66.4152 1197.92 65.461 1202.45 65.461V79.5358H1199C1193.67 79.5358 1189.61 80.8876 1186.83 83.5912C1184.13 86.2949 1182.77 90.9865 1182.77 97.666V132.256H1169.18V66.5345H1182.77V76.0767Z" fill="#CFDDFF"/>
<path d="M1268.5 49.3585V109.117C1268.5 116.512 1266.23 122.356 1261.7 126.65C1257.25 130.944 1251.36 133.091 1244.05 133.091C1236.73 133.091 1230.81 130.944 1226.28 126.65C1221.82 122.356 1219.6 116.512 1219.6 109.117H1233.31C1233.39 112.774 1234.31 115.677 1236.06 117.824C1237.89 119.971 1240.55 121.044 1244.05 121.044C1247.55 121.044 1250.21 119.971 1252.04 117.824C1253.87 115.597 1254.78 112.695 1254.78 109.117V49.3585H1268.5Z" fill="#CFDDFF"/>
<path d="M1295.13 78.2237V132.256H1281.53V78.2237H1295.13Z" fill="#CFDDFF"/>
<path d="M1321.96 76.0767C1323.95 72.737 1326.57 70.1526 1329.83 68.3237C1333.17 66.4152 1337.11 65.461 1341.64 65.461V79.5358H1338.18C1332.85 79.5358 1328.8 80.8876 1326.02 83.5912C1323.31 86.2949 1321.96 90.9865 1321.96 97.666V132.256H1308.36V66.5345H1321.96V76.0767Z" fill="#CFDDFF"/>
<path d="M1347.22 99.0973C1347.22 92.4973 1348.57 86.6527 1351.28 81.5635C1354.06 76.4743 1357.8 72.5382 1362.49 69.755C1367.26 66.8924 1372.51 65.461 1378.23 65.461C1383.4 65.461 1387.9 66.4948 1391.71 68.5622C1395.61 70.5502 1398.71 73.055 1401.02 76.0767V66.5345H1414.73V132.256H1401.02V122.476C1398.71 125.577 1395.57 128.161 1391.59 130.229C1387.62 132.296 1383.08 133.33 1378 133.33C1372.35 133.33 1367.18 131.899 1362.49 129.036C1357.8 126.094 1354.06 122.038 1351.28 116.87C1348.57 111.621 1347.22 105.697 1347.22 99.0973ZM1401.02 99.3359C1401.02 94.8033 1400.06 90.8672 1398.15 87.5274C1396.32 84.1876 1393.9 81.643 1390.88 79.8936C1387.86 78.1442 1384.6 77.2695 1381.1 77.2695C1377.6 77.2695 1374.34 78.1442 1371.32 79.8936C1368.29 81.5635 1365.83 84.0684 1363.92 87.4081C1362.09 90.6684 1361.18 94.5648 1361.18 99.0973C1361.18 103.63 1362.09 107.606 1363.92 111.025C1365.83 114.444 1368.29 117.068 1371.32 118.897C1374.42 120.647 1377.68 121.522 1381.1 121.522C1384.6 121.522 1387.86 120.647 1390.88 118.897C1393.9 117.148 1396.32 114.603 1398.15 111.264C1400.06 107.844 1401.02 103.868 1401.02 99.3359Z" fill="#CFDDFF"/>
<path d="M275.683 72.9886C273.531 68.8438 270.542 65.7351 266.716 63.6627C262.89 61.5106 258.466 60.4345 253.445 60.4345C247.945 60.4345 243.043 61.67 238.738 64.141C234.434 66.6119 231.047 70.1191 228.576 74.6625C226.184 79.2059 224.989 84.4667 224.989 90.4448C224.989 96.423 226.184 101.724 228.576 106.347C231.047 110.89 234.434 114.397 238.738 116.868C243.043 119.339 247.945 120.575 253.445 120.575C260.857 120.575 266.875 118.502 271.499 114.357C276.122 110.213 278.951 104.593 279.987 97.499H248.782V86.6188H294.574C294.574 86.6188 294.999 89.796 294.999 92.2152C294.999 94.2879 294.574 97.2599 294.574 97.2599C293.697 103.716 291.386 109.655 287.639 115.075C283.973 120.495 279.15 124.839 273.172 128.107C267.274 131.295 260.698 132.89 253.445 132.89C245.633 132.89 238.499 131.096 232.043 127.509C225.587 123.843 220.445 118.781 216.619 112.325C212.873 105.868 211 98.5751 211 90.4448C211 82.3146 212.873 75.0212 216.619 68.5648C220.445 62.1084 225.587 57.0868 232.043 53.4999C238.579 49.8333 245.713 48 253.445 48C262.292 48 270.143 50.192 276.998 54.5759C283.933 58.8802 288.955 65.0178 292.063 72.9886H275.683Z" fill="#CFDDFF"/>
<path d="M319.256 78.0103V132.172H305.626V78.0103H319.256Z" fill="#CFDDFF"/>
<path d="M350.662 77.4124V113.879C350.662 116.35 351.22 118.144 352.336 119.259C353.531 120.296 355.524 120.814 358.314 120.814H366.683V132.172H355.923C349.785 132.172 345.082 130.737 341.814 127.868C338.546 124.998 336.912 120.336 336.912 113.879V77.4124H329.141V66.2931H336.912V49.0263H350.662V66.2931H366.683V77.4124H350.662Z" fill="#CFDDFF"/>
<path d="M305.113 67.2818C307.163 69.3169 309.7 70.3345 312.725 70.3345C315.652 70.3345 318.14 69.3169 320.19 67.2818C322.239 65.2466 323.263 62.7268 323.263 59.7225C323.263 56.7182 322.239 54.1984 320.19 52.1633C318.14 50.1281 315.652 49.1105 312.725 49.1105C309.7 49.1105 307.163 50.1281 305.113 52.1633C303.064 54.1984 302.04 56.7182 302.04 59.7225C302.04 62.7268 303.064 65.2466 305.113 67.2818Z" fill="#CFDDFF"/>
<path d="M859.097 67.2477C861.146 69.2829 863.683 70.3005 866.708 70.3005C869.636 70.3005 872.124 69.2829 874.173 67.2477C876.222 65.2125 877.247 62.6927 877.247 59.6884C877.247 56.6841 876.222 54.1644 874.173 52.1292C872.124 50.094 869.636 49.0764 866.708 49.0764C863.683 49.0764 861.146 50.094 859.097 52.1292C857.048 54.1644 856.023 56.6841 856.023 59.6884C856.023 62.6927 857.048 65.2125 859.097 67.2477Z" fill="#CFDDFF"/>
<path d="M1280.86 67.2477C1282.91 69.2829 1285.44 70.3005 1288.47 70.3005C1291.39 70.3005 1293.88 69.2829 1295.93 67.2477C1297.98 65.2125 1299.01 62.6927 1299.01 59.6884C1299.01 56.6841 1297.98 54.1644 1295.93 52.1292C1293.88 50.094 1291.39 49.0764 1288.47 49.0764C1285.44 49.0764 1282.91 50.094 1280.86 52.1292C1278.81 54.1644 1277.78 56.6841 1277.78 59.6884C1277.78 62.6927 1278.81 65.2125 1280.86 67.2477Z" fill="#CFDDFF"/>
<defs>
<linearGradient id="paint0_linear_431_6033" x1="46.2576" y1="26.2115" x2="97.4953" y2="170.667" gradientUnits="userSpaceOnUse">
<stop stop-color="#99C2FF"/>
<stop offset="1" stop-color="#2656FF"/>
</linearGradient>
</defs>
</svg>
