<svg width="300" height="332" viewBox="0 0 300 332" fill="none" xmlns="http://www.w3.org/2000/svg">
<path fill-rule="evenodd" clip-rule="evenodd" d="M128.075 5.85982C141.642 -1.95327 158.358 -1.95327 171.925 5.85982L278.075 66.9907C291.642 74.8038 300 89.243 300 104.869V227.131C300 242.757 291.642 257.196 278.075 265.009L171.925 326.14C158.358 333.953 141.642 333.953 128.075 326.14L21.9247 265.009C8.35767 257.196 8.88482e-06 242.757 8.88482e-06 227.131V104.869C8.88482e-06 89.243 8.35767 74.8038 21.9247 66.9907L128.075 5.85982Z" fill="#082C72"/>
<path fill-rule="evenodd" clip-rule="evenodd" d="M128.075 5.85982C141.642 -1.95327 158.358 -1.95327 171.925 5.85982L278.075 66.9907C291.642 74.8038 300 89.243 300 104.869V227.131C300 242.757 291.642 257.196 278.075 265.009L171.925 326.14C158.358 333.953 141.642 333.953 128.075 326.14L21.9247 265.009C8.35767 257.196 8.88482e-06 242.757 8.88482e-06 227.131V104.869C8.88482e-06 89.243 8.35767 74.8038 21.9247 66.9907L128.075 5.85982Z" fill="url(#paint0_radial_565_5286)"/>
<path fill-rule="evenodd" clip-rule="evenodd" d="M128.075 5.85982C141.642 -1.95327 158.358 -1.95327 171.925 5.85982L278.075 66.9907C291.642 74.8038 300 89.243 300 104.869V227.131C300 242.757 291.642 257.196 278.075 265.009L171.925 326.14C158.358 333.953 141.642 333.953 128.075 326.14L21.9247 265.009C8.35767 257.196 8.88482e-06 242.757 8.88482e-06 227.131V104.869C8.88482e-06 89.243 8.35767 74.8038 21.9247 66.9907L128.075 5.85982Z" fill="url(#paint1_radial_565_5286)"/>
<g filter="url(#filter0_d_565_5286)">
<path fill-rule="evenodd" clip-rule="evenodd" d="M169.388 89.3477C169.708 87.8925 169.876 86.3809 169.876 84.8301C169.876 73.2143 160.436 63.7979 148.79 63.7979C137.145 63.7979 127.705 73.2143 127.705 84.8301C127.705 94.8803 134.772 103.284 144.22 105.367V146.813C139.93 147.759 136.131 150.007 133.262 153.121L98.0908 131.45C98.7905 129.357 99.1694 127.118 99.1694 124.791C99.1694 113.175 89.729 103.759 78.0837 103.759C66.4384 103.759 56.998 113.175 56.998 124.791C56.998 136.407 66.4384 145.823 78.0837 145.823C83.6745 145.823 88.7571 143.653 92.5308 140.111L128.346 162.18C127.927 163.834 127.705 165.566 127.705 167.35C127.705 177.4 134.772 185.804 144.22 187.887V226.943C134.772 229.026 127.705 237.429 127.705 247.48C127.705 259.095 137.145 268.512 148.79 268.512C160.436 268.512 169.876 259.095 169.876 247.48C169.876 245.472 169.594 243.529 169.067 241.69L205.299 221.294C209.141 225.332 214.573 227.85 220.595 227.85C232.241 227.85 241.681 218.433 241.681 206.817C241.681 197.223 235.241 189.13 226.437 186.603V145.006C235.241 142.479 241.681 134.385 241.681 124.791C241.681 113.175 232.241 103.759 220.595 103.759C214.212 103.759 208.49 106.588 204.624 111.059L169.388 89.3477ZM154.466 187.612V227.218C158.325 228.291 161.738 230.432 164.365 233.301L200.434 212.996C199.833 211.042 199.51 208.968 199.51 206.817C199.51 196.708 206.66 188.265 216.191 186.245V145.364C206.66 143.344 199.51 134.9 199.51 124.791C199.51 123.247 199.676 121.742 199.993 120.293L164.75 98.5764C162.075 101.663 158.516 103.965 154.466 105.092V147.088C163.354 149.56 169.876 157.696 169.876 167.35C169.876 177.005 163.354 185.14 154.466 187.612ZM78.0837 227.85C89.729 227.85 99.1694 218.433 99.1694 206.817C99.1694 195.202 89.729 185.785 78.0837 185.785C66.4384 185.785 56.998 195.202 56.998 206.817C56.998 218.433 66.4384 227.85 78.0837 227.85Z" fill="white"/>
</g>
<path fill-rule="evenodd" clip-rule="evenodd" d="M131.584 11.922C142.98 5.35934 157.02 5.35934 168.416 11.922L274.566 73.0529C285.962 79.6155 292.982 91.7438 292.982 104.869V227.131C292.982 240.256 285.962 252.385 274.566 258.947L168.416 320.078C157.02 326.641 142.98 326.641 131.584 320.078L25.4336 258.947C14.0379 252.384 7.01779 240.256 7.01779 227.131V104.869C7.01779 91.7438 14.0379 79.6155 25.4336 73.0529L131.584 11.922ZM171.925 5.85982C158.358 -1.95327 141.642 -1.95327 128.075 5.85982L21.9247 66.9907C8.35768 74.8038 8.88482e-06 89.243 8.88482e-06 104.869V227.131C8.88482e-06 242.757 8.35768 257.196 21.9247 265.009L128.075 326.14C141.642 333.953 158.358 333.953 171.925 326.14L278.075 265.009C291.642 257.196 300 242.757 300 227.131V104.869C300 89.243 291.642 74.8038 278.075 66.9907L171.925 5.85982Z" fill="white" style="mix-blend-mode:soft-light"/>
<defs>
<filter id="filter0_d_565_5286" x="6.99805" y="17.7979" width="284.683" height="304.714" filterUnits="userSpaceOnUse" color-interpolation-filters="sRGB">
<feFlood flood-opacity="0" result="BackgroundImageFix"/>
<feColorMatrix in="SourceAlpha" type="matrix" values="0 0 0 0 0 0 0 0 0 0 0 0 0 0 0 0 0 0 127 0" result="hardAlpha"/>
<feOffset dy="4"/>
<feGaussianBlur stdDeviation="25"/>
<feComposite in2="hardAlpha" operator="out"/>
<feColorMatrix type="matrix" values="0 0 0 0 0 0 0 0 0 0 0 0 0 0 0 0 0 0 1 0"/>
<feBlend mode="normal" in2="BackgroundImageFix" result="effect1_dropShadow_565_5286"/>
<feBlend mode="normal" in="SourceGraphic" in2="effect1_dropShadow_565_5286" result="shape"/>
</filter>
<radialGradient id="paint0_radial_565_5286" cx="0" cy="0" r="1" gradientUnits="userSpaceOnUse" gradientTransform="translate(26.4205 92.9034) rotate(47.8986) scale(180.511 179.617)">
<stop stop-color="#00C2FF"/>
<stop offset="1" stop-color="#00A3FF" stop-opacity="0"/>
</radialGradient>
<radialGradient id="paint1_radial_565_5286" cx="0" cy="0" r="1" gradientUnits="userSpaceOnUse" gradientTransform="translate(276.136 259.847) rotate(-132.101) scale(181.782 198.014)">
<stop stop-color="#0066FF"/>
<stop offset="1" stop-color="#0D1017" stop-opacity="0"/>
</radialGradient>
</defs>
</svg>
