<svg width="1204" height="118" viewBox="0 0 1204 118" fill="none" xmlns="http://www.w3.org/2000/svg">
<path d="M202.628 1.70718V84.6051H189.031V1.70718H202.628Z" fill="#CFDDFF"/>
<path d="M251.254 17.8097C256.423 17.8097 261.035 18.8832 265.09 21.0302C269.225 23.1771 272.446 26.3579 274.752 30.5724C277.058 34.7868 278.211 39.876 278.211 45.8399V84.6051H264.733V47.8676C264.733 41.9833 263.261 37.4905 260.319 34.3893C257.377 31.2085 253.361 29.6181 248.272 29.6181C243.183 29.6181 239.128 31.2085 236.106 34.3893C233.164 37.4905 231.693 41.9833 231.693 47.8676V84.6051H218.095V18.8832H231.693V26.3976C233.919 23.694 236.742 21.5868 240.161 20.0759C243.66 18.5651 247.358 17.8097 251.254 17.8097Z" fill="#CFDDFF"/>
<path d="M309.034 29.976V66.3557C309.034 68.8207 309.59 70.6099 310.704 71.7232C311.896 72.7569 313.884 73.2738 316.667 73.2738H325.017V84.6051H314.282C308.159 84.6051 303.467 83.1738 300.207 80.3111C296.947 77.4485 295.317 72.7966 295.317 66.3557V29.976H287.564V18.8832H295.317V1.42508H309.034V18.8832H325.017V29.976H309.034Z" fill="#CFDDFF"/>
<path d="M395.399 50.1339C395.399 52.599 395.24 54.8255 394.922 56.8135H344.706C345.104 62.0617 347.052 66.2761 350.551 69.4569C354.049 72.6376 358.343 74.228 363.432 74.228C370.748 74.228 375.917 71.1665 378.939 65.0436H393.61C391.622 71.087 388.004 76.0569 382.755 79.9533C377.587 83.7702 371.146 85.6786 363.432 85.6786C357.151 85.6786 351.505 84.2871 346.495 81.5039C341.565 78.6412 337.669 74.6653 334.806 69.5762C332.023 64.4075 330.631 58.4436 330.631 51.6845C330.631 44.9255 331.983 39.0013 334.687 33.9121C337.47 28.7435 341.326 24.7675 346.257 21.9844C351.266 19.2012 356.992 17.8097 363.432 17.8097C369.635 17.8097 375.161 19.1615 380.012 21.8651C384.863 24.5687 388.64 28.3856 391.343 33.3158C394.047 38.1664 395.399 43.7724 395.399 50.1339ZM381.205 45.8399C381.125 40.8302 379.336 36.8146 375.837 33.7929C372.339 30.7712 368.005 29.2603 362.836 29.2603C358.145 29.2603 354.129 30.7712 350.789 33.7929C347.449 36.735 345.461 40.7507 344.825 45.8399H381.205Z" fill="#CFDDFF"/>
<path d="M432.874 17.8097C437.963 17.8097 442.456 18.8434 446.352 20.9109C450.328 22.8988 453.43 25.4037 455.656 28.4254V18.8832H469.373V85.6786C469.373 91.722 468.101 97.0895 465.556 101.781C463.012 106.552 459.314 110.29 454.463 112.993C449.692 115.697 443.967 117.049 437.287 117.049C428.381 117.049 420.986 114.941 415.102 110.727C409.218 106.592 405.878 100.946 405.083 93.7895H418.561C419.595 97.2088 421.781 99.9522 425.121 102.02C428.54 104.167 432.596 105.24 437.287 105.24C442.774 105.24 447.187 103.57 450.527 100.231C453.946 96.8907 455.656 92.0401 455.656 85.6786V74.7051C453.35 77.8063 450.209 80.4304 446.233 82.5774C442.337 84.6449 437.884 85.6786 432.874 85.6786C427.149 85.6786 421.901 84.2473 417.13 81.3846C412.438 78.4424 408.701 74.387 405.918 69.2183C403.214 63.9701 401.862 58.046 401.862 51.446C401.862 44.8459 403.214 39.0013 405.918 33.9121C408.701 28.823 412.438 24.8868 417.13 22.1036C421.901 19.241 427.149 17.8097 432.874 17.8097ZM455.656 51.6845C455.656 47.152 454.702 43.2158 452.793 39.876C450.965 36.5363 448.539 33.9917 445.518 32.2423C442.496 30.4929 439.236 29.6181 435.737 29.6181C432.238 29.6181 428.978 30.4929 425.956 32.2423C422.934 33.9121 420.469 36.417 418.561 39.7568C416.732 43.017 415.818 46.9134 415.818 51.446C415.818 55.9785 416.732 59.9544 418.561 63.3737C420.469 66.793 422.934 69.4171 425.956 71.246C429.057 72.9954 432.318 73.8701 435.737 73.8701C439.236 73.8701 442.496 72.9954 445.518 71.246C448.539 69.4966 450.965 66.952 452.793 63.6123C454.702 60.193 455.656 56.2171 455.656 51.6845Z" fill="#CFDDFF"/>
<path d="M498.445 28.4254C500.433 25.0856 503.057 22.5012 506.317 20.6723C509.657 18.7639 513.593 17.8097 518.126 17.8097V31.8844H514.667C509.339 31.8844 505.283 33.2362 502.5 35.9399C499.797 38.6435 498.445 43.3351 498.445 50.0146V84.6051H484.847V18.8832H498.445V28.4254Z" fill="#CFDDFF"/>
<path d="M523.707 51.446C523.707 44.8459 525.058 39.0013 527.762 33.9121C530.545 28.823 534.282 24.8868 538.974 22.1036C543.745 19.241 548.993 17.8097 554.719 17.8097C559.887 17.8097 564.38 18.8434 568.197 20.9109C572.093 22.8988 575.194 25.4037 577.501 28.4254V18.8832H591.217V84.6051H577.501V74.8244C575.194 77.9256 572.054 80.5099 568.078 82.5774C564.102 84.6449 559.569 85.6786 554.48 85.6786C548.834 85.6786 543.666 84.2473 538.974 81.3846C534.282 78.4424 530.545 74.387 527.762 69.2183C525.058 63.9701 523.707 58.046 523.707 51.446ZM577.501 51.6845C577.501 47.152 576.546 43.2158 574.638 39.876C572.809 36.5363 570.384 33.9917 567.362 32.2423C564.34 30.4929 561.08 29.6181 557.581 29.6181C554.082 29.6181 550.822 30.4929 547.8 32.2423C544.779 33.9121 542.314 36.417 540.405 39.7568C538.576 43.017 537.662 46.9134 537.662 51.446C537.662 55.9785 538.576 59.9544 540.405 63.3737C542.314 66.793 544.779 69.4171 547.8 71.246C550.902 72.9954 554.162 73.8701 557.581 73.8701C561.08 73.8701 564.34 72.9954 567.362 71.246C570.384 69.4966 572.809 66.952 574.638 63.6123C576.546 60.193 577.501 56.2171 577.501 51.6845Z" fill="#CFDDFF"/>
<path d="M622.556 29.976V66.3557C622.556 68.8207 623.112 70.6099 624.225 71.7232C625.418 72.7569 627.406 73.2738 630.189 73.2738H638.539V84.6051H627.804C621.681 84.6051 616.989 83.1738 613.729 80.3111C610.469 77.4485 608.839 72.7966 608.839 66.3557V29.976H601.086V18.8832H608.839V1.42508H622.556V18.8832H638.539V29.976H622.556Z" fill="#CFDDFF"/>
<path d="M662.283 30.5724V84.6051H648.686V30.5724H662.283Z" fill="#CFDDFF"/>
<path d="M706.257 85.6786C700.055 85.6786 694.449 84.2871 689.439 81.5039C684.43 78.6412 680.494 74.6653 677.631 69.5762C674.768 64.4075 673.337 58.4436 673.337 51.6845C673.337 45.005 674.808 39.0808 677.75 33.9121C680.692 28.7435 684.708 24.7675 689.797 21.9844C694.886 19.2012 700.572 17.8097 706.854 17.8097C713.136 17.8097 718.821 19.2012 723.91 21.9844C729 24.7675 733.015 28.7435 735.957 33.9121C738.9 39.0808 740.371 45.005 740.371 51.6845C740.371 58.3641 738.86 64.2882 735.838 69.4569C732.816 74.6256 728.682 78.6412 723.433 81.5039C718.265 84.2871 712.539 85.6786 706.257 85.6786ZM706.257 73.8701C709.756 73.8701 713.016 73.0352 716.038 71.3653C719.139 69.6954 721.644 67.1906 723.553 63.8508C725.461 60.511 726.415 56.4556 726.415 51.6845C726.415 46.9134 725.501 42.8977 723.672 39.6375C721.843 36.2977 719.418 33.7929 716.396 32.123C713.374 30.4531 710.114 29.6181 706.615 29.6181C703.116 29.6181 699.856 30.4531 696.835 32.123C693.892 33.7929 691.547 36.2977 689.797 39.6375C688.048 42.8977 687.173 46.9134 687.173 51.6845C687.173 58.7617 688.962 64.2484 692.541 68.1448C696.198 71.9617 700.771 73.8701 706.257 73.8701Z" fill="#CFDDFF"/>
<path d="M784.586 17.8097C789.755 17.8097 794.367 18.8832 798.422 21.0302C802.557 23.1771 805.778 26.3579 808.084 30.5724C810.39 34.7868 811.543 39.876 811.543 45.8399V84.6051H798.064V47.8676C798.064 41.9833 796.593 37.4905 793.651 34.3893C790.709 31.2085 786.693 29.6181 781.604 29.6181C776.515 29.6181 772.46 31.2085 769.438 34.3893C766.496 37.4905 765.025 41.9833 765.025 47.8676V84.6051H751.427V18.8832H765.025V26.3976C767.251 23.694 770.074 21.5868 773.493 20.0759C776.992 18.5651 780.69 17.8097 784.586 17.8097Z" fill="#CFDDFF"/>
<path d="M874.834 38.9124H862.668V84.6051H848.951V38.9124H841.198V27.8196H848.951V23.1677C848.951 15.6135 850.939 10.1267 854.915 6.70745C858.97 3.20864 865.292 1.45923 873.88 1.45923V12.7906C869.745 12.7906 866.842 13.5858 865.172 15.1762C863.503 16.687 862.668 19.3509 862.668 23.1677V27.8196H874.834V38.9124Z" fill="#CFDDFF"/>
<path d="M913.006 85.6786C906.804 85.6786 901.198 84.2871 896.188 81.5039C891.179 78.6412 887.242 74.6653 884.38 69.5762C881.517 64.4075 880.086 58.4436 880.086 51.6845C880.086 45.005 881.557 39.0808 884.499 33.9121C887.441 28.7435 891.457 24.7675 896.546 21.9844C901.635 19.2012 907.321 17.8097 913.603 17.8097C919.885 17.8097 925.57 19.2012 930.659 21.9844C935.749 24.7675 939.764 28.7435 942.706 33.9121C945.649 39.0808 947.12 45.005 947.12 51.6845C947.12 58.3641 945.609 64.2882 942.587 69.4569C939.565 74.6256 935.43 78.6412 930.182 81.5039C925.014 84.2871 919.288 85.6786 913.006 85.6786ZM913.006 73.8701C916.505 73.8701 919.765 73.0352 922.787 71.3653C925.888 69.6954 928.393 67.1906 930.302 63.8508C932.21 60.511 933.164 56.4556 933.164 51.6845C933.164 46.9134 932.25 42.8977 930.421 39.6375C928.592 36.2977 926.167 33.7929 923.145 32.123C920.123 30.4531 916.863 29.6181 913.364 29.6181C909.865 29.6181 906.605 30.4531 903.584 32.123C900.641 33.7929 898.296 36.2977 896.546 39.6375C894.797 42.8977 893.922 46.9134 893.922 51.6845C893.922 58.7617 895.711 64.2484 899.29 68.1448C902.947 71.9617 907.52 73.8701 913.006 73.8701Z" fill="#CFDDFF"/>
<path d="M971.774 28.4254C973.762 25.0856 976.386 22.5012 979.646 20.6723C982.986 18.7639 986.922 17.8097 991.454 17.8097V31.8844H987.995C982.668 31.8844 978.612 33.2362 975.829 35.9399C973.126 38.6435 971.774 43.3351 971.774 50.0146V84.6051H958.176V18.8832H971.774V28.4254Z" fill="#CFDDFF"/>
<path d="M1057.5 1.70718V61.4653C1057.5 68.8605 1055.23 74.7051 1050.7 78.9991C1046.25 83.2931 1040.36 85.4401 1033.05 85.4401C1025.73 85.4401 1019.81 83.2931 1015.28 78.9991C1010.82 74.7051 1008.6 68.8605 1008.6 61.4653H1022.31C1022.39 65.1231 1023.31 68.0255 1025.06 70.1725C1026.89 72.3195 1029.55 73.393 1033.05 73.393C1036.55 73.393 1039.21 72.3195 1041.04 70.1725C1042.87 67.946 1043.78 65.0436 1043.78 61.4653V1.70718H1057.5Z" fill="#CFDDFF"/>
<path d="M1084.13 30.5724V84.6051H1070.53V30.5724H1084.13Z" fill="#CFDDFF"/>
<path d="M1110.96 28.4254C1112.95 25.0856 1115.57 22.5012 1118.83 20.6723C1122.17 18.7639 1126.11 17.8097 1130.64 17.8097V31.8844H1127.18C1121.85 31.8844 1117.8 33.2362 1115.02 35.9399C1112.31 38.6435 1110.96 43.3351 1110.96 50.0146V84.6051H1097.36V18.8832H1110.96V28.4254Z" fill="#CFDDFF"/>
<path d="M1136.22 51.446C1136.22 44.8459 1137.57 39.0013 1140.28 33.9121C1143.06 28.823 1146.8 24.8868 1151.49 22.1036C1156.26 19.241 1161.51 17.8097 1167.23 17.8097C1172.4 17.8097 1176.9 18.8434 1180.71 20.9109C1184.61 22.8988 1187.71 25.4037 1190.02 28.4254V18.8832H1203.73V84.6051H1190.02V74.8244C1187.71 77.9256 1184.57 80.5099 1180.59 82.5774C1176.62 84.6449 1172.08 85.6786 1167 85.6786C1161.35 85.6786 1156.18 84.2473 1151.49 81.3846C1146.8 78.4424 1143.06 74.387 1140.28 69.2183C1137.57 63.9701 1136.22 58.046 1136.22 51.446ZM1190.02 51.6845C1190.02 47.152 1189.06 43.2158 1187.15 39.876C1185.32 36.5363 1182.9 33.9917 1179.88 32.2423C1176.86 30.4929 1173.6 29.6181 1170.1 29.6181C1166.6 29.6181 1163.34 30.4929 1160.32 32.2423C1157.29 33.9121 1154.83 36.417 1152.92 39.7568C1151.09 43.017 1150.18 46.9134 1150.18 51.446C1150.18 55.9785 1151.09 59.9544 1152.92 63.3737C1154.83 66.793 1157.29 69.4171 1160.32 71.246C1163.42 72.9954 1166.68 73.8701 1170.1 73.8701C1173.6 73.8701 1176.86 72.9954 1179.88 71.246C1182.9 69.4966 1185.32 66.952 1187.15 63.6123C1189.06 60.193 1190.02 56.2171 1190.02 51.6845Z" fill="#CFDDFF"/>
<path d="M64.6832 25.3373C62.531 21.1924 59.542 18.0838 55.716 16.0113C51.89 13.8592 47.4662 12.7832 42.4446 12.7832C36.9447 12.7832 32.0427 14.0186 27.7384 16.4896C23.4342 18.9606 20.0466 22.4677 17.5757 27.0111C15.1844 31.5545 13.9888 36.8153 13.9888 42.7935C13.9888 48.7716 15.1844 54.0722 17.5757 58.6953C20.0466 63.2387 23.4342 66.7458 27.7384 69.2168C32.0427 71.6878 36.9447 72.9233 42.4446 72.9233C49.8575 72.9233 55.8754 70.8508 60.4985 66.706C65.1216 62.5611 67.9512 56.9417 68.9875 49.8476H37.7817V38.9674H83.574C83.574 38.9674 83.9987 42.1446 83.9987 44.5639C83.9987 46.6365 83.574 49.6085 83.574 49.6085C82.6972 56.0649 80.3857 62.0032 76.6394 67.4234C72.9728 72.8436 68.1505 77.1877 62.1724 80.4557C56.274 83.6441 49.6981 85.2382 42.4446 85.2382C34.6332 85.2382 27.4993 83.4448 21.043 79.8579C14.5866 76.1913 9.4454 71.1298 5.61941 64.6734C1.87312 58.217 0 50.9237 0 42.7935C0 34.6632 1.87312 27.3698 5.61941 20.9134C9.4454 14.457 14.5866 9.43541 21.043 5.84852C27.579 2.18193 34.7129 0.348633 42.4446 0.348633C51.2922 0.348633 59.1435 2.5406 65.9984 6.92457C72.933 11.2288 77.9546 17.3664 81.0632 25.3373H64.6832Z" fill="#CFDDFF"/>
<path d="M108.256 30.3589V84.5208H94.6261V30.3589H108.256Z" fill="#CFDDFF"/>
<path d="M139.662 29.7611V66.2278C139.662 68.6987 140.22 70.4922 141.336 71.6081C142.531 72.6443 144.524 73.1624 147.314 73.1624H155.683V84.5208H144.923C138.785 84.5208 134.082 83.0861 130.814 80.2166C127.546 77.3471 125.912 72.6841 125.912 66.2278V29.7611H118.141V18.6417H125.912V1.37498H139.662V18.6417H155.683V29.7611H139.662Z" fill="#CFDDFF"/>
<path d="M94.1134 19.6304C96.1626 21.6656 98.6997 22.6831 101.725 22.6831C104.652 22.6831 107.14 21.6656 109.19 19.6304C111.239 17.5952 112.263 15.0754 112.263 12.0711C112.263 9.06681 111.239 6.54706 109.19 4.51189C107.14 2.4767 104.652 1.45914 101.725 1.45914C98.6997 1.45914 96.1626 2.4767 94.1134 4.51189C92.0642 6.54706 91.0395 9.06681 91.0395 12.0711C91.0395 15.0754 92.0642 17.5952 94.1134 19.6304Z" fill="#CFDDFF"/>
<path d="M648.097 19.5963C650.146 21.6315 652.683 22.6491 655.708 22.6491C658.636 22.6491 661.124 21.6315 663.173 19.5963C665.222 17.5612 666.247 15.0414 666.247 12.0371C666.247 9.03275 665.222 6.51301 663.173 4.47783C661.124 2.44264 658.636 1.42508 655.708 1.42508C652.683 1.42508 650.146 2.44264 648.097 4.47783C646.048 6.51301 645.023 9.03275 645.023 12.0371C645.023 15.0414 646.048 17.5612 648.097 19.5963Z" fill="#CFDDFF"/>
<path d="M1069.86 19.5963C1071.91 21.6315 1074.44 22.6491 1077.47 22.6491C1080.39 22.6491 1082.88 21.6315 1084.93 19.5963C1086.98 17.5612 1088.01 15.0414 1088.01 12.0371C1088.01 9.03275 1086.98 6.51301 1084.93 4.47783C1082.88 2.44264 1080.39 1.42508 1077.47 1.42508C1074.44 1.42508 1071.91 2.44264 1069.86 4.47783C1067.81 6.51301 1066.78 9.03275 1066.78 12.0371C1066.78 15.0414 1067.81 17.5612 1069.86 19.5963Z" fill="#CFDDFF"/>
</svg>
