<svg width="188" height="188" viewBox="0 0 188 188" fill="none" xmlns="http://www.w3.org/2000/svg">
<path fill-rule="evenodd" clip-rule="evenodd" d="M94 180.167C141.589 180.167 180.167 141.589 180.167 94C180.167 46.4115 141.589 7.83333 94 7.83333C46.4115 7.83333 7.83333 46.4115 7.83333 94C7.83333 141.589 46.4115 180.167 94 180.167ZM94 188C145.915 188 188 145.915 188 94C188 42.0852 145.915 0 94 0C42.0852 0 0 42.0852 0 94C0 145.915 42.0852 188 94 188Z" fill="#F1F1F1"/>
<path d="M159.186 67.9411C158.924 67.2406 158.423 66.6527 157.772 66.2858C157.121 65.9189 156.362 65.7897 155.625 65.9189C154.887 66.0523 154.219 66.4401 153.742 67.0113C153.262 67.5867 153 68.3122 153 69.0626C153 69.4421 153.071 69.8131 153.204 70.1759C155.902 77.3098 157.266 84.7939 157.258 92.4156C157.258 107.847 151.616 122.698 141.372 134.231C131.311 145.559 117.539 152.91 102.548 154.965V126.1C104.116 125.788 105.67 125.371 107.183 124.862V149.745L107.693 149.62C120.366 146.56 131.845 139.255 140.021 129.056C148.449 118.545 152.901 105.874 152.901 92.4114C152.913 81.9003 150.086 71.5518 144.722 62.4916C139.357 53.4315 131.634 45.9557 122.381 40.869C122 40.6606 121.589 40.5355 121.158 40.4938C120.727 40.4521 120.296 40.4938 119.885 40.6272C119.471 40.7565 119.094 40.9691 118.766 41.2484C118.439 41.532 118.173 41.8739 117.983 42.2616C117.771 42.6952 117.659 43.1789 117.659 43.6625C117.659 44.2296 117.813 44.7883 118.099 45.2761C118.389 45.7639 118.799 46.1684 119.297 46.4435C127.555 50.9799 134.453 57.6468 139.245 65.7271C144.038 73.8075 146.566 83.0344 146.566 92.4114C146.566 103.156 143.316 113.492 137.168 122.298C131.282 130.728 123.169 137.203 113.671 141.056V119.855C115.205 119.325 116.556 118.391 117.597 117.144C118.704 115.819 119.392 114.213 119.591 112.5C119.79 110.786 119.483 109.068 118.708 107.526C117.974 106.066 116.859 104.845 115.47 103.982C116.739 92.3614 120.462 90.064 123.181 88.3837C124.777 87.3998 126.153 86.5492 126.153 84.0851V80.5286C126.153 76.847 122.472 68.258 114.251 57.3674C102.872 42.3116 96.3964 40.7356 94.6967 40.6147C94.0376 40.548 93.4696 40.5813 92.8353 40.6147C91.1232 40.7398 84.6478 42.3116 73.2557 57.3841C65.0225 68.2788 61.3371 76.8678 61.3371 80.5452V84.0976C61.3371 86.5659 62.7134 87.4123 64.3095 88.3963C67.0331 90.0765 70.7517 92.3739 72.0203 103.99C70.7725 104.761 69.7319 105.833 69.0023 107.1C68.2271 108.451 67.825 109.986 67.8415 111.537C67.8415 115.214 70.2874 118.6 73.8195 119.871V141.077C64.3261 137.224 56.209 130.749 50.3264 122.314C44.1785 113.509 40.9283 103.173 40.9242 92.4281C40.9242 73.3405 51.3835 55.7247 68.2188 46.4561C68.8323 46.1142 69.3257 45.5721 69.6034 44.93C69.8812 44.2838 69.9351 43.5541 69.7609 42.8787C69.5827 42.1991 69.1806 41.5903 68.6251 41.1609C68.0695 40.7314 67.3772 40.4938 66.6725 40.4938C66.1418 40.5063 65.6112 40.6272 65.151 40.8857C55.8939 45.9682 48.1624 53.444 42.7938 62.5042C37.4211 71.5643 34.5856 81.9128 34.5938 92.4281C34.5938 105.891 39.0462 118.562 47.4701 129.073C55.6452 139.272 67.1243 146.576 79.7974 149.637L80.3073 149.762V124.883C81.8205 125.392 83.3751 125.804 84.9421 126.121V154.986C69.9475 152.926 56.18 145.572 46.1186 134.247C35.8748 122.715 30.2327 107.867 30.2285 92.4364C30.2244 84.8106 31.5924 77.3306 34.2995 70.1967C34.4446 69.8048 34.5151 69.392 34.4985 68.9751C34.4819 68.5581 34.3866 68.1495 34.2125 67.7701C34.0383 67.3907 33.7937 67.053 33.4828 66.7653C33.1761 66.4818 32.8195 66.2608 32.4257 66.1149C32.0319 65.9689 31.6215 65.9064 31.2027 65.9189C30.784 65.9356 30.3778 66.0315 29.9964 66.2024C29.615 66.3775 29.275 66.6194 28.989 66.9237C28.703 67.2323 28.4832 67.5867 28.334 67.9744C24.4786 78.2187 23.0981 89.3844 24.3501 100.262C25.602 111.136 29.4782 121.71 35.5681 130.828C41.6538 139.947 49.9408 147.61 59.5296 152.981C69.1184 158.351 80.0006 161.428 90.9988 161.878L91.43 161.895V126.918C92.4042 126.963 93.681 126.984 93.7557 126.984C93.8178 126.984 95.0905 126.959 96.0648 126.918V161.895L96.4959 161.878C107.49 161.419 118.372 158.334 127.957 152.96C137.541 147.585 145.829 139.922 151.914 130.803C158 121.685 161.884 111.115 163.141 100.242C164.401 89.3677 163.033 78.1978 159.186 67.9411ZM106.221 108.618C106.901 107.613 107.917 106.867 109.086 106.517C110.255 106.166 111.52 106.233 112.643 106.7C113.766 107.167 114.703 108.009 115.275 109.081C115.848 110.148 116.03 111.391 115.79 112.579C115.549 113.767 114.898 114.843 113.957 115.61C113.016 116.377 111.826 116.798 110.608 116.798H110.603C109.903 116.798 109.223 116.661 108.576 116.394C107.929 116.127 107.353 115.739 106.86 115.247C106.002 114.388 105.467 113.25 105.351 112.049C105.235 110.844 105.546 109.627 106.226 108.622L106.221 108.618ZM81.2857 114.43C80.6058 115.435 79.5902 116.185 78.4252 116.536C77.2562 116.886 75.9959 116.823 74.8683 116.356C73.7407 115.889 72.808 115.047 72.2317 113.98C71.6596 112.912 71.4731 111.67 71.7135 110.486C71.9498 109.298 72.6007 108.222 73.5417 107.455C74.4828 106.688 75.6767 106.262 76.8955 106.262C76.8955 106.262 76.8955 106.262 76.8997 106.262C77.6003 106.262 78.2801 106.396 78.9227 106.662C79.5694 106.929 80.1457 107.313 80.639 107.809C81.4971 108.668 82.0361 109.802 82.1521 111.007C82.2682 112.212 81.9614 113.429 81.2857 114.434V114.43Z" fill="#F1F1F1"/>
</svg>
