<svg width="188" height="188" viewBox="0 0 188 188" fill="none" xmlns="http://www.w3.org/2000/svg">
<path fill-rule="evenodd" clip-rule="evenodd" d="M94 180.167C141.589 180.167 180.167 141.589 180.167 94C180.167 46.4115 141.589 7.83333 94 7.83333C46.4115 7.83333 7.83333 46.4115 7.83333 94C7.83333 141.589 46.4115 180.167 94 180.167ZM94 188C145.915 188 188 145.915 188 94C188 42.0852 145.915 0 94 0C42.0852 0 0 42.0852 0 94C0 145.915 42.0852 188 94 188Z" fill="#0D1017"/>
<path d="M159.186 67.9408C158.924 67.2404 158.423 66.6525 157.772 66.2856C157.121 65.9187 156.362 65.7894 155.625 65.9187C154.887 66.0521 154.219 66.4398 153.742 67.0111C153.262 67.5864 153 68.3119 153 69.0624C153 69.4418 153.071 69.8129 153.204 70.1756C155.902 77.3095 157.266 84.7936 157.258 92.4153C157.258 107.846 151.616 122.698 141.372 134.23C131.311 145.559 117.539 152.909 102.548 154.965V126.1C104.116 125.787 105.67 125.37 107.183 124.862V149.745L107.693 149.62C120.366 146.559 131.845 139.255 140.021 129.056C148.449 118.545 152.901 105.874 152.901 92.4112C152.913 81.9001 150.086 71.5516 144.722 62.4914C139.357 53.4312 131.634 45.9555 122.381 40.8688C122 40.6603 121.589 40.5352 121.158 40.4935C120.727 40.4518 120.296 40.4935 119.885 40.627C119.471 40.7562 119.094 40.9688 118.766 41.2482C118.439 41.5317 118.173 41.8736 117.983 42.2614C117.771 42.695 117.659 43.1786 117.659 43.6623C117.659 44.2293 117.813 44.788 118.099 45.2759C118.389 45.7637 118.799 46.1681 119.297 46.4433C127.555 50.9796 134.453 57.6465 139.245 65.7269C144.038 73.8072 146.566 83.0341 146.566 92.4112C146.566 103.156 143.316 113.492 137.168 122.298C131.282 130.728 123.169 137.203 113.671 141.056V119.854C115.205 119.325 116.556 118.391 117.597 117.144C118.704 115.818 119.392 114.213 119.591 112.499C119.79 110.786 119.483 109.068 118.708 107.525C117.974 106.066 116.859 104.844 115.47 103.981C116.739 92.3611 120.462 90.0638 123.181 88.3835C124.777 87.3995 126.153 86.549 126.153 84.0848V80.5283C126.153 76.8467 122.472 68.2577 114.251 57.3672C102.872 42.3114 96.3964 40.7354 94.6967 40.6144C94.0376 40.5477 93.4696 40.5811 92.8353 40.6144C91.1232 40.7395 84.6478 42.3114 73.2557 57.3839C65.0225 68.2786 61.3371 76.8676 61.3371 80.545V84.0973C61.3371 86.5656 62.7134 87.412 64.3095 88.396C67.0331 90.0763 70.7517 92.3736 72.0203 103.99C70.7725 104.761 69.7319 105.833 69.0023 107.1C68.2271 108.451 67.825 109.985 67.8415 111.536C67.8415 115.214 70.2874 118.599 73.8195 119.871V141.077C64.3261 137.224 56.209 130.749 50.3264 122.314C44.1785 113.508 40.9283 103.172 40.9242 92.4278C40.9242 73.3402 51.3835 55.7244 68.2188 46.4558C68.8323 46.1139 69.3257 45.5719 69.6034 44.9298C69.8812 44.2835 69.9351 43.5539 69.7609 42.8784C69.5827 42.1988 69.1806 41.5901 68.6251 41.1606C68.0695 40.7312 67.3772 40.4935 66.6725 40.4935C66.1418 40.506 65.6112 40.627 65.151 40.8855C55.8939 45.968 48.1624 53.4438 42.7938 62.5039C37.4211 71.5641 34.5856 81.9126 34.5938 92.4278C34.5938 105.891 39.0462 118.562 47.4701 129.073C55.6452 139.271 67.1243 146.576 79.7974 149.636L80.3073 149.762V124.883C81.8205 125.391 83.3751 125.804 84.9421 126.121V154.986C69.9475 152.926 56.18 145.571 46.1186 134.247C35.8748 122.715 30.2327 107.867 30.2285 92.4362C30.2244 84.8103 31.5924 77.3304 34.2995 70.1965C34.4446 69.8046 34.5151 69.3918 34.4985 68.9748C34.4819 68.5579 34.3866 68.1493 34.2125 67.7699C34.0383 67.3905 33.7937 67.0527 33.4828 66.7651C33.1761 66.4815 32.8195 66.2606 32.4257 66.1146C32.0319 65.9687 31.6215 65.9062 31.2027 65.9187C30.784 65.9353 30.3778 66.0312 29.9964 66.2022C29.615 66.3773 29.275 66.6191 28.989 66.9235C28.703 67.232 28.4832 67.5864 28.334 67.9742C24.4786 78.2185 23.0981 89.3842 24.3501 100.262C25.602 111.136 29.4782 121.71 35.5681 130.828C41.6538 139.947 49.9408 147.61 59.5296 152.98C69.1184 158.351 80.0006 161.428 90.9988 161.878L91.43 161.895V126.917C92.4042 126.963 93.681 126.984 93.7557 126.984C93.8178 126.984 95.0905 126.959 96.0648 126.917V161.895L96.4959 161.878C107.49 161.419 118.372 158.334 127.957 152.959C137.541 147.585 145.829 139.922 151.914 130.803C158 121.685 161.884 111.115 163.141 100.241C164.401 89.3675 163.033 78.1976 159.186 67.9408ZM106.221 108.618C106.901 107.613 107.917 106.867 109.086 106.516C110.255 106.166 111.52 106.233 112.643 106.7C113.766 107.167 114.703 108.009 115.275 109.081C115.848 110.148 116.03 111.39 115.79 112.579C115.549 113.767 114.898 114.843 113.957 115.61C113.016 116.377 111.826 116.798 110.608 116.798H110.603C109.903 116.798 109.223 116.661 108.576 116.394C107.929 116.127 107.353 115.739 106.86 115.247C106.002 114.388 105.467 113.25 105.351 112.049C105.235 110.844 105.546 109.627 106.226 108.622L106.221 108.618ZM81.2857 114.43C80.6058 115.435 79.5902 116.185 78.4252 116.535C77.2562 116.886 75.9959 116.823 74.8683 116.356C73.7407 115.889 72.808 115.047 72.2317 113.98C71.6596 112.912 71.4731 111.67 71.7135 110.486C71.9498 109.297 72.6007 108.222 73.5417 107.454C74.4828 106.687 75.6767 106.262 76.8955 106.262C76.8955 106.262 76.8955 106.262 76.8997 106.262C77.6003 106.262 78.2801 106.395 78.9227 106.662C79.5694 106.929 80.1457 107.313 80.639 107.809C81.4971 108.668 82.0361 109.802 82.1521 111.007C82.2682 112.212 81.9614 113.429 81.2857 114.434V114.43Z" fill="#0D1017"/>
</svg>
