<svg width="188" height="188" viewBox="0 0 188 188" fill="none" xmlns="http://www.w3.org/2000/svg">
<path fill-rule="evenodd" clip-rule="evenodd" d="M94 180.167C141.589 180.167 180.167 141.589 180.167 94C180.167 46.4115 141.589 7.83333 94 7.83333C46.4115 7.83333 7.83333 46.4115 7.83333 94C7.83333 141.589 46.4115 180.167 94 180.167ZM94 188C145.915 188 188 145.915 188 94C188 42.0852 145.915 0 94 0C42.0852 0 0 42.0852 0 94C0 145.915 42.0852 188 94 188Z" fill="url(#paint0_linear_431_7737)"/>
<path d="M159.186 67.9413C158.924 67.2409 158.423 66.653 157.772 66.2861C157.121 65.9192 156.362 65.7899 155.625 65.9192C154.887 66.0526 154.219 66.4403 153.742 67.0115C153.262 67.5869 153 68.3124 153 69.0629C153 69.4423 153.071 69.8134 153.204 70.1761C155.902 77.31 157.266 84.7941 157.258 92.4158C157.258 107.847 151.616 122.698 141.372 134.231C131.311 145.559 117.539 152.91 102.548 154.965V126.101C104.116 125.788 105.67 125.371 107.183 124.862V149.745L107.693 149.62C120.366 146.56 131.845 139.255 140.021 129.057C148.449 118.546 152.901 105.875 152.901 92.4117C152.913 81.9005 150.086 71.552 144.722 62.4919C139.357 53.4317 131.634 45.956 122.381 40.8693C122 40.6608 121.589 40.5357 121.158 40.494C120.727 40.4523 120.296 40.494 119.885 40.6274C119.471 40.7567 119.094 40.9693 118.766 41.2487C118.439 41.5322 118.173 41.8741 117.983 42.2619C117.771 42.6955 117.659 43.1791 117.659 43.6628C117.659 44.2298 117.813 44.7885 118.099 45.2763C118.389 45.7642 118.799 46.1686 119.297 46.4438C127.555 50.9801 134.453 57.647 139.245 65.7274C144.038 73.8077 146.566 83.0346 146.566 92.4117C146.566 103.156 143.316 113.492 137.168 122.298C131.282 130.729 123.169 137.204 113.671 141.056V119.855C115.205 119.325 116.556 118.391 117.597 117.145C118.704 115.819 119.392 114.214 119.591 112.5C119.79 110.786 119.483 109.068 118.708 107.526C117.974 106.067 116.859 104.845 115.47 103.982C116.739 92.3616 120.462 90.0643 123.181 88.384C124.777 87.4 126.153 86.5494 126.153 84.0853V80.5288C126.153 76.8472 122.472 68.2582 114.251 57.3677C102.872 42.3119 96.3964 40.7358 94.6967 40.6149C94.0376 40.5482 93.4696 40.5816 92.8353 40.6149C91.1232 40.74 84.6478 42.3119 73.2557 57.3843C65.0225 68.279 61.3371 76.8681 61.3371 80.5455V84.0978C61.3371 86.5661 62.7134 87.4125 64.3095 88.3965C67.0331 90.0768 70.7517 92.3741 72.0203 103.99C70.7725 104.761 69.7319 105.833 69.0023 107.101C68.2271 108.451 67.825 109.986 67.8415 111.537C67.8415 115.214 70.2874 118.6 73.8195 119.871V141.077C64.3261 137.225 56.209 130.749 50.3264 122.315C44.1785 113.509 40.9283 103.173 40.9242 92.4283C40.9242 73.3407 51.3835 55.7249 68.2188 46.4563C68.8323 46.1144 69.3257 45.5724 69.6034 44.9303C69.8812 44.284 69.9351 43.5544 69.7609 42.8789C69.5827 42.1993 69.1806 41.5906 68.6251 41.1611C68.0695 40.7317 67.3772 40.494 66.6725 40.494C66.1418 40.5065 65.6112 40.6274 65.151 40.8859C55.8939 45.9685 48.1624 53.4442 42.7938 62.5044C37.4211 71.5645 34.5856 81.913 34.5938 92.4283C34.5938 105.891 39.0462 118.562 47.4701 129.073C55.6452 139.272 67.1243 146.577 79.7974 149.637L80.3073 149.762V124.883C81.8205 125.392 83.3751 125.805 84.9421 126.121V154.986C69.9475 152.927 56.18 145.572 46.1186 134.248C35.8748 122.715 30.2327 107.868 30.2285 92.4367C30.2244 84.8108 31.5924 77.3309 34.2995 70.197C34.4446 69.8051 34.5151 69.3923 34.4985 68.9753C34.4819 68.5584 34.3866 68.1498 34.2125 67.7704C34.0383 67.391 33.7937 67.0532 33.4828 66.7655C33.1761 66.482 32.8195 66.261 32.4257 66.1151C32.0319 65.9692 31.6215 65.9066 31.2027 65.9192C30.784 65.9358 30.3778 66.0317 29.9964 66.2027C29.615 66.3778 29.275 66.6196 28.989 66.924C28.703 67.2325 28.4832 67.5869 28.334 67.9747C24.4786 78.2189 23.0981 89.3847 24.3501 100.263C25.602 111.137 29.4782 121.71 35.5681 130.829C41.6538 139.947 49.9408 147.611 59.5296 152.981C69.1184 158.351 80.0006 161.428 90.9988 161.878L91.43 161.895V126.918C92.4042 126.964 93.681 126.984 93.7557 126.984C93.8178 126.984 95.0905 126.959 96.0648 126.918V161.895L96.4959 161.878C107.49 161.42 118.372 158.334 127.957 152.96C137.541 147.586 145.829 139.922 151.914 130.804C158 121.685 161.884 111.116 163.141 100.242C164.401 89.368 163.033 78.1981 159.186 67.9413ZM106.221 108.618C106.901 107.613 107.917 106.867 109.086 106.517C110.255 106.167 111.52 106.233 112.643 106.7C113.766 107.167 114.703 108.009 115.275 109.081C115.848 110.148 116.03 111.391 115.79 112.579C115.549 113.767 114.898 114.843 113.957 115.61C113.016 116.377 111.826 116.799 110.608 116.799H110.603C109.903 116.799 109.223 116.661 108.576 116.394C107.929 116.127 107.353 115.74 106.86 115.248C106.002 114.389 105.467 113.25 105.351 112.05C105.235 110.845 105.546 109.627 106.226 108.622L106.221 108.618ZM81.2857 114.43C80.6058 115.435 79.5902 116.186 78.4252 116.536C77.2562 116.886 75.9959 116.824 74.8683 116.357C73.7407 115.89 72.808 115.047 72.2317 113.98C71.6596 112.913 71.4731 111.67 71.7135 110.486C71.9498 109.298 72.6007 108.222 73.5417 107.455C74.4828 106.688 75.6767 106.262 76.8955 106.262C76.8955 106.262 76.8955 106.262 76.8997 106.262C77.6003 106.262 78.2801 106.396 78.9227 106.663C79.5694 106.93 80.1457 107.313 80.639 107.809C81.4971 108.668 82.0361 109.802 82.1521 111.007C82.2682 112.212 81.9614 113.43 81.2857 114.435V114.43Z" fill="url(#paint1_linear_431_7737)"/>
<defs>
<linearGradient id="paint0_linear_431_7737" x1="23.2025" y1="1.07005e-05" x2="205.988" y2="159.081" gradientUnits="userSpaceOnUse">
<stop stop-color="#A7FBFF"/>
<stop offset="0.541667" stop-color="#53C4BF"/>
<stop offset="1" stop-color="#0C9689"/>
</linearGradient>
<linearGradient id="paint1_linear_431_7737" x1="41.1421" y1="40.4785" x2="160.332" y2="159.826" gradientUnits="userSpaceOnUse">
<stop stop-color="#A7FBFF"/>
<stop offset="0.541667" stop-color="#53C4BF"/>
<stop offset="1" stop-color="#0C9689"/>
</linearGradient>
</defs>
</svg>
