<svg width="331" height="331" viewBox="0 0 331 331" fill="none" xmlns="http://www.w3.org/2000/svg">
<path d="M0 165.5C0 74.0969 74.0969 0 165.5 0V0C256.903 0 331 74.0969 331 165.5V165.5C331 256.903 256.903 331 165.5 331V331C74.0969 331 0 256.903 0 165.5V165.5Z" fill="url(#paint0_linear_565_5284)"/>
<path fill-rule="evenodd" clip-rule="evenodd" d="M6 165.5C6 253.589 77.4106 325 165.5 325C253.589 325 325 253.589 325 165.5C325 77.4106 253.589 6 165.5 6C77.4106 6 6 77.4106 6 165.5ZM165.5 0C74.0969 0 0 74.0969 0 165.5C0 256.903 74.0969 331 165.5 331C256.903 331 331 256.903 331 165.5C331 74.0969 256.903 0 165.5 0Z" fill="url(#paint1_linear_565_5284)" fill-opacity="0.47" style="mix-blend-mode:overlay"/>
<path fill-rule="evenodd" clip-rule="evenodd" d="M170.23 220.633V281.609C189.268 280.809 207.847 275.512 224.445 266.153C241.043 256.794 255.19 243.638 265.727 227.762C276.265 211.885 282.894 193.74 285.073 174.81C287.251 155.88 284.917 136.703 278.261 118.848C277.867 117.788 277.113 116.9 276.131 116.34C275.148 115.78 274 115.583 272.887 115.785C271.775 115.987 270.768 116.574 270.045 117.443C269.322 118.312 268.927 119.408 268.931 120.539C268.936 121.116 269.039 121.687 269.235 122.23C273.926 134.706 276.324 147.927 276.313 161.255C276.313 217.535 234.484 264.017 180.037 271.119V219.378C183.254 218.761 186.419 217.901 189.506 216.804V260.277C234.146 249.432 267.321 209.212 267.321 161.266C267.344 143.058 262.482 125.177 253.243 109.487C244.004 93.7972 230.725 80.8728 214.792 72.061C214.221 71.7475 213.592 71.5532 212.944 71.49C212.295 71.4268 211.641 71.4959 211.02 71.6933C210.399 71.8906 209.825 72.212 209.332 72.638C208.84 73.0639 208.438 73.5856 208.153 74.1713C207.834 74.8336 207.667 75.5595 207.666 76.295C207.666 77.153 207.895 77.9954 208.329 78.7355C208.763 79.4756 209.386 80.0866 210.135 80.5053C224.571 88.4795 236.605 100.178 244.984 114.383C253.362 128.589 257.779 144.78 257.774 161.272C257.774 200.298 233.469 233.663 199.313 247.139V208.587C202.041 207.743 204.464 206.124 206.287 203.927C208.11 201.73 209.254 199.05 209.58 196.214C209.907 193.378 209.401 190.508 208.124 187.955C206.847 185.401 204.855 183.274 202.391 181.833C204.576 160.822 211.41 156.581 216.147 153.642C218.908 151.929 220.957 150.657 220.957 146.764V140.562C220.957 124.668 184.281 72.9268 167.071 71.6789C166.544 71.6248 166.084 71.6248 165.556 71.6248C165.029 71.6248 164.498 71.6518 163.97 71.6789C146.761 72.9268 110.034 124.668 110.034 140.562V146.751C110.034 150.644 112.083 151.915 114.844 153.628C119.581 156.568 126.415 160.808 128.6 181.82C126.362 183.112 124.508 184.975 123.227 187.22C121.946 189.464 121.286 192.009 121.313 194.593C121.313 201.181 125.929 206.737 131.678 208.597V247.149C97.5219 233.673 73.2339 200.295 73.2204 161.279C73.2204 126.514 92.4965 96.2373 120.903 80.5053C121.835 79.9853 122.568 79.1711 122.988 78.1901C123.408 77.2092 123.491 76.1168 123.223 75.0838C122.956 74.0508 122.355 73.1354 121.512 72.4808C120.669 71.8262 119.634 71.4692 118.567 71.4658C117.764 71.4642 116.974 71.6692 116.274 72.061C100.33 80.8665 87.0393 93.7876 77.7883 109.477C68.5372 125.167 63.6642 143.051 63.677 161.266C63.677 209.212 96.8455 249.432 141.485 260.277V216.815C144.572 217.911 147.737 218.771 150.954 219.388V271.129C96.5073 264.014 54.6849 217.545 54.6748 161.266C54.665 147.935 57.0711 134.713 61.7765 122.24C61.9965 121.649 62.0981 121.021 62.0754 120.391C62.0526 119.761 61.9061 119.142 61.644 118.569C61.3819 117.995 61.0095 117.479 60.5481 117.05C60.0866 116.621 59.5451 116.286 58.9544 116.066C58.3637 115.846 57.7355 115.745 57.1056 115.768C56.4757 115.79 55.8565 115.937 55.2832 116.199C54.71 116.461 54.1939 116.833 53.7646 117.295C53.3353 117.756 53.001 118.298 52.781 118.888C46.1038 136.736 43.752 155.913 45.9185 174.845C48.085 193.778 54.7081 211.927 65.2447 227.805C75.7813 243.684 89.9313 256.838 106.534 266.191C123.138 275.543 141.721 280.827 160.761 281.609V220.633C162.452 220.737 165.496 220.792 165.496 220.792C165.496 220.792 168.539 220.737 170.23 220.633ZM184.894 195.54C185.111 197.814 186.11 199.942 187.721 201.563C188.637 202.486 189.727 203.22 190.928 203.72C192.128 204.22 193.417 204.478 194.717 204.478C197.002 204.48 199.217 203.691 200.984 202.244C202.752 200.796 203.964 198.781 204.413 196.542C204.862 194.302 204.521 191.975 203.447 189.959C202.374 187.942 200.635 186.36 198.526 185.481C196.418 184.603 194.069 184.482 191.882 185.14C189.694 185.798 187.802 187.194 186.528 189.09C185.254 190.987 184.677 193.266 184.894 195.54ZM146.12 193.589C145.899 191.315 144.897 189.187 143.284 187.569C142.368 186.648 141.278 185.916 140.077 185.418C138.877 184.919 137.59 184.663 136.291 184.664C134.006 184.663 131.791 185.455 130.025 186.903C128.258 188.352 127.048 190.368 126.6 192.609C126.153 194.849 126.496 197.176 127.572 199.192C128.647 201.207 130.388 202.788 132.498 203.665C134.608 204.541 136.957 204.659 139.144 203.998C141.331 203.338 143.222 201.939 144.494 200.041C145.765 198.143 146.34 195.863 146.12 193.589Z" fill="url(#paint2_linear_565_5284)"/>
<defs>
<linearGradient id="paint0_linear_565_5284" x1="165.5" y1="0" x2="165.5" y2="331" gradientUnits="userSpaceOnUse">
<stop stop-color="#27312E"/>
<stop offset="1" stop-color="#0F1219"/>
</linearGradient>
<linearGradient id="paint1_linear_565_5284" x1="45.7937" y1="1.03978e-06" x2="165.5" y2="331" gradientUnits="userSpaceOnUse">
<stop stop-color="white" stop-opacity="0.44"/>
<stop offset="1" stop-color="white" stop-opacity="0"/>
</linearGradient>
<linearGradient id="paint2_linear_565_5284" x1="74.8467" y1="71.4658" x2="281.135" y2="277.13" gradientUnits="userSpaceOnUse">
<stop stop-color="#A7FBFF"/>
<stop offset="1" stop-color="#0C9689"/>
</linearGradient>
</defs>
</svg>
