<svg width="1122" height="188" viewBox="0 0 1122 188" fill="none" xmlns="http://www.w3.org/2000/svg">
<path fill-rule="evenodd" clip-rule="evenodd" d="M94 180.167C141.589 180.167 180.167 141.589 180.167 94C180.167 46.4115 141.589 7.83333 94 7.83333C46.4115 7.83333 7.83333 46.4115 7.83333 94C7.83333 141.589 46.4115 180.167 94 180.167ZM94 188C145.915 188 188 145.915 188 94C188 42.0852 145.915 0 94 0C42.0852 0 0 42.0852 0 94C0 145.915 42.0852 188 94 188Z" fill="#F1F1F1"/>
<path d="M159.186 67.9411C158.924 67.2406 158.423 66.6527 157.772 66.2858C157.121 65.9189 156.362 65.7897 155.625 65.9189C154.887 66.0523 154.219 66.4401 153.742 67.0113C153.262 67.5867 153 68.3122 153 69.0626C153 69.4421 153.071 69.8131 153.204 70.1759C155.902 77.3098 157.266 84.7939 157.258 92.4156C157.258 107.847 151.616 122.698 141.372 134.231C131.311 145.559 117.539 152.91 102.548 154.965V126.1C104.116 125.788 105.67 125.371 107.183 124.862V149.745L107.693 149.62C120.366 146.56 131.845 139.255 140.021 129.056C148.449 118.545 152.901 105.874 152.901 92.4114C152.913 81.9003 150.086 71.5518 144.722 62.4916C139.357 53.4315 131.634 45.9557 122.381 40.869C122 40.6606 121.589 40.5355 121.158 40.4938C120.727 40.4521 120.296 40.4938 119.885 40.6272C119.471 40.7565 119.094 40.9691 118.766 41.2484C118.439 41.532 118.173 41.8739 117.983 42.2616C117.771 42.6952 117.659 43.1789 117.659 43.6625C117.659 44.2296 117.813 44.7883 118.099 45.2761C118.389 45.7639 118.799 46.1684 119.297 46.4435C127.555 50.9799 134.453 57.6468 139.245 65.7271C144.038 73.8075 146.566 83.0344 146.566 92.4114C146.566 103.156 143.316 113.492 137.168 122.298C131.282 130.728 123.169 137.203 113.671 141.056V119.855C115.205 119.325 116.556 118.391 117.597 117.144C118.704 115.819 119.392 114.213 119.591 112.5C119.79 110.786 119.483 109.068 118.708 107.526C117.974 106.066 116.859 104.845 115.47 103.982C116.739 92.3614 120.462 90.064 123.181 88.3837C124.777 87.3998 126.153 86.5492 126.153 84.0851V80.5286C126.153 76.847 122.472 68.258 114.251 57.3674C102.872 42.3116 96.3964 40.7356 94.6967 40.6147C94.0376 40.548 93.4696 40.5813 92.8353 40.6147C91.1232 40.7398 84.6478 42.3116 73.2557 57.3841C65.0225 68.2788 61.3371 76.8678 61.3371 80.5452V84.0976C61.3371 86.5659 62.7134 87.4123 64.3095 88.3963C67.0331 90.0765 70.7517 92.3739 72.0203 103.99C70.7725 104.761 69.7319 105.833 69.0023 107.1C68.2271 108.451 67.825 109.986 67.8415 111.537C67.8415 115.214 70.2874 118.6 73.8195 119.871V141.077C64.3261 137.224 56.209 130.749 50.3264 122.314C44.1785 113.509 40.9283 103.173 40.9242 92.4281C40.9242 73.3405 51.3835 55.7247 68.2188 46.4561C68.8323 46.1142 69.3257 45.5721 69.6034 44.93C69.8812 44.2838 69.9351 43.5541 69.7609 42.8787C69.5827 42.1991 69.1806 41.5903 68.6251 41.1609C68.0695 40.7314 67.3772 40.4938 66.6725 40.4938C66.1418 40.5063 65.6112 40.6272 65.151 40.8857C55.8939 45.9682 48.1624 53.444 42.7938 62.5042C37.4211 71.5643 34.5856 81.9128 34.5938 92.4281C34.5938 105.891 39.0462 118.562 47.4701 129.073C55.6452 139.272 67.1243 146.576 79.7974 149.637L80.3073 149.762V124.883C81.8205 125.392 83.3751 125.804 84.9421 126.121V154.986C69.9475 152.926 56.18 145.572 46.1186 134.247C35.8748 122.715 30.2327 107.867 30.2285 92.4364C30.2244 84.8106 31.5924 77.3306 34.2995 70.1967C34.4446 69.8048 34.5151 69.392 34.4985 68.9751C34.4819 68.5581 34.3866 68.1495 34.2125 67.7701C34.0383 67.3907 33.7937 67.053 33.4828 66.7653C33.1761 66.4818 32.8195 66.2608 32.4257 66.1149C32.0319 65.9689 31.6215 65.9064 31.2027 65.9189C30.784 65.9356 30.3778 66.0315 29.9964 66.2024C29.615 66.3775 29.275 66.6194 28.989 66.9237C28.703 67.2323 28.4832 67.5867 28.334 67.9744C24.4786 78.2187 23.0981 89.3844 24.3501 100.262C25.602 111.136 29.4782 121.71 35.5681 130.828C41.6538 139.947 49.9408 147.61 59.5296 152.981C69.1184 158.351 80.0006 161.428 90.9988 161.878L91.43 161.895V126.918C92.4042 126.963 93.681 126.984 93.7557 126.984C93.8178 126.984 95.0905 126.959 96.0648 126.918V161.895L96.4959 161.878C107.49 161.419 118.372 158.334 127.957 152.96C137.541 147.585 145.829 139.922 151.914 130.803C158 121.685 161.884 111.115 163.141 100.242C164.401 89.3677 163.033 78.1978 159.186 67.9411ZM106.221 108.618C106.901 107.613 107.917 106.867 109.086 106.517C110.255 106.166 111.52 106.233 112.643 106.7C113.766 107.167 114.703 108.009 115.275 109.081C115.848 110.148 116.03 111.391 115.79 112.579C115.549 113.767 114.898 114.843 113.957 115.61C113.016 116.377 111.826 116.798 110.608 116.798H110.603C109.903 116.798 109.223 116.661 108.576 116.394C107.929 116.127 107.353 115.739 106.86 115.247C106.002 114.388 105.467 113.25 105.351 112.049C105.235 110.844 105.546 109.627 106.226 108.622L106.221 108.618ZM81.2857 114.43C80.6058 115.435 79.5902 116.185 78.4252 116.536C77.2562 116.886 75.9959 116.823 74.8683 116.356C73.7407 115.889 72.808 115.047 72.2317 113.98C71.6596 112.912 71.4731 111.67 71.7135 110.486C71.9498 109.298 72.6007 108.222 73.5417 107.455C74.4828 106.688 75.6767 106.262 76.8955 106.262C76.8955 106.262 76.8955 106.262 76.8997 106.262C77.6003 106.262 78.2801 106.396 78.9227 106.662C79.5694 106.929 80.1457 107.313 80.639 107.809C81.4971 108.668 82.0361 109.802 82.1521 111.007C82.2682 112.212 81.9614 113.429 81.2857 114.434V114.43Z" fill="#F1F1F1"/>
<path fill-rule="evenodd" clip-rule="evenodd" d="M799.429 71.489C795.591 78.1028 793.672 85.574 793.672 93.9024C793.672 102.231 795.591 109.702 799.429 116.316C803.348 122.93 808.615 128.114 815.229 131.87C821.842 135.545 829.15 137.382 837.152 137.382C846.215 137.382 854.258 135.177 861.28 130.768C868.384 126.359 873.528 120.072 876.712 111.907H859.933C857.728 116.397 854.666 119.745 850.747 121.95C846.828 124.154 842.296 125.257 837.152 125.257C831.518 125.257 826.496 123.991 822.087 121.46C817.678 118.847 814.208 115.173 811.677 110.437C809.227 105.701 808.002 100.19 808.002 93.9024C808.002 87.6153 809.227 82.1038 811.677 77.368C814.208 72.6322 817.678 68.9986 822.087 66.4674C826.496 63.9362 831.518 62.6706 837.152 62.6706C842.296 62.6706 846.828 63.773 850.747 65.9776C854.666 68.1822 857.728 71.5299 859.933 76.0207H876.712C873.528 67.8555 868.384 61.5683 861.28 57.1591C854.258 52.6683 846.215 50.4229 837.152 50.4229C829.232 50.4229 821.924 52.3009 815.229 56.0568C808.615 59.7312 803.348 64.8752 799.429 71.489ZM599.618 102.966L630.728 136.647H611.866L586.881 107.62V136.647H572.918V51.3778H586.881V98.679L611.376 69.162H630.728L599.618 102.966ZM435.023 136.647L402.077 98.5566V136.647H388.115V51.5252H402.077V90.3505L435.146 51.5252H452.66L415.672 94.1474L453.272 136.647H435.023ZM472.613 78.9601C474.655 75.5308 477.349 72.8771 480.697 70.9991C484.126 69.0395 488.168 68.0597 492.822 68.0597V82.512H489.27C483.8 82.512 479.635 83.9001 476.778 86.6762C474.001 89.4524 472.613 94.2698 472.613 101.129V136.647H458.651V69.162H472.613V78.9601ZM498.198 84.5941C495.422 89.8198 494.034 95.8212 494.034 102.598C494.034 109.375 495.422 115.458 498.198 120.847C501.056 126.155 504.893 130.319 509.711 133.34C514.528 136.28 519.835 137.749 525.633 137.749C530.858 137.749 535.513 136.688 539.595 134.565C543.678 132.442 546.903 129.788 549.271 126.604V136.647H563.356V69.162H549.271V78.9601C546.903 75.8574 543.719 73.2854 539.718 71.2441C535.798 69.1211 531.185 68.0597 525.878 68.0597C519.999 68.0597 514.61 69.5294 509.711 72.4688C504.893 75.3266 501.056 79.3684 498.198 84.5941ZM546.331 90.718C548.291 94.1474 549.271 98.1891 549.271 102.843C549.271 107.497 548.291 111.58 546.331 115.091C544.453 118.52 541.963 121.133 538.86 122.93C535.757 124.726 532.41 125.624 528.817 125.624C525.306 125.624 521.958 124.726 518.774 122.93C515.671 121.052 513.14 118.357 511.18 114.846C509.302 111.335 508.363 107.252 508.363 102.598C508.363 97.9442 509.302 93.9432 511.18 90.5955C513.14 87.1661 515.671 84.5941 518.774 82.8794C521.877 81.0831 525.224 80.1849 528.817 80.1849C532.41 80.1849 535.757 81.0831 538.86 82.8794C541.963 84.6758 544.453 87.2886 546.331 90.718ZM693.649 108.11C693.975 106.068 694.139 103.782 694.139 101.251C694.139 94.7189 692.751 88.9625 689.974 83.9817C687.198 78.9193 683.32 75.0001 678.339 72.2239C673.358 69.4478 667.684 68.0597 661.315 68.0597C654.701 68.0597 648.822 69.4885 643.678 72.3463C638.616 75.2042 634.655 79.2868 631.798 84.5941C629.021 89.8198 627.633 95.9029 627.633 102.843C627.633 109.784 629.062 115.908 631.92 121.215C634.86 126.441 638.861 130.523 643.923 133.463C649.067 136.32 654.864 137.749 661.315 137.749C669.235 137.749 675.849 135.79 681.156 131.87C686.545 127.87 690.26 122.766 692.301 116.561H677.237C674.134 122.848 668.827 125.992 661.315 125.992C656.089 125.992 651.68 124.358 648.087 121.092C644.494 117.826 642.494 113.499 642.086 108.11H693.649ZM674.052 84.4716C677.645 87.5744 679.482 91.6978 679.564 96.8419H642.208C642.861 91.6162 644.903 87.4928 648.332 84.4716C651.761 81.3689 655.885 79.8175 660.702 79.8175C666.01 79.8175 670.46 81.3689 674.052 84.4716ZM736.767 68.0597C742.074 68.0597 746.81 69.1619 750.974 71.3665C755.22 73.5711 758.527 76.8372 760.895 81.1648C763.263 85.4923 764.447 90.718 764.447 96.8419V136.647H750.607V98.924C750.607 92.8818 749.096 88.2684 746.075 85.084C743.054 81.8179 738.93 80.1849 733.705 80.1849C728.479 80.1849 724.315 81.8179 721.212 85.084C718.191 88.2684 716.68 92.8818 716.68 98.924V136.647H702.718V69.162H716.68V76.878C718.967 74.1019 721.865 71.9381 725.376 70.3867C728.969 68.8354 732.766 68.0597 736.767 68.0597ZM900.953 50.4229V136.647H886.99V50.4229H900.953ZM914.858 66.6875C916.573 68.4022 918.696 69.2596 921.227 69.2596C923.676 69.2596 925.758 68.4022 927.473 66.6875C929.188 64.9728 930.045 62.8499 930.045 60.3187C930.045 57.7875 929.188 55.6645 927.473 53.9499C925.758 52.2352 923.676 51.3778 921.227 51.3778C918.696 51.3778 916.573 52.2352 914.858 53.9499C913.143 55.6645 912.286 57.7875 912.286 60.3187C912.286 62.8499 913.143 64.9728 914.858 66.6875ZM928.086 136.647V80.4934H914.123V136.647H928.086ZM1005.82 101.251C1005.82 103.782 1005.66 106.068 1005.33 108.11H953.766C954.174 113.499 956.174 117.826 959.767 121.092C963.36 124.358 967.769 125.992 972.995 125.992C980.506 125.992 985.814 122.848 988.917 116.561H1003.98C1001.94 122.766 998.225 127.87 992.836 131.87C987.529 135.79 980.915 137.749 972.995 137.749C966.544 137.749 960.747 136.32 955.603 133.463C950.54 130.523 946.539 126.441 943.6 121.215C940.742 115.908 939.313 109.784 939.313 102.843C939.313 95.9029 940.701 89.8198 943.477 84.5941C946.335 79.2868 950.295 75.2042 955.358 72.3463C960.502 69.4885 966.381 68.0597 972.995 68.0597C979.363 68.0597 985.038 69.4478 990.019 72.2239C995 75.0001 998.878 78.9193 1001.65 83.9817C1004.43 88.9625 1005.82 94.7189 1005.82 101.251ZM991.244 96.8419C991.162 91.6978 989.325 87.5744 985.732 84.4716C982.139 81.3689 977.69 79.8175 972.382 79.8175C967.565 79.8175 963.441 81.3689 960.012 84.4716C956.583 87.4928 954.541 91.6162 953.888 96.8419H991.244ZM1061.75 71.3665C1057.59 69.1619 1052.85 68.0597 1047.54 68.0597C1043.54 68.0597 1039.74 68.8354 1036.15 70.3867C1032.64 71.9381 1029.74 74.1019 1027.46 76.878V69.162H1013.49V136.647H1027.46V98.924C1027.46 92.8818 1028.97 88.2684 1031.99 85.084C1035.09 81.8179 1039.25 80.1849 1044.48 80.1849C1049.71 80.1849 1053.83 81.8179 1056.85 85.084C1059.87 88.2684 1061.38 92.8818 1061.38 98.924V136.647H1075.22V96.8419C1075.22 90.718 1074.04 85.4923 1071.67 81.1648C1069.3 76.8372 1066 73.5711 1061.75 71.3665ZM1104.16 80.5524V117.908C1104.16 120.439 1104.73 122.276 1105.88 123.419C1107.1 124.481 1109.14 125.012 1112 125.012H1120.57V136.647H1109.55C1103.26 136.647 1098.45 135.177 1095.1 132.238C1091.75 129.298 1090.08 124.522 1090.08 117.908V80.5524H1082.11V69.162H1090.08V52.3825H1104.16V69.162H1120.57V80.5524H1104.16ZM276.797 66.4416C280.697 68.5542 283.744 71.7231 285.938 75.9484H302.636C299.467 67.8229 294.348 61.5663 287.279 57.1786C280.291 52.7096 272.287 50.4751 263.268 50.4751C255.386 50.4751 248.114 52.3439 241.451 56.0816C234.87 59.7381 229.629 64.8571 225.728 71.4387C221.909 78.0203 220 85.4552 220 93.7431C220 102.031 221.909 109.466 225.728 116.047C229.629 122.629 234.87 127.789 241.451 131.526C248.033 135.183 255.305 137.011 263.268 137.011C270.662 137.011 277.366 135.386 283.378 132.136C289.473 128.804 294.388 124.376 298.126 118.851C301.945 113.325 304.302 107.272 305.195 100.69C305.195 100.69 305.628 97.6607 305.628 95.5479C305.628 93.0817 305.195 89.8429 305.195 89.8429H258.515V100.934H290.326C289.269 108.166 286.385 113.894 281.672 118.119C276.959 122.345 270.825 124.457 263.268 124.457C257.661 124.457 252.664 123.198 248.277 120.679C243.889 118.16 240.436 114.585 237.917 109.953C235.479 105.241 234.26 99.8372 234.26 93.7431C234.26 87.649 235.479 82.2862 237.917 77.6547C240.436 73.0232 243.889 69.448 248.277 66.9291C252.664 64.4102 257.661 63.1508 263.268 63.1508C268.387 63.1508 272.897 64.2477 276.797 66.4416ZM330.356 136.28V81.0674H316.462V136.28H330.356ZM362.371 80.458V117.632C362.371 120.151 362.94 121.979 364.078 123.117C365.296 124.173 367.328 124.701 370.172 124.701H378.703V136.28H367.734C361.477 136.28 356.683 134.817 353.352 131.892C350.021 128.967 348.355 124.214 348.355 117.632V80.458H340.432V69.123H348.355V51.5213H362.371V69.123H378.703V80.458H362.371ZM323.519 72.1531C320.569 72.1531 318.096 71.1609 316.097 69.1764C314.099 67.1919 313.1 64.7349 313.1 61.8054C313.1 58.8759 314.099 56.4189 316.097 54.4345C318.096 52.45 320.569 51.4577 323.519 51.4577C326.374 51.4577 328.8 52.45 330.798 54.4345C332.796 56.4189 333.796 58.8759 333.796 61.8054C333.796 64.7349 332.796 67.1919 330.798 69.1764C328.8 71.1609 326.374 72.1531 323.519 72.1531Z" fill="#F1F1F1"/>
</svg>
