<svg width="901" height="88" viewBox="0 0 901 88" fill="none" xmlns="http://www.w3.org/2000/svg">
<path fill-rule="evenodd" clip-rule="evenodd" d="M579.47 21.489C575.633 28.1028 573.714 35.574 573.714 43.9024C573.714 52.2309 575.633 59.702 579.47 66.3158C583.39 72.9296 588.656 78.1145 595.27 81.8705C601.884 85.5448 609.192 87.382 617.193 87.382C626.257 87.382 634.299 85.1774 641.322 80.7682C648.425 76.359 653.569 70.0718 656.754 61.9066H639.974C637.77 66.3975 634.708 69.7452 630.789 71.9498C626.869 74.1544 622.338 75.2567 617.193 75.2567C611.56 75.2567 606.538 73.9911 602.129 71.4599C597.72 68.847 594.249 65.1727 591.718 60.4369C589.269 55.7011 588.044 50.1896 588.044 43.9024C588.044 37.6153 589.269 32.1038 591.718 27.368C594.249 22.6322 597.72 18.9986 602.129 16.4674C606.538 13.9362 611.56 12.6706 617.193 12.6706C622.338 12.6706 626.869 13.773 630.789 15.9776C634.708 18.1822 637.77 21.5299 639.974 26.0207H656.754C653.569 17.8555 648.425 11.5683 641.322 7.15914C634.299 2.6683 626.257 0.422911 617.193 0.422911C609.273 0.422911 601.966 2.30087 595.27 6.05685C588.656 9.73118 583.39 14.8752 579.47 21.489ZM379.66 52.9657L410.769 86.6471H391.908L366.922 57.6199V86.6471H352.96V1.37784H366.922V48.679L391.418 19.162H410.769L379.66 52.9657ZM215.065 86.6471L182.118 48.5566V86.6471H168.156V1.5252H182.118V40.3505L215.187 1.5252H232.702L195.713 44.1474L233.314 86.6471H215.065ZM252.655 28.9601C254.696 25.5308 257.391 22.8771 260.738 20.9991C264.168 19.0395 268.21 18.0597 272.864 18.0597V32.512H269.312C263.841 32.512 259.677 33.9001 256.819 36.6762C254.043 39.4524 252.655 44.2698 252.655 51.1286V86.6471H238.692V19.162H252.655V28.9601ZM278.239 34.5941C275.463 39.8198 274.075 45.8212 274.075 52.5983C274.075 59.3754 275.463 65.4584 278.239 70.8475C281.097 76.1548 284.935 80.3191 289.752 83.3402C294.57 86.2797 299.877 87.7494 305.674 87.7494C310.9 87.7494 315.554 86.6879 319.637 84.565C323.719 82.442 326.944 79.7883 329.312 76.6039V86.6471H343.397V19.162H329.312V28.9601C326.944 25.8574 323.76 23.2854 319.759 21.2441C315.84 19.1211 311.226 18.0597 305.919 18.0597C300.04 18.0597 294.651 19.5294 289.752 22.4688C284.935 25.3266 281.097 29.3684 278.239 34.5941ZM326.373 40.718C328.332 44.1474 329.312 48.1891 329.312 52.8433C329.312 57.4974 328.332 61.58 326.373 65.091C324.495 68.5204 322.004 71.1333 318.902 72.9296C315.799 74.7259 312.451 75.6241 308.859 75.6241C305.348 75.6241 302 74.7259 298.815 72.9296C295.713 71.0516 293.181 68.3571 291.222 64.8461C289.344 61.335 288.405 57.2525 288.405 52.5983C288.405 47.9442 289.344 43.9432 291.222 40.5955C293.181 37.1661 295.713 34.5941 298.815 32.8794C301.918 31.0831 305.266 30.1849 308.859 30.1849C312.451 30.1849 315.799 31.0831 318.902 32.8794C322.004 34.6758 324.495 37.2886 326.373 40.718ZM473.69 58.1098C474.017 56.0685 474.18 53.7823 474.18 51.2511C474.18 44.7189 472.792 38.9625 470.016 33.9817C467.24 28.9193 463.361 25.0001 458.381 22.2239C453.4 19.4478 447.725 18.0597 441.356 18.0597C434.742 18.0597 428.863 19.4885 423.719 22.3463C418.657 25.2042 414.697 29.2868 411.839 34.5941C409.063 39.8198 407.675 45.9029 407.675 52.8433C407.675 59.7837 409.104 65.9075 411.962 71.2149C414.901 76.4406 418.902 80.5232 423.964 83.4627C429.108 86.3205 434.906 87.7494 441.356 87.7494C449.276 87.7494 455.89 85.7897 461.198 81.8705C466.587 77.8695 470.302 72.7663 472.343 66.5608H457.278C454.176 72.8479 448.868 75.9915 441.356 75.9915C436.131 75.9915 431.721 74.3585 428.129 71.0924C424.536 67.8263 422.535 63.4988 422.127 58.1098H473.69ZM454.094 34.4716C457.687 37.5744 459.524 41.6978 459.605 46.8419H422.25C422.903 41.6162 424.944 37.4928 428.374 34.4716C431.803 31.3689 435.926 29.8175 440.744 29.8175C446.051 29.8175 450.501 31.3689 454.094 34.4716ZM516.808 18.0597C522.116 18.0597 526.851 19.1619 531.016 21.3665C535.261 23.5711 538.568 26.8372 540.936 31.1648C543.304 35.4923 544.488 40.718 544.488 46.8419V86.6471H530.648V48.924C530.648 42.8818 529.138 38.2684 526.116 35.084C523.095 31.8179 518.972 30.1849 513.746 30.1849C508.521 30.1849 504.356 31.8179 501.254 35.084C498.232 38.2684 496.722 42.8818 496.722 48.924V86.6471H482.759V19.162H496.722V26.878C499.008 24.1019 501.907 21.9381 505.418 20.3867C509.01 18.8354 512.807 18.0597 516.808 18.0597ZM680.994 0.422911V86.6471H667.032V0.422911H680.994ZM694.899 16.6875C696.614 18.4022 698.737 19.2596 701.268 19.2596C703.718 19.2596 705.8 18.4022 707.515 16.6875C709.229 14.9728 710.087 12.8499 710.087 10.3187C710.087 7.78749 709.229 5.66455 707.515 3.94987C705.8 2.23518 703.718 1.37784 701.268 1.37784C698.737 1.37784 696.614 2.23518 694.899 3.94987C693.185 5.66455 692.327 7.78749 692.327 10.3187C692.327 12.8499 693.185 14.9728 694.899 16.6875ZM708.127 86.6471V30.4934H694.165V86.6471H708.127ZM785.86 51.2511C785.86 53.7823 785.697 56.0685 785.37 58.1098H733.807C734.215 63.4988 736.216 67.8263 739.809 71.0924C743.401 74.3585 747.81 75.9915 753.036 75.9915C760.548 75.9915 765.855 72.8479 768.958 66.5608H784.023C781.982 72.7663 778.266 77.8695 772.877 81.8705C767.57 85.7897 760.956 87.7494 753.036 87.7494C746.586 87.7494 740.788 86.3205 735.644 83.4627C730.582 80.5232 726.581 76.4406 723.642 71.2149C720.784 65.9075 719.355 59.7837 719.355 52.8433C719.355 45.9029 720.743 39.8198 723.519 34.5941C726.377 29.2868 730.337 25.2042 735.399 22.3463C740.543 19.4885 746.422 18.0597 753.036 18.0597C759.405 18.0597 765.08 19.4478 770.06 22.2239C775.041 25.0001 778.919 28.9193 781.696 33.9817C784.472 38.9625 785.86 44.7189 785.86 51.2511ZM771.285 46.8419C771.203 41.6978 769.366 37.5744 765.774 34.4716C762.181 31.3689 757.731 29.8175 752.424 29.8175C747.606 29.8175 743.483 31.3689 740.054 34.4716C736.624 37.4928 734.583 41.6162 733.93 46.8419H771.285ZM841.792 21.3665C837.627 19.1619 832.891 18.0597 827.584 18.0597C823.583 18.0597 819.786 18.8354 816.194 20.3867C812.683 21.9381 809.784 24.1019 807.498 26.878V19.162H793.535V86.6471H807.498V48.924C807.498 42.8818 809.008 38.2684 812.03 35.084C815.132 31.8179 819.296 30.1849 824.522 30.1849C829.748 30.1849 833.871 31.8179 836.892 35.084C839.913 38.2684 841.424 42.8818 841.424 48.924V86.6471H855.264V46.8419C855.264 40.718 854.08 35.4923 851.712 31.1648C849.344 26.8372 846.037 23.5711 841.792 21.3665ZM884.202 30.5524V67.908C884.202 70.4392 884.774 72.2764 885.917 73.4195C887.142 74.4809 889.183 75.0117 892.041 75.0117H900.614V86.6471H889.591C883.304 86.6471 878.487 85.1774 875.139 82.2379C871.791 79.2984 870.117 74.5218 870.117 67.908V30.5524H862.156V19.162H870.117V2.38253H884.202V19.162H900.614V30.5524H884.202ZM56.8384 16.4416C60.7386 18.5542 63.7856 21.7231 65.9795 25.9484H82.6773C79.5084 17.8229 74.3894 11.5663 67.3202 7.17856C60.3323 2.70956 52.3288 0.475068 43.3095 0.475068C35.4278 0.475068 28.1556 2.34392 21.4927 6.08163C14.9111 9.73808 9.67016 14.8571 5.76994 21.4387C1.95098 28.0203 0.0415187 35.4552 0.0415187 43.7431C0.0415187 52.0311 1.95098 59.4658 5.76994 66.0474C9.67016 72.6291 14.9111 77.7887 21.4927 81.5265C28.0743 85.1829 35.3466 87.0111 43.3095 87.0111C50.7037 87.0111 57.4072 85.386 63.42 82.1359C69.5141 78.8044 74.43 74.3761 78.1677 68.8507C81.9866 63.3254 84.343 57.272 85.2368 50.6904C85.2368 50.6904 85.6698 47.6607 85.6698 45.5479C85.6698 43.0817 85.2368 39.8429 85.2368 39.8429H38.5562V50.9341H70.3673C69.311 58.1658 66.4264 63.8942 61.7136 68.1194C57.0009 72.3447 50.8662 74.4573 43.3095 74.4573C37.703 74.4573 32.7058 73.1979 28.3181 70.679C23.9303 68.1601 20.477 64.5849 17.9581 59.9534C15.5205 55.2406 14.3017 49.8372 14.3017 43.7431C14.3017 37.649 15.5205 32.2862 17.9581 27.6547C20.477 23.0232 23.9303 19.448 28.3181 16.9291C32.7058 14.4102 37.703 13.1508 43.3095 13.1508C48.4286 13.1508 52.9382 14.2477 56.8384 16.4416ZM110.398 86.2798V31.0674H96.5033V86.2798H110.398ZM142.413 30.458V67.6319C142.413 70.1508 142.981 71.979 144.119 73.1166C145.338 74.1729 147.369 74.7011 150.213 74.7011H158.745V86.2798H147.775C141.519 86.2798 136.725 84.8172 133.393 81.8921C130.062 78.9669 128.396 74.2135 128.396 67.6319V30.458H120.474V19.123H128.396V1.52133H142.413V19.123H158.745V30.458H142.413ZM103.561 22.1531C100.611 22.1531 98.1371 21.1609 96.1389 19.1764C94.1407 17.1919 93.1416 14.7349 93.1416 11.8054C93.1416 8.87592 94.1407 6.41894 96.1389 4.43445C98.1371 2.44996 100.611 1.45771 103.561 1.45771C106.415 1.45771 108.842 2.44996 110.84 4.43445C112.838 6.41894 113.837 8.87592 113.837 11.8054C113.837 14.7349 112.838 17.1919 110.84 19.1764C108.842 21.1609 106.415 22.1531 103.561 22.1531Z" fill="#ECFFFE"/>
</svg>
