<svg width="979" height="188" viewBox="0 0 979 188" fill="none" xmlns="http://www.w3.org/2000/svg">
<path fill-rule="evenodd" clip-rule="evenodd" d="M93.3932 9.75299L153.35 44.3693C158.714 47.4662 162.019 53.1897 162.019 59.3837V128.616C162.019 134.81 158.714 140.534 153.35 143.631L93.3932 178.247C88.029 181.344 81.4201 181.344 76.0559 178.247L16.0988 143.631C10.7347 140.534 7.43024 134.81 7.43024 128.616V59.3837C7.43024 53.1897 10.7347 47.4662 16.0989 44.3693L76.0559 9.75299C81.4201 6.65599 88.029 6.65599 93.3932 9.75299ZM72.3408 3.31821C80.0039 -1.10607 89.4452 -1.10607 97.1083 3.31821L157.065 37.9345C164.728 42.3588 169.449 50.5352 169.449 59.3837V128.616C169.449 137.465 164.728 145.641 157.065 150.066L97.1083 184.682C89.4452 189.106 80.0039 189.106 72.3408 184.682L12.3837 150.066C4.72065 145.641 0 137.465 0 128.616V59.3837C0 50.5352 4.72065 42.3588 12.3837 37.9345L72.3408 3.31821ZM66.7005 82.5264C67.1904 83.7975 68.3342 84.7925 69.7095 84.7925C71.0849 84.7925 72.2286 83.7975 72.7185 82.5264C74.5108 77.8762 79.0616 74.5726 84.3924 74.5726C89.7232 74.5726 94.274 77.8762 96.0663 82.5264C96.5562 83.7975 97.6999 84.7925 99.0753 84.7925C100.451 84.7925 101.594 83.7975 102.084 82.5264C103.877 77.8762 108.427 74.5726 113.758 74.5726C118.897 74.5726 123.311 77.6427 125.228 82.0296C125.898 83.5629 127.294 84.7925 128.983 84.7925H129.336C131.255 84.7925 132.823 83.249 132.687 81.356C130.906 56.521 109.973 36.9205 84.4109 36.9205C58.849 36.9205 37.9155 56.521 36.1344 81.356C35.9987 83.2489 37.567 84.7925 39.4856 84.7925H39.8017C41.4904 84.7925 42.887 83.5629 43.5569 82.0296C45.4736 77.6427 49.8877 74.5726 55.0267 74.5726C60.3575 74.5726 64.9082 77.8762 66.7005 82.5264ZM79.7311 125.884C80.8924 125.218 82.3475 126.045 82.3475 127.371V149.926C82.3475 151.252 80.8923 152.079 79.7311 151.413L67.9453 144.659C67.4084 144.352 67.078 143.785 67.078 143.173V134.125C67.078 133.512 67.4084 132.945 67.9453 132.638L79.7311 125.884ZM86.4588 127.371C86.4588 126.045 87.8746 125.218 89.0044 125.884L100.472 132.638C100.994 132.945 101.316 133.512 101.316 134.125V143.57C101.316 144.182 100.994 144.749 100.472 145.056L89.0044 151.81C87.8746 152.476 86.4588 151.649 86.4588 150.323V127.371ZM40.1157 90.0054C39.228 91.0398 39.3469 92.5981 40.3814 93.4858L73.0885 121.554C74.1229 122.442 75.6812 122.323 76.5689 121.289C77.4567 120.254 77.3377 118.696 76.3033 117.808L43.5962 89.7397C42.5617 88.852 41.0035 88.9709 40.1157 90.0054ZM128.822 93.4858C129.856 92.5981 129.975 91.0398 129.087 90.0054C128.2 88.9709 126.641 88.852 125.607 89.7397L92.8998 117.808C91.8654 118.696 91.7464 120.254 92.6342 121.289C93.5219 122.323 95.0802 122.442 96.1146 121.554L128.822 93.4858ZM70.5611 90.004C69.2862 90.4865 68.6437 91.9111 69.1262 93.186L78.0457 116.756C78.5282 118.031 79.9528 118.674 81.2277 118.191C82.5026 117.709 83.1451 116.284 82.6626 115.009L73.7431 91.4389C73.2606 90.1639 71.836 89.5215 70.5611 90.004ZM100.16 93.186C100.643 91.9111 100.001 90.4865 98.7256 90.004C97.4507 89.5215 96.026 90.1639 95.5436 91.4389L86.6241 115.009C86.1416 116.284 86.784 117.709 88.0589 118.191C89.3339 118.674 90.7585 118.031 91.241 116.756L100.16 93.186Z" fill="#0D1017"/>
<path fill-rule="evenodd" clip-rule="evenodd" d="M221 93.5091C221 85.3665 222.876 78.0622 226.628 71.596C230.46 65.1298 235.609 60.1005 242.075 56.5082C248.621 52.8361 255.766 51 263.509 51C272.37 51 280.233 53.1953 287.099 57.5859C294.044 61.8967 299.073 68.0436 302.186 76.0265H285.782C283.626 71.6359 280.633 68.3629 276.801 66.2075C272.969 64.0521 268.538 62.9744 263.509 62.9744C258.001 62.9744 253.091 64.2118 248.781 66.6865C244.47 69.1612 241.077 72.7136 238.602 77.3437C236.207 81.9738 235.01 87.3623 235.01 93.5091C235.01 99.656 236.207 105.044 238.602 109.675C241.077 114.305 244.47 117.897 248.781 120.452C253.091 122.926 258.001 124.164 263.509 124.164C268.538 124.164 272.969 123.086 276.801 120.931C280.633 118.775 283.626 115.502 285.782 111.112H302.186C299.073 119.094 294.044 125.241 287.099 129.552C280.233 133.863 272.37 136.018 263.509 136.018C255.686 136.018 248.541 134.222 242.075 130.63C235.609 126.958 230.46 121.888 226.628 115.422C222.876 108.956 221 101.652 221 93.5091ZM329.421 52.0777V135.3H315.77V52.0777H329.421ZM367.388 135.3L399.959 51.0001H386.428L353.977 135.3H367.388ZM410.217 93.5091C410.217 85.3665 412.093 78.0622 415.845 71.596C419.677 65.1298 424.826 60.1005 431.292 56.5082C437.838 52.8361 444.983 51 452.727 51C461.588 51 469.451 53.1953 476.316 57.5859C483.261 61.8967 488.291 68.0436 491.404 76.0265H474.999C472.844 71.6359 469.85 68.3629 466.018 66.2075C462.186 64.0521 457.756 62.9744 452.727 62.9744C447.218 62.9744 442.309 64.2118 437.998 66.6865C433.687 69.1612 430.294 72.7136 427.82 77.3437C425.425 81.9738 424.227 87.3623 424.227 93.5091C424.227 99.656 425.425 105.044 427.82 109.675C430.294 114.305 433.687 117.897 437.998 120.452C442.309 122.926 447.218 124.164 452.727 124.164C457.756 124.164 462.186 123.086 466.018 120.931C469.85 118.775 472.844 115.502 474.999 111.112H491.404C488.291 119.094 483.261 125.241 476.316 129.552C469.451 133.863 461.588 136.018 452.727 136.018C444.903 136.018 437.759 134.222 431.292 130.63C424.826 126.958 419.677 121.888 415.845 115.422C412.093 108.956 410.217 101.652 410.217 93.5091ZM555.4 57.2267C548.774 53.794 541.03 52.0777 532.169 52.0777H504.987V135.3H532.169C541.03 135.3 548.774 133.663 555.4 130.39C562.105 127.037 567.254 122.248 570.847 116.021C574.519 109.794 576.355 102.45 576.355 93.9881C576.355 85.5262 574.519 78.142 570.847 71.8355C567.254 65.4491 562.105 60.5795 555.4 57.2267ZM554.561 116.261C549.372 121.529 541.908 124.164 532.169 124.164H518.638V63.2139H532.169C541.908 63.2139 549.372 65.9281 554.561 71.3565C559.75 76.7849 562.345 84.3288 562.345 93.9881C562.345 103.568 559.75 110.992 554.561 116.261ZM850.833 73.0617C847.774 73.0617 845.208 72.0326 843.136 69.9745C841.063 67.9163 840.027 65.3681 840.027 62.3299C840.027 59.2917 841.063 56.7435 843.136 54.6854C845.208 52.6272 847.774 51.5981 850.833 51.5981C853.794 51.5981 856.31 52.6272 858.382 54.6854C860.455 56.7435 861.491 59.2917 861.491 62.3299C861.491 65.3681 860.455 67.9163 858.382 69.9745C856.31 72.0326 853.794 73.0617 850.833 73.0617ZM633.608 89.5086H645.912V78.2906H633.608V73.5862C633.608 69.7263 634.453 67.0323 636.141 65.5044C637.83 63.8961 640.765 63.0919 644.947 63.0919V51.6327C636.262 51.6327 629.869 53.4018 625.768 56.9401C621.747 60.398 619.737 65.9467 619.737 73.5862V78.2906H611.896V89.5086H619.737V135.717H633.608V89.5086ZM667.507 132.581C672.573 135.395 678.243 136.803 684.515 136.803C690.868 136.803 696.658 135.395 701.885 132.581C707.192 129.686 711.374 125.625 714.43 120.398C717.486 115.171 719.014 109.18 719.014 102.425C719.014 95.6699 717.526 89.6789 714.551 84.4519C711.575 79.2249 707.514 75.204 702.368 72.3895C697.221 69.5749 691.471 68.1677 685.118 68.1677C678.766 68.1677 673.016 69.5749 667.869 72.3895C662.723 75.204 658.662 79.2249 655.686 84.4519C652.711 89.6789 651.223 95.6699 651.223 102.425C651.223 109.26 652.671 115.291 655.565 120.518C658.46 125.665 662.441 129.686 667.507 132.581ZM694.406 122.328C691.351 124.016 688.054 124.861 684.515 124.861C678.967 124.861 674.343 122.931 670.644 119.071C667.025 115.131 665.215 109.582 665.215 102.425C665.215 97.5999 666.1 93.5389 667.869 90.2418C669.638 86.8644 672.011 84.3313 674.986 82.6425C678.042 80.9538 681.339 80.1094 684.877 80.1094C688.415 80.1094 691.712 80.9538 694.768 82.6425C697.824 84.3313 700.277 86.8644 702.126 90.2418C703.976 93.5389 704.901 97.5999 704.901 102.425C704.901 107.25 703.936 111.351 702.006 114.728C700.076 118.106 697.543 120.639 694.406 122.328ZM743.946 78.9032C745.956 75.5257 748.61 72.9122 751.907 71.0626C755.285 69.1326 759.265 68.1677 763.849 68.1677V82.4013H760.351C754.963 82.4013 750.862 83.7683 748.047 86.5025C745.313 89.2366 743.946 93.9812 743.946 100.736V135.717H730.195V69.2533H743.946V78.9032ZM830.64 112.316V51.8834H816.768V112.316C816.768 115.935 815.843 118.87 813.994 121.122C812.144 123.293 809.45 124.378 805.912 124.378C802.374 124.378 799.68 123.293 797.83 121.122C796.061 118.95 795.136 116.015 795.056 112.316H781.184C781.184 119.795 783.436 125.705 787.939 130.048C792.523 134.39 798.514 136.561 805.912 136.561C813.31 136.561 819.261 134.39 823.764 130.048C828.348 125.705 830.64 119.795 830.64 112.316ZM857.57 81.0744V135.717H843.819V81.0744H857.57ZM892.665 71.0626C889.368 72.9122 886.714 75.5257 884.704 78.9032V69.2533H870.953V135.717H884.704V100.736C884.704 93.9812 886.071 89.2366 888.805 86.5025C891.62 83.7683 895.721 82.4013 901.109 82.4013H904.607V68.1677C900.023 68.1677 896.042 69.1326 892.665 71.0626ZM910.251 102.184C910.251 95.5091 911.618 89.5985 914.352 84.4519C917.166 79.3053 920.946 75.3247 925.69 72.5101C930.515 69.6151 935.823 68.1677 941.613 68.1677C946.84 68.1677 951.383 69.2131 955.243 71.3039C959.184 73.3143 962.32 75.8474 964.652 78.9032V69.2533H978.524V135.717H964.652V125.826C962.32 128.962 959.143 131.576 955.123 133.666C951.102 135.757 946.518 136.803 941.372 136.803C935.662 136.803 930.435 135.355 925.69 132.46C920.946 129.485 917.166 125.384 914.352 120.157C911.618 114.849 910.251 108.858 910.251 102.184ZM964.652 102.425C964.652 97.8411 963.687 93.8605 961.757 90.4831C959.907 87.1056 957.455 84.5323 954.399 82.7632C951.343 80.994 948.046 80.1094 944.508 80.1094C940.969 80.1094 937.672 80.994 934.617 82.7632C931.561 84.4519 929.068 86.985 927.138 90.3625C925.288 93.6595 924.364 97.5999 924.364 102.184C924.364 106.767 925.288 110.788 927.138 114.246C929.068 117.704 931.561 120.358 934.617 122.207C937.753 123.976 941.05 124.861 944.508 124.861C948.046 124.861 951.343 123.976 954.399 122.207C957.455 120.438 959.907 117.865 961.757 114.487C963.687 111.029 964.652 107.009 964.652 102.425Z" fill="#0D1017"/>
</svg>
