<svg width="758" height="87" viewBox="0 0 758 87" fill="none" xmlns="http://www.w3.org/2000/svg">
<path fill-rule="evenodd" clip-rule="evenodd" d="M0.296387 43.4515C0.296387 35.3089 2.17238 28.0045 5.92436 21.5384C9.75617 15.0722 14.9052 10.0429 21.3713 6.45061C27.9173 2.77846 35.0621 0.942383 42.8055 0.942383C51.6666 0.942383 59.5298 3.13769 66.3951 7.5283C73.3403 11.8391 78.3695 17.986 81.4828 25.9689H65.0779C62.9225 21.5783 59.9289 18.3053 56.0971 16.1499C52.2653 13.9945 47.8348 12.9168 42.8055 12.9168C37.2973 12.9168 32.3878 14.1541 28.077 16.6289C23.7662 19.1036 20.3735 22.656 17.8988 27.2861C15.5039 31.9162 14.3064 37.3047 14.3064 43.4515C14.3064 49.5984 15.5039 54.9869 17.8988 59.617C20.3735 64.2471 23.7662 67.8394 28.077 70.3939C32.3878 72.8686 37.2973 74.106 42.8055 74.106C47.8348 74.106 52.2653 73.0283 56.0971 70.8729C59.9289 68.7175 62.9225 65.4445 65.0779 61.0539H81.4828C78.3695 69.0368 73.3403 75.1837 66.3951 79.4945C59.5298 83.8053 51.6666 85.9607 42.8055 85.9607C34.9822 85.9607 27.8375 84.1645 21.3713 80.5722C14.9052 76.9 9.75617 71.8309 5.92436 65.3647C2.17238 58.8985 0.296387 51.5941 0.296387 43.4515ZM108.717 2.02008V85.2422H95.0663V2.02008H108.717ZM146.685 85.2422L179.255 0.94245H165.724L133.273 85.2422H146.685ZM189.514 43.4515C189.514 35.3089 191.39 28.0045 195.142 21.5384C198.974 15.0722 204.123 10.0429 210.589 6.45061C217.135 2.77846 224.279 0.942383 232.023 0.942383C240.884 0.942383 248.747 3.13769 255.613 7.5283C262.558 11.8391 267.587 17.986 270.7 25.9689H254.295C252.14 21.5783 249.146 18.3053 245.315 16.1499C241.483 13.9945 237.052 12.9168 232.023 12.9168C226.515 12.9168 221.605 14.1541 217.294 16.6289C212.984 19.1036 209.591 22.656 207.116 27.2861C204.721 31.9162 203.524 37.3047 203.524 43.4515C203.524 49.5984 204.721 54.9869 207.116 59.617C209.591 64.2471 212.984 67.8394 217.294 70.3939C221.605 72.8686 226.515 74.106 232.023 74.106C237.052 74.106 241.483 73.0283 245.315 70.8729C249.146 68.7175 252.14 65.4445 254.295 61.0539H270.7C267.587 69.0368 262.558 75.1837 255.613 79.4945C248.747 83.8053 240.884 85.9607 232.023 85.9607C224.2 85.9607 217.055 84.1645 210.589 80.5722C204.123 76.9 198.974 71.8309 195.142 65.3647C191.39 58.8985 189.514 51.5941 189.514 43.4515ZM334.696 7.16908C328.07 3.73641 320.327 2.02008 311.466 2.02008H284.284V85.2422H311.466C320.327 85.2422 328.07 83.6057 334.696 80.3327C341.402 76.9798 346.551 72.1901 350.143 65.9634C353.815 59.7367 355.651 52.3924 355.651 43.9305C355.651 35.4686 353.815 28.0844 350.143 21.7778C346.551 15.3915 341.402 10.5219 334.696 7.16908ZM333.858 66.2029C328.669 71.4716 321.205 74.106 311.466 74.106H297.935V13.1563H311.466C321.205 13.1563 328.669 15.8705 333.858 21.2989C339.047 26.7273 341.641 34.2711 341.641 43.9305C341.641 53.51 339.047 60.9342 333.858 66.2029ZM630.129 23.0041C627.07 23.0041 624.505 21.975 622.432 19.9169C620.36 17.8587 619.324 15.3105 619.324 12.2723C619.324 9.23406 620.36 6.68588 622.432 4.62773C624.505 2.56958 627.07 1.54053 630.129 1.54053C633.09 1.54053 635.606 2.56958 637.679 4.62773C639.751 6.68588 640.787 9.23406 640.787 12.2723C640.787 15.3105 639.751 17.8587 637.679 19.9169C635.606 21.975 633.09 23.0041 630.129 23.0041ZM412.905 39.451H425.208V28.2329H412.905V23.5286C412.905 19.6686 413.749 16.9747 415.438 15.4468C417.126 13.8385 420.062 13.0343 424.243 13.0343V1.57507C415.558 1.57507 409.165 3.34422 405.064 6.88252C401.043 10.3404 399.033 15.8891 399.033 23.5286V28.2329H391.192V39.451H399.033V85.6594H412.905V39.451ZM446.804 82.5232C451.87 85.3377 457.539 86.745 463.812 86.745C470.164 86.745 475.954 85.3377 481.181 82.5232C486.489 79.6282 490.67 75.5672 493.726 70.3402C496.782 65.1131 498.31 59.1222 498.31 52.3672C498.31 45.6123 496.822 39.6213 493.847 34.3943C490.872 29.1672 486.811 25.1464 481.664 22.3319C476.517 19.5173 470.768 18.11 464.415 18.11C458.062 18.11 452.312 19.5173 447.166 22.3319C442.019 25.1464 437.958 29.1672 434.983 34.3943C432.007 39.6213 430.519 45.6123 430.519 52.3672C430.519 59.2026 431.967 65.2338 434.862 70.4608C437.757 75.6074 441.737 79.6282 446.804 82.5232ZM473.703 72.2701C470.647 73.9589 467.35 74.8032 463.812 74.8032C458.263 74.8032 453.639 72.8733 449.94 69.0133C446.321 65.0729 444.512 59.5242 444.512 52.3672C444.512 47.5423 445.396 43.4813 447.166 40.1842C448.935 36.8068 451.307 34.2736 454.282 32.5849C457.338 30.8962 460.635 30.0518 464.173 30.0518C467.712 30.0518 471.009 30.8962 474.065 32.5849C477.12 34.2736 479.573 36.8068 481.423 40.1842C483.272 43.4813 484.197 47.5423 484.197 52.3672C484.197 57.1922 483.232 61.2934 481.302 64.6708C479.372 68.0483 476.839 70.5814 473.703 72.2701ZM523.242 28.8456C525.253 25.4681 527.907 22.8546 531.204 21.005C534.581 19.075 538.562 18.11 543.145 18.11V32.3437H539.647C534.259 32.3437 530.158 33.7107 527.344 36.4449C524.609 39.179 523.242 43.9236 523.242 50.6785V85.6594H509.491V19.1956H523.242V28.8456ZM609.936 62.2584V1.82581H596.064V62.2584C596.064 65.8771 595.14 68.8123 593.29 71.0639C591.441 73.2351 588.747 74.3207 585.208 74.3207C581.67 74.3207 578.976 73.2351 577.126 71.0639C575.357 68.8927 574.432 65.9575 574.352 62.2584H560.48C560.48 69.7371 562.732 75.6476 567.235 79.9901C571.819 84.3325 577.81 86.5038 585.208 86.5038C592.607 86.5038 598.557 84.3325 603.061 79.9901C607.644 75.6476 609.936 69.7371 609.936 62.2584ZM636.867 31.0168V85.6594H623.116V31.0168H636.867ZM671.961 21.005C668.664 22.8546 666.011 25.4681 664 28.8456V19.1956H650.249V85.6594H664V50.6785C664 43.9236 665.367 39.179 668.101 36.4449C670.916 33.7107 675.017 32.3437 680.405 32.3437H683.903V18.11C679.319 18.11 675.339 19.075 671.961 21.005ZM689.547 52.126C689.547 45.4515 690.914 39.5409 693.648 34.3943C696.463 29.2476 700.242 25.267 704.987 22.4525C709.812 19.5575 715.119 18.11 720.909 18.11C726.136 18.11 730.68 19.1554 734.54 21.2463C738.48 23.2566 741.616 25.7898 743.948 28.8456V19.1956H757.82V85.6594H743.948V75.7682C741.616 78.9045 738.44 81.518 734.419 83.6088C730.398 85.6996 725.815 86.745 720.668 86.745C714.958 86.745 709.731 85.2975 704.987 82.4025C700.242 79.4272 696.463 75.326 693.648 70.0989C690.914 64.7915 689.547 58.8005 689.547 52.126ZM743.948 52.3672C743.948 47.7835 742.983 43.8029 741.053 40.4255C739.204 37.048 736.751 34.4747 733.695 32.7055C730.64 30.9364 727.342 30.0518 723.804 30.0518C720.266 30.0518 716.969 30.9364 713.913 32.7055C710.857 34.3943 708.364 36.9274 706.434 40.3048C704.585 43.6019 703.66 47.5423 703.66 52.126C703.66 56.7097 704.585 60.7305 706.434 64.1884C708.364 67.6462 710.857 70.3 713.913 72.1495C717.049 73.9187 720.346 74.8032 723.804 74.8032C727.342 74.8032 730.64 73.9187 733.695 72.1495C736.751 70.3804 739.204 67.8071 741.053 64.4296C742.983 60.9717 743.948 56.9509 743.948 52.3672Z" fill="#CFFFEE"/>
</svg>
