<svg width="300" height="332" viewBox="0 0 300 332" fill="none" xmlns="http://www.w3.org/2000/svg">
<path fill-rule="evenodd" clip-rule="evenodd" d="M128.075 5.85982C141.642 -1.95327 158.358 -1.95327 171.925 5.85982L278.075 66.9907C291.642 74.8038 300 89.243 300 104.869V227.131C300 242.757 291.642 257.196 278.075 265.009L171.925 326.14C158.358 333.953 141.642 333.953 128.075 326.14L21.9247 265.009C8.35767 257.196 8.88482e-06 242.757 8.88482e-06 227.131V104.869C8.88482e-06 89.243 8.35767 74.8038 21.9247 66.9907L128.075 5.85982Z" fill="#00313C"/>
<path fill-rule="evenodd" clip-rule="evenodd" d="M128.075 5.85982C141.642 -1.95327 158.358 -1.95327 171.925 5.85982L278.075 66.9907C291.642 74.8038 300 89.243 300 104.869V227.131C300 242.757 291.642 257.196 278.075 265.009L171.925 326.14C158.358 333.953 141.642 333.953 128.075 326.14L21.9247 265.009C8.35767 257.196 8.88482e-06 242.757 8.88482e-06 227.131V104.869C8.88482e-06 89.243 8.35767 74.8038 21.9247 66.9907L128.075 5.85982Z" fill="url(#paint0_radial_565_5287)"/>
<path fill-rule="evenodd" clip-rule="evenodd" d="M128.075 5.85982C141.642 -1.95327 158.358 -1.95327 171.925 5.85982L278.075 66.9907C291.642 74.8038 300 89.243 300 104.869V227.131C300 242.757 291.642 257.196 278.075 265.009L171.925 326.14C158.358 333.953 141.642 333.953 128.075 326.14L21.9247 265.009C8.35767 257.196 8.88482e-06 242.757 8.88482e-06 227.131V104.869C8.88482e-06 89.243 8.35767 74.8038 21.9247 66.9907L128.075 5.85982Z" fill="url(#paint1_radial_565_5287)"/>
<path fill-rule="evenodd" clip-rule="evenodd" d="M131.584 11.922C142.98 5.35934 157.02 5.35934 168.416 11.922L274.566 73.0529C285.962 79.6155 292.982 91.7438 292.982 104.869V227.131C292.982 240.256 285.962 252.385 274.566 258.947L168.416 320.078C157.02 326.641 142.98 326.641 131.584 320.078L25.4336 258.947C14.0379 252.384 7.01779 240.256 7.01779 227.131V104.869C7.01779 91.7438 14.0379 79.6155 25.4336 73.0529L131.584 11.922ZM171.925 5.85982C158.358 -1.95327 141.642 -1.95327 128.075 5.85982L21.9247 66.9907C8.35768 74.8038 8.88482e-06 89.243 8.88482e-06 104.869V227.131C8.88482e-06 242.757 8.35768 257.196 21.9247 265.009L128.075 326.14C141.642 333.953 158.358 333.953 171.925 326.14L278.075 265.009C291.642 257.196 300 242.757 300 227.131V104.869C300 89.243 291.642 74.8038 278.075 66.9907L171.925 5.85982Z" fill="white" style="mix-blend-mode:soft-light"/>
<g filter="url(#filter0_d_565_5287)">
<path d="M146.176 225.424C146.176 222.341 142.824 220.417 140.15 221.965L121.404 232.817C120.167 233.533 119.406 234.851 119.406 236.276V251.2C119.406 252.626 120.167 253.944 121.404 254.66L140.15 265.512C142.824 267.06 146.176 265.136 146.176 262.052V225.424Z" fill="white"/>
<path d="M158.894 221.965C156.22 220.417 152.868 222.341 152.868 225.424V262.052C152.868 265.136 156.22 267.06 158.894 265.512L177.64 254.66C178.877 253.944 179.638 252.626 179.638 251.2V236.276C179.638 234.851 178.877 233.533 177.64 232.817L158.894 221.965Z" fill="white"/>
<path d="M123.968 158.421C122.045 158.421 120.764 160.435 121.557 162.211L142.164 208.348C142.708 209.566 144.064 210.178 145.32 209.773C146.801 209.295 147.54 207.614 146.901 206.178L126.38 160.001C125.952 159.039 125.008 158.421 123.968 158.421Z" fill="white"/>
<path d="M225.915 158.421C225.346 158.421 224.794 158.619 224.353 158.983L163.343 209.255C161.817 210.513 162.279 212.987 164.154 213.592C164.949 213.849 165.817 213.682 166.465 213.148L227.477 162.88C229.286 161.389 228.247 158.421 225.915 158.421Z" fill="white"/>
<path d="M176.017 158.421C174.975 158.421 174.029 158.998 173.596 159.897L151.189 206.448C150.561 207.753 151.251 209.289 152.678 209.761C153.925 210.174 155.298 209.62 155.852 208.481L178.434 162.007C179.247 160.332 177.959 158.421 176.017 158.421Z" fill="white"/>
<path d="M76.7595 159.018C76.2994 158.632 75.7165 158.421 75.1142 158.421C72.7393 158.421 71.6545 161.358 73.4676 162.879L133.329 213.106C134.004 213.672 134.925 213.856 135.769 213.592C137.705 212.986 138.207 210.502 136.656 209.202L76.7595 159.018Z" fill="white"/>
<path d="M150 65C195.648 65 232.901 100.841 234.996 145.84C235.099 148.047 233.293 149.841 231.077 149.841H226.598C224.648 149.841 223.018 148.425 222.392 146.584C219.452 137.945 211.251 131.729 201.594 131.729C191.937 131.729 183.736 137.945 180.797 146.584C180.17 148.425 178.54 149.841 176.59 149.841H174.971C173.021 149.841 171.391 148.425 170.765 146.584C167.825 137.945 159.624 131.729 149.967 131.729C140.31 131.729 132.109 137.945 129.17 146.584C128.543 148.425 126.913 149.841 124.963 149.841H123.344C121.394 149.841 119.764 148.425 119.138 146.584C116.199 137.945 107.998 131.729 98.3404 131.729C88.6833 131.729 80.4823 137.945 77.543 146.584C76.9164 148.425 75.2865 149.841 73.3364 149.841H68.9229C66.7073 149.841 64.9014 148.047 65.0042 145.84C67.0992 100.841 104.352 65 150 65Z" fill="white"/>
</g>
<defs>
<filter id="filter0_d_565_5287" x="15" y="19" width="270" height="301.059" filterUnits="userSpaceOnUse" color-interpolation-filters="sRGB">
<feFlood flood-opacity="0" result="BackgroundImageFix"/>
<feColorMatrix in="SourceAlpha" type="matrix" values="0 0 0 0 0 0 0 0 0 0 0 0 0 0 0 0 0 0 127 0" result="hardAlpha"/>
<feOffset dy="4"/>
<feGaussianBlur stdDeviation="25"/>
<feComposite in2="hardAlpha" operator="out"/>
<feColorMatrix type="matrix" values="0 0 0 0 0 0 0 0 0 0 0 0 0 0 0 0 0 0 1 0"/>
<feBlend mode="normal" in2="BackgroundImageFix" result="effect1_dropShadow_565_5287"/>
<feBlend mode="normal" in="SourceGraphic" in2="effect1_dropShadow_565_5287" result="shape"/>
</filter>
<radialGradient id="paint0_radial_565_5287" cx="0" cy="0" r="1" gradientUnits="userSpaceOnUse" gradientTransform="translate(2.74143 82.5001) rotate(44.9273) scale(231.525 230.319)">
<stop stop-color="#00FCC2"/>
<stop offset="1" stop-color="#255E66" stop-opacity="0"/>
</radialGradient>
<radialGradient id="paint1_radial_565_5287" cx="0" cy="0" r="1" gradientUnits="userSpaceOnUse" gradientTransform="translate(276.136 259.847) rotate(-135.073) scale(151.792 165.302)">
<stop stop-color="#00FFD1" stop-opacity="0.6"/>
<stop offset="1" stop-color="#0D1017" stop-opacity="0"/>
</radialGradient>
</defs>
</svg>
