<svg width="170" height="188" viewBox="0 0 170 188" fill="none" xmlns="http://www.w3.org/2000/svg">
<path fill-rule="evenodd" clip-rule="evenodd" d="M93.3932 9.75299L153.35 44.3693C158.714 47.4662 162.019 53.1897 162.019 59.3837V128.616C162.019 134.81 158.714 140.534 153.35 143.631L93.3932 178.247C88.029 181.344 81.4201 181.344 76.0559 178.247L16.0988 143.631C10.7347 140.534 7.43024 134.81 7.43024 128.616V59.3837C7.43024 53.1897 10.7347 47.4662 16.0989 44.3693L76.0559 9.75299C81.4201 6.65599 88.029 6.65599 93.3932 9.75299ZM72.3408 3.31821C80.0039 -1.10607 89.4452 -1.10607 97.1083 3.31821L157.065 37.9345C164.728 42.3588 169.449 50.5352 169.449 59.3837V128.616C169.449 137.465 164.728 145.641 157.065 150.066L97.1083 184.682C89.4452 189.106 80.0039 189.106 72.3408 184.682L12.3837 150.066C4.72065 145.641 0 137.465 0 128.616V59.3837C0 50.5352 4.72065 42.3588 12.3837 37.9345L72.3408 3.31821ZM66.7005 82.5264C67.1904 83.7975 68.3342 84.7925 69.7095 84.7925C71.0849 84.7925 72.2286 83.7975 72.7185 82.5264C74.5108 77.8762 79.0616 74.5726 84.3924 74.5726C89.7232 74.5726 94.274 77.8762 96.0663 82.5264C96.5562 83.7975 97.6999 84.7925 99.0753 84.7925C100.451 84.7925 101.594 83.7975 102.084 82.5264C103.877 77.8762 108.427 74.5726 113.758 74.5726C118.897 74.5726 123.311 77.6427 125.228 82.0296C125.898 83.5629 127.294 84.7925 128.983 84.7925H129.336C131.255 84.7925 132.823 83.249 132.687 81.356C130.906 56.521 109.973 36.9205 84.4109 36.9205C58.849 36.9205 37.9155 56.521 36.1344 81.356C35.9987 83.2489 37.567 84.7925 39.4856 84.7925H39.8017C41.4904 84.7925 42.887 83.5629 43.5569 82.0296C45.4736 77.6427 49.8877 74.5726 55.0267 74.5726C60.3575 74.5726 64.9082 77.8762 66.7005 82.5264ZM79.7311 125.884C80.8924 125.218 82.3475 126.045 82.3475 127.371V149.926C82.3475 151.252 80.8923 152.079 79.7311 151.413L67.9453 144.659C67.4084 144.352 67.078 143.785 67.078 143.173V134.125C67.078 133.512 67.4084 132.945 67.9453 132.638L79.7311 125.884ZM86.4588 127.371C86.4588 126.045 87.8746 125.218 89.0044 125.884L100.472 132.638C100.994 132.945 101.316 133.512 101.316 134.125V143.57C101.316 144.182 100.994 144.749 100.472 145.056L89.0044 151.81C87.8746 152.476 86.4588 151.649 86.4588 150.323V127.371ZM40.1157 90.0054C39.228 91.0398 39.3469 92.5981 40.3814 93.4858L73.0885 121.554C74.1229 122.442 75.6812 122.323 76.5689 121.289C77.4567 120.254 77.3377 118.696 76.3033 117.808L43.5962 89.7397C42.5617 88.852 41.0035 88.9709 40.1157 90.0054ZM128.822 93.4858C129.856 92.5981 129.975 91.0398 129.087 90.0054C128.2 88.9709 126.641 88.852 125.607 89.7397L92.8998 117.808C91.8654 118.696 91.7464 120.254 92.6342 121.289C93.5219 122.323 95.0802 122.442 96.1146 121.554L128.822 93.4858ZM70.5611 90.004C69.2862 90.4865 68.6437 91.9111 69.1262 93.186L78.0457 116.756C78.5282 118.031 79.9528 118.674 81.2277 118.191C82.5026 117.709 83.1451 116.284 82.6626 115.009L73.7431 91.4389C73.2606 90.1639 71.836 89.5215 70.5611 90.004ZM100.16 93.186C100.643 91.9111 100.001 90.4865 98.7256 90.004C97.4507 89.5215 96.026 90.1639 95.5436 91.4389L86.6241 115.009C86.1416 116.284 86.784 117.709 88.0589 118.191C89.3339 118.674 90.7585 118.031 91.241 116.756L100.16 93.186Z" fill="#F1F1F1"/>
</svg>
