<svg width="331" height="331" viewBox="0 0 331 331" fill="none" xmlns="http://www.w3.org/2000/svg">
<circle cx="165.5" cy="165.5" r="165.5" fill="#04090D"/>
<circle cx="165.5" cy="165.5" r="165.5" fill="url(#paint0_linear_565_5285)"/>
<circle cx="165.5" cy="165.5" r="165.5" fill="url(#paint1_radial_565_5285)"/>
<circle cx="165.5" cy="165.5" r="165.5" fill="url(#paint2_radial_565_5285)"/>
<path fill-rule="evenodd" clip-rule="evenodd" d="M165.5 324C253.037 324 324 253.037 324 165.5C324 77.9629 253.037 7 165.5 7C77.9629 7 7 77.9629 7 165.5C7 253.037 77.9629 324 165.5 324ZM165.5 331C256.903 331 331 256.903 331 165.5C331 74.0969 256.903 0 165.5 0C74.0969 0 0 74.0969 0 165.5C0 256.903 74.0969 331 165.5 331Z" fill="white" style="mix-blend-mode:soft-light"/>
<mask id="path-3-inside-1_565_5285" fill="white">
<path fill-rule="evenodd" clip-rule="evenodd" d="M170.566 82.5546C172.315 87.7608 172.138 93.1764 170.411 98.0889C174.903 102.1 179.839 106.749 185.19 112.119C198.513 125.488 207.534 136.425 213.394 144.344C216.281 143.276 219.402 142.693 222.659 142.693C237.451 142.693 249.442 154.725 249.442 169.568C249.442 184.41 237.451 196.443 222.659 196.443C207.867 196.443 195.876 184.41 195.876 169.568C195.876 162.651 198.48 156.345 202.757 151.582C196.952 144.119 188.555 134.155 176.807 121.895C172.065 116.947 167.57 112.547 163.372 108.651C160.691 111.092 157.448 113.045 153.757 114.294C152.171 114.83 150.572 115.213 148.978 115.45C148.043 126.231 147.261 141 147.261 160.234C147.261 187.911 148.881 206.343 150.243 216.949C153.987 217.381 157.761 218.586 161.307 220.623C174.124 227.981 179.122 243.4 172.473 255.061C165.823 266.723 150.043 270.211 137.227 262.852C124.41 255.494 119.411 240.075 126.061 228.414C128.676 223.828 132.702 220.506 137.406 218.611C135.762 209.288 133.893 191.798 133.893 160.461C133.893 139.343 134.742 124.448 135.798 114.088C129.089 111.58 123.615 106.346 121.229 99.2441C116.888 86.3238 124.414 72.1137 138.038 67.505C151.662 62.8964 166.226 69.6343 170.566 82.5546Z"/>
</mask>
<path fill-rule="evenodd" clip-rule="evenodd" d="M170.566 82.5546C172.315 87.7608 172.138 93.1764 170.411 98.0889C174.903 102.1 179.839 106.749 185.19 112.119C198.513 125.488 207.534 136.425 213.394 144.344C216.281 143.276 219.402 142.693 222.659 142.693C237.451 142.693 249.442 154.725 249.442 169.568C249.442 184.41 237.451 196.443 222.659 196.443C207.867 196.443 195.876 184.41 195.876 169.568C195.876 162.651 198.48 156.345 202.757 151.582C196.952 144.119 188.555 134.155 176.807 121.895C172.065 116.947 167.57 112.547 163.372 108.651C160.691 111.092 157.448 113.045 153.757 114.294C152.171 114.83 150.572 115.213 148.978 115.45C148.043 126.231 147.261 141 147.261 160.234C147.261 187.911 148.881 206.343 150.243 216.949C153.987 217.381 157.761 218.586 161.307 220.623C174.124 227.981 179.122 243.4 172.473 255.061C165.823 266.723 150.043 270.211 137.227 262.852C124.41 255.494 119.411 240.075 126.061 228.414C128.676 223.828 132.702 220.506 137.406 218.611C135.762 209.288 133.893 191.798 133.893 160.461C133.893 139.343 134.742 124.448 135.798 114.088C129.089 111.58 123.615 106.346 121.229 99.2441C116.888 86.3238 124.414 72.1137 138.038 67.505C151.662 62.8964 166.226 69.6343 170.566 82.5546Z" fill="url(#paint3_linear_565_5285)"/>
<path d="M170.411 98.089L169.467 97.7574L169.245 98.389L169.745 98.8349L170.411 98.089ZM170.566 82.5548L171.514 82.2363L170.566 82.5548ZM185.19 112.119L184.482 112.825L185.19 112.119ZM213.394 144.344L212.59 144.939L213.037 145.542L213.741 145.282L213.394 144.344ZM202.757 151.582L203.501 152.25L204.06 151.628L203.547 150.968L202.757 151.582ZM176.807 121.895L176.085 122.587L176.807 121.895ZM163.372 108.651L164.052 107.918L163.378 107.293L162.699 107.912L163.372 108.651ZM153.757 114.294L154.077 115.241L153.757 114.294ZM148.978 115.45L148.83 114.461L148.05 114.577L147.981 115.364L148.978 115.45ZM150.243 216.949L149.251 217.076L149.35 217.853L150.128 217.942L150.243 216.949ZM161.307 220.623L161.805 219.755V219.755L161.307 220.623ZM172.473 255.061L171.604 254.566H171.604L172.473 255.061ZM137.227 262.853L136.729 263.72L137.227 262.853ZM126.061 228.414L126.93 228.909H126.93L126.061 228.414ZM137.406 218.611L137.779 219.539L138.531 219.236L138.39 218.438L137.406 218.611ZM135.798 114.088L136.793 114.19L136.871 113.422L136.149 113.152L135.798 114.088ZM121.229 99.2442L122.177 98.9258L121.229 99.2442ZM138.038 67.5052L138.358 68.4525L138.038 67.5052ZM171.354 98.4207C173.151 93.3101 173.338 87.6654 171.514 82.2363L169.618 82.8732C171.292 87.8565 171.125 93.043 169.467 97.7574L171.354 98.4207ZM185.899 111.413C180.534 106.03 175.584 101.368 171.077 97.3431L169.745 98.8349C174.222 102.833 179.144 107.469 184.482 112.825L185.899 111.413ZM214.198 143.749C208.308 135.79 199.255 124.815 185.899 111.413L184.482 112.825C197.772 126.16 206.76 137.061 212.59 144.939L214.198 143.749ZM222.659 141.693C219.282 141.693 216.043 142.298 213.047 143.406L213.741 145.282C216.519 144.254 219.522 143.693 222.659 143.693V141.693ZM250.442 169.568C250.442 154.176 238.006 141.693 222.659 141.693V143.693C236.895 143.693 248.442 155.274 248.442 169.568H250.442ZM222.659 197.443C238.006 197.443 250.442 184.959 250.442 169.568H248.442C248.442 183.861 236.895 195.443 222.659 195.443V197.443ZM194.876 169.568C194.876 184.959 207.311 197.443 222.659 197.443V195.443C208.422 195.443 196.876 183.861 196.876 169.568H194.876ZM202.013 150.914C197.577 155.853 194.876 162.395 194.876 169.568H196.876C196.876 162.907 199.382 156.836 203.501 152.25L202.013 150.914ZM176.085 122.587C187.81 134.824 196.185 144.761 201.968 152.196L203.547 150.968C197.719 143.477 189.3 133.487 177.529 121.203L176.085 122.587ZM162.692 109.384C166.875 113.267 171.357 117.653 176.085 122.587L177.529 121.203C172.774 116.241 168.264 111.827 164.052 107.918L162.692 109.384ZM154.077 115.241C157.9 113.948 161.263 111.923 164.045 109.391L162.699 107.912C160.118 110.261 156.995 112.143 153.437 113.347L154.077 115.241ZM149.125 116.439C150.778 116.194 152.435 115.797 154.077 115.241L153.437 113.347C151.907 113.864 150.366 114.233 148.83 114.461L149.125 116.439ZM148.261 160.234C148.261 141.027 149.042 126.287 149.974 115.537L147.981 115.364C147.044 126.175 146.261 140.973 146.261 160.234H148.261ZM151.235 216.822C149.879 206.262 148.261 187.872 148.261 160.234H146.261C146.261 187.95 147.883 206.425 149.251 217.076L151.235 216.822ZM150.128 217.942C153.738 218.359 157.381 219.521 160.809 221.49L161.805 219.755C158.14 217.651 154.236 216.403 150.357 215.956L150.128 217.942ZM160.809 221.49C173.228 228.62 177.937 243.46 171.604 254.566L173.341 255.557C180.308 243.34 175.019 227.342 161.805 219.755L160.809 221.49ZM171.604 254.566C165.272 265.67 150.142 269.115 137.725 261.985L136.729 263.72C149.944 271.307 166.374 267.776 173.341 255.557L171.604 254.566ZM137.725 261.985C125.306 254.855 120.597 240.016 126.93 228.909L125.192 227.919C118.226 240.135 123.515 256.133 136.729 263.72L137.725 261.985ZM126.93 228.909C129.425 224.533 133.27 221.356 137.779 219.539L137.032 217.684C132.135 219.657 127.926 223.124 125.192 227.919L126.93 228.909ZM132.893 160.461C132.893 191.833 134.764 209.385 136.421 218.785L138.39 218.438C136.76 209.192 134.893 191.764 134.893 160.461H132.893ZM134.803 113.987C133.743 124.388 132.893 139.317 132.893 160.461H134.893C134.893 139.369 135.741 124.509 136.793 114.19L134.803 113.987ZM120.281 99.5627C122.77 106.972 128.479 112.419 135.448 115.025L136.149 113.152C129.699 110.74 124.459 105.72 122.177 98.9258L120.281 99.5627ZM137.718 66.5579C123.619 71.3269 115.749 86.0724 120.281 99.5627L122.177 98.9258C118.027 86.5754 125.208 72.9008 138.358 68.4525L137.718 66.5579ZM171.514 82.2363C166.981 68.7442 151.817 61.7885 137.718 66.5579L138.358 68.4525C151.507 64.0045 165.47 70.5247 169.618 82.8732L171.514 82.2363Z" fill="white" style="mix-blend-mode:soft-light" mask="url(#path-3-inside-1_565_5285)"/>
<defs>
<linearGradient id="paint0_linear_565_5285" x1="-37" y1="109" x2="253.256" y2="384.731" gradientUnits="userSpaceOnUse">
<stop stop-color="#F1C6FF"/>
<stop offset="0.104167" stop-color="#DD74FF"/>
<stop offset="0.352245" stop-color="#DD74FF" stop-opacity="0"/>
<stop offset="0.62022" stop-color="#4E032E" stop-opacity="0"/>
<stop offset="0.825426" stop-color="#3C17A7"/>
<stop offset="1" stop-color="#3687FF"/>
</linearGradient>
<radialGradient id="paint1_radial_565_5285" cx="0" cy="0" r="1" gradientUnits="userSpaceOnUse" gradientTransform="translate(368.123 110.086) rotate(138.744) scale(224.838 224.875)">
<stop stop-color="#00A3FF"/>
<stop offset="1" stop-color="#00A3FF" stop-opacity="0"/>
</radialGradient>
<radialGradient id="paint2_radial_565_5285" cx="0" cy="0" r="1" gradientUnits="userSpaceOnUse" gradientTransform="translate(-20.9467 214.12) rotate(42.9991) scale(206.44 206.717)">
<stop stop-color="#00A3FF"/>
<stop offset="1" stop-color="#0D1017" stop-opacity="0"/>
</radialGradient>
<linearGradient id="paint3_linear_565_5285" x1="168.5" y1="104.499" x2="296.875" y2="359.559" gradientUnits="userSpaceOnUse">
<stop stop-color="white"/>
<stop offset="1" stop-color="#B7E1FF" stop-opacity="0.58"/>
</linearGradient>
</defs>
</svg>
