<svg width="188" height="188" viewBox="0 0 188 188" fill="none" xmlns="http://www.w3.org/2000/svg">
<path fill-rule="evenodd" clip-rule="evenodd" d="M180.167 94C180.167 141.589 141.589 180.167 94 180.167C46.4115 180.167 7.83333 141.589 7.83333 94C7.83333 46.4115 46.4115 7.83333 94 7.83333C141.589 7.83333 180.167 46.4115 180.167 94ZM188 94C188 145.915 145.915 188 94 188C42.0852 188 0 145.915 0 94C0 42.0852 42.0852 0 94 0C145.915 0 188 42.0852 188 94ZM98.3519 64.3239C99.6655 62.0982 100.419 59.5028 100.419 56.7313C100.419 48.4694 93.7216 41.7718 85.4597 41.7718C77.1978 41.7718 70.5001 48.4694 70.5001 56.7313C70.5001 63.9687 75.6397 70.0057 82.4681 71.3916V122.853C75.6396 124.239 70.5 130.276 70.5 137.513C70.5 145.775 77.1976 152.473 85.4595 152.473C93.7214 152.473 100.419 145.775 100.419 137.513C100.419 130.276 95.2799 124.239 88.4519 122.853V71.3915C90.3183 71.0126 92.0586 70.2862 93.6022 69.2827L114.796 90.4761C113.271 92.8198 112.386 95.6171 112.386 98.6213C112.386 106.883 119.083 113.581 127.345 113.581C135.607 113.581 142.305 106.883 142.305 98.6213C142.305 90.3594 135.607 83.6618 127.345 83.6618C124.575 83.6618 121.98 84.4148 119.755 85.7274L98.3519 64.3239Z" fill="#0D1017"/>
</svg>
