<svg width="414" height="88" viewBox="0 0 414 88" fill="none" xmlns="http://www.w3.org/2000/svg">
<path d="M66.3386 26.3358C64.146 22.113 61.1007 18.9458 57.2027 16.8344C53.3047 14.6418 48.7976 13.5455 43.6815 13.5455C38.0781 13.5455 33.0838 14.8042 28.6985 17.3217C24.3133 19.8391 20.8619 23.4123 18.3444 28.0412C15.9082 32.6701 14.6901 38.0298 14.6901 44.1205C14.6901 50.2111 15.9082 55.6115 18.3444 60.3216C20.8619 64.9505 24.3133 68.5236 28.6985 71.0411C33.0838 73.5586 38.0781 74.8173 43.6815 74.8173C51.2339 74.8173 57.3651 72.7059 62.0752 68.483C66.7853 64.2602 69.6682 58.535 70.7239 51.3074H38.9308V40.2225H85.585C85.585 40.2225 86.0177 43.4594 86.0177 45.9242C86.0177 48.0359 85.585 51.0638 85.585 51.0638C84.6917 57.6417 82.3367 63.6917 78.5199 69.2139C74.7843 74.7361 69.8712 79.1619 63.7806 82.4915C57.7711 85.7398 51.0714 87.364 43.6815 87.364C35.7231 87.364 28.4549 85.5368 21.877 81.8824C15.2991 78.1468 10.0612 72.9901 6.16318 66.4122C2.34639 59.8343 0.437988 52.4037 0.437988 44.1205C0.437988 35.8372 2.34639 28.4066 6.16318 21.8287C10.0612 15.2509 15.2991 10.1347 21.877 6.48034C28.5361 2.74475 35.8043 0.876953 43.6815 0.876953C52.6956 0.876953 60.6946 3.11019 67.6786 7.57666C74.7437 11.9619 79.8598 18.215 83.027 26.3358H66.3386Z" fill="#F7DEFF"/>
<path d="M110.732 31.452V86.6331H96.8451V31.452H110.732Z" fill="#F7DEFF"/>
<path d="M142.728 30.8429V67.9958C142.728 70.5132 143.297 72.3404 144.434 73.4773C145.652 74.533 147.682 75.0609 150.524 75.0609H159.051V86.6331H148.088C141.835 86.6331 137.044 85.1714 133.714 82.2479C130.385 79.3244 128.72 74.5737 128.72 67.9958V30.8429H120.802V19.5143H128.72V1.92263H142.728V19.5143H159.051V30.8429H142.728Z" fill="#F7DEFF"/>
<path d="M183.301 75.4263H217.418V86.6331H169.414V1.97327H183.301V75.4263Z" fill="#F7DEFF"/>
<path d="M282.619 51.4292C282.619 53.9467 282.456 56.2205 282.132 58.2507H230.848C231.255 63.6105 233.244 67.9146 236.817 71.1629C240.39 74.4112 244.776 76.0354 249.973 76.0354C257.444 76.0354 262.723 72.9089 265.809 66.6558H280.792C278.761 72.8277 275.066 77.9032 269.707 81.8824C264.428 85.7804 257.85 87.7294 249.973 87.7294C243.558 87.7294 237.792 86.3083 232.676 83.466C227.641 80.5425 223.662 76.4821 220.738 71.2847C217.896 66.0062 216.475 59.9155 216.475 53.0128C216.475 46.1101 217.855 40.0601 220.616 34.8627C223.459 29.5842 227.397 25.5237 232.432 22.6814C237.548 19.8391 243.395 18.418 249.973 18.418C256.307 18.418 261.951 19.7985 266.905 22.5596C271.859 25.3207 275.716 29.2187 278.477 34.2536C281.238 39.2074 282.619 44.9326 282.619 51.4292ZM268.123 47.044C268.042 41.9278 266.215 37.8268 262.642 34.7409C259.068 31.655 254.643 30.112 249.364 30.112C244.573 30.112 240.472 31.655 237.061 34.7409C233.65 37.7456 231.62 41.8466 230.97 47.044H268.123Z" fill="#F7DEFF"/>
<path d="M324.051 18.418C329.33 18.418 334.04 19.5143 338.181 21.7069C342.404 23.8996 345.693 27.1479 348.048 31.452C350.403 35.756 351.581 40.9533 351.581 47.044V86.6331H337.816V49.1148C337.816 43.1054 336.314 38.5171 333.309 35.35C330.304 32.1016 326.203 30.4775 321.006 30.4775C315.809 30.4775 311.667 32.1016 308.581 35.35C305.576 38.5171 304.074 43.1054 304.074 49.1148V86.6331H290.187V19.5143H304.074V27.1885C306.348 24.4274 309.231 22.2754 312.723 20.7324C316.296 19.1895 320.072 18.418 324.051 18.418Z" fill="#F7DEFF"/>
<path d="M387.559 87.7294C382.281 87.7294 377.53 86.7955 373.307 84.9277C369.166 82.9787 365.877 80.3801 363.44 77.1317C361.004 73.8022 359.705 70.1072 359.542 66.0468H373.916C374.16 68.8891 375.5 71.2847 377.936 73.2337C380.454 75.1015 383.58 76.0354 387.316 76.0354C391.214 76.0354 394.218 75.3045 396.33 73.8428C398.522 72.2998 399.619 70.3508 399.619 67.9958C399.619 65.4783 398.401 63.6105 395.964 62.3924C393.609 61.1743 389.833 59.8343 384.636 58.3726C379.601 56.992 375.5 55.6521 372.333 54.3527C369.166 53.0534 366.404 51.0638 364.049 48.3839C361.776 45.704 360.639 42.1715 360.639 37.7862C360.639 34.213 361.694 30.9647 363.806 28.0412C365.917 25.0365 368.922 22.6814 372.82 20.9761C376.799 19.2707 381.347 18.418 386.463 18.418C394.097 18.418 400.228 20.367 404.857 24.265C409.567 28.0818 412.084 33.3197 412.409 39.9788H398.522C398.279 36.9741 397.061 34.5785 394.868 32.7919C392.675 31.0053 389.711 30.112 385.976 30.112C382.321 30.112 379.52 30.8023 377.571 32.1828C375.622 33.5634 374.647 35.3906 374.647 37.6644C374.647 39.451 375.297 40.9533 376.596 42.1715C377.895 43.3896 379.479 44.3641 381.347 45.095C383.215 45.7446 385.976 46.5973 389.63 47.653C394.503 48.9524 398.482 50.2923 401.568 51.6729C404.735 52.9722 407.455 54.9212 409.729 57.5199C412.003 60.1185 413.181 63.5699 413.262 67.874C413.262 71.6908 412.206 75.1015 410.095 78.1062C407.983 81.1109 404.978 83.466 401.08 85.1714C397.264 86.8767 392.757 87.7294 387.559 87.7294Z" fill="#F7DEFF"/>
<path d="M113.806 11.9093C113.806 17.3971 109.358 21.846 103.87 21.846C98.3819 21.846 93.9331 17.3971 93.9331 11.9093C93.9331 6.4214 98.3819 1.9726 103.87 1.9726C109.358 1.9726 113.806 6.4214 113.806 11.9093Z" fill="#F7DEFF"/>
</svg>
