<svg width="637" height="188" viewBox="0 0 637 188" fill="none" xmlns="http://www.w3.org/2000/svg">
<path fill-rule="evenodd" clip-rule="evenodd" d="M180.167 94C180.167 141.589 141.589 180.167 94 180.167C46.4115 180.167 7.83333 141.589 7.83333 94C7.83333 46.4115 46.4115 7.83333 94 7.83333C141.589 7.83333 180.167 46.4115 180.167 94ZM188 94C188 145.915 145.915 188 94 188C42.0852 188 0 145.915 0 94C0 42.0852 42.0852 0 94 0C145.915 0 188 42.0852 188 94ZM98.3519 64.3239C99.6655 62.0982 100.419 59.5028 100.419 56.7313C100.419 48.4694 93.7216 41.7718 85.4597 41.7718C77.1978 41.7718 70.5001 48.4694 70.5001 56.7313C70.5001 63.9687 75.6397 70.0057 82.4681 71.3916V122.853C75.6396 124.239 70.5 130.276 70.5 137.513C70.5 145.775 77.1976 152.473 85.4595 152.473C93.7214 152.473 100.419 145.775 100.419 137.513C100.419 130.276 95.2799 124.239 88.4519 122.853V71.3915C90.3183 71.0126 92.0586 70.2862 93.6022 69.2827L114.796 90.4761C113.271 92.8198 112.386 95.6171 112.386 98.6213C112.386 106.883 119.083 113.581 127.345 113.581C135.607 113.581 142.305 106.883 142.305 98.6213C142.305 90.3594 135.607 83.6618 127.345 83.6618C124.575 83.6618 121.98 84.4148 119.755 85.7274L98.3519 64.3239Z" fill="url(#paint0_linear_431_6031)"/>
<path d="M289.901 76.4589C287.708 72.236 284.663 69.0689 280.765 66.9575C276.867 64.7648 272.36 63.6685 267.243 63.6685C261.64 63.6685 256.646 64.9273 252.261 67.4447C247.875 69.9622 244.424 73.5354 241.906 78.1642C239.47 82.7931 238.252 88.1529 238.252 94.2435C238.252 100.334 239.47 105.735 241.906 110.445C244.424 115.074 247.875 118.647 252.261 121.164C256.646 123.682 261.64 124.94 267.243 124.94C274.796 124.94 280.927 122.829 285.637 118.606C290.347 114.383 293.23 108.658 294.286 101.43H262.493V90.3455H309.147C309.147 90.3455 309.58 93.5824 309.58 96.0473C309.58 98.1589 309.147 101.187 309.147 101.187C308.254 107.765 305.899 113.815 302.082 119.337C298.346 124.859 293.433 129.285 287.343 132.615C281.333 135.863 274.633 137.487 267.243 137.487C259.285 137.487 252.017 135.66 245.439 132.005C238.861 128.27 233.623 123.113 229.725 116.535C225.908 109.957 224 102.527 224 94.2435C224 85.9603 225.908 78.5297 229.725 71.9518C233.623 65.3739 238.861 60.2578 245.439 56.6034C252.098 52.8678 259.366 51 267.243 51C276.258 51 284.257 53.2332 291.241 57.6997C298.306 62.085 303.422 68.338 306.589 76.4589H289.901Z" fill="#F7DEFF"/>
<path d="M334.294 81.575V136.756H320.407V81.575H334.294Z" fill="#F7DEFF"/>
<path d="M366.29 80.9659V118.119C366.29 120.636 366.859 122.463 367.996 123.6C369.214 124.656 371.244 125.184 374.086 125.184H382.613V136.756H371.65C365.397 136.756 360.606 135.294 357.276 132.371C353.947 129.447 352.282 124.697 352.282 118.119V80.9659H344.364V69.6374H352.282V52.0457H366.29V69.6374H382.613V80.9659H366.29Z" fill="#F7DEFF"/>
<path d="M406.863 125.549H440.98V136.756H392.976V52.0963H406.863V125.549Z" fill="#F7DEFF"/>
<path d="M506.181 101.552C506.181 104.07 506.018 106.344 505.694 108.374H454.41C454.817 113.734 456.806 118.038 460.379 121.286C463.952 124.534 468.338 126.158 473.535 126.158C481.006 126.158 486.285 123.032 489.371 116.779H504.354C502.323 122.951 498.628 128.026 493.269 132.005C487.99 135.903 481.412 137.852 473.535 137.852C467.12 137.852 461.354 136.431 456.238 133.589C451.203 130.666 447.224 126.605 444.3 121.408C441.458 116.129 440.037 110.039 440.037 103.136C440.037 96.2331 441.417 90.1831 444.178 84.9858C447.021 79.7072 450.959 75.6468 455.994 72.8045C461.11 69.9622 466.957 68.541 473.535 68.541C479.869 68.541 485.513 69.9216 490.467 72.6827C495.421 75.4438 499.278 79.3418 502.039 84.3767C504.8 89.3304 506.181 95.0556 506.181 101.552ZM491.685 97.167C491.604 92.0509 489.777 87.9499 486.204 84.8639C482.63 81.778 478.205 80.2351 472.926 80.2351C468.135 80.2351 464.034 81.778 460.623 84.8639C457.212 87.8687 455.182 91.9697 454.532 97.167H491.685Z" fill="#F7DEFF"/>
<path d="M547.613 68.541C552.892 68.541 557.602 69.6374 561.743 71.83C565.966 74.0226 569.255 77.2709 571.61 81.575C573.965 85.8791 575.143 91.0764 575.143 97.167V136.756H561.378V99.2378C561.378 93.2284 559.876 88.6401 556.871 85.473C553.866 82.2247 549.765 80.6005 544.568 80.6005C539.371 80.6005 535.229 82.2247 532.143 85.473C529.138 88.6401 527.636 93.2284 527.636 99.2378V136.756H513.749V69.6374H527.636V77.3116C529.91 74.5505 532.793 72.3984 536.285 70.8555C539.858 69.3125 543.634 68.541 547.613 68.541Z" fill="#F7DEFF"/>
<path d="M611.121 137.852C605.843 137.852 601.092 136.919 596.869 135.051C592.728 133.102 589.439 130.503 587.002 127.255C584.566 123.925 583.267 120.23 583.104 116.17H597.478C597.722 119.012 599.062 121.408 601.498 123.357C604.016 125.225 607.142 126.158 610.878 126.158C614.776 126.158 617.78 125.428 619.892 123.966C622.084 122.423 623.181 120.474 623.181 118.119C623.181 115.601 621.963 113.734 619.526 112.515C617.171 111.297 613.395 109.957 608.198 108.496C603.163 107.115 599.062 105.775 595.895 104.476C592.728 103.176 589.966 101.187 587.611 98.507C585.338 95.8271 584.201 92.2945 584.201 87.9093C584.201 84.3361 585.256 81.0877 587.368 78.1642C589.479 75.1595 592.484 72.8045 596.382 71.0991C600.361 69.3937 604.909 68.541 610.025 68.541C617.659 68.541 623.79 70.49 628.419 74.388C633.129 78.2048 635.646 83.4428 635.971 90.1019H622.084C621.841 87.0972 620.623 84.7015 618.43 82.9149C616.237 81.1284 613.273 80.2351 609.538 80.2351C605.883 80.2351 603.082 80.9253 601.133 82.3059C599.184 83.6864 598.209 85.5136 598.209 87.7875C598.209 89.574 598.859 91.0764 600.158 92.2945C601.457 93.5126 603.041 94.4872 604.909 95.218C606.777 95.8677 609.538 96.7204 613.192 97.7761C618.065 99.0754 622.044 100.415 625.13 101.796C628.297 103.095 631.017 105.044 633.291 107.643C635.565 110.242 636.743 113.693 636.824 117.997C636.824 121.814 635.768 125.225 633.657 128.229C631.545 131.234 628.54 133.589 624.642 135.294C620.826 137 616.319 137.852 611.121 137.852Z" fill="#F7DEFF"/>
<path d="M337.368 62.0323C337.368 67.5202 332.92 71.969 327.432 71.969C321.944 71.969 317.495 67.5202 317.495 62.0323C317.495 56.5444 321.944 52.0956 327.432 52.0956C332.92 52.0956 337.368 56.5444 337.368 62.0323Z" fill="#F7DEFF"/>
<defs>
<linearGradient id="paint0_linear_431_6031" x1="33.2917" y1="-1.59182e-08" x2="160.82" y2="185.317" gradientUnits="userSpaceOnUse">
<stop stop-color="#F2BDFF"/>
<stop offset="1" stop-color="#8F00FF"/>
</linearGradient>
</defs>
</svg>
