<svg width="553" height="87" viewBox="0 0 553 87" fill="none" xmlns="http://www.w3.org/2000/svg">
<path fill-rule="evenodd" clip-rule="evenodd" d="M62.0987 26.7879C60.1931 23.2943 57.5729 20.6344 54.2381 18.8082C50.9033 16.982 47.0128 16.0689 42.5664 16.0689C37.6436 16.0689 33.2766 17.1805 29.4654 19.4037C25.6543 21.6269 22.6768 24.8029 20.533 28.9316C18.3892 33.0604 17.3173 37.8244 17.3173 43.2236C17.3173 48.7815 18.3892 53.6249 20.533 57.7537C22.7562 61.8825 25.8131 65.0585 29.7036 67.2817C33.5942 69.5048 38.12 70.6164 43.281 70.6164C49.6329 70.6164 54.8336 68.949 58.883 65.6143C62.9324 62.2001 65.5923 57.4758 66.8627 51.4414H38.2788V38.6978H83.2984C83.2984 38.6978 83.8407 40.3795 83.8407 45.9011C83.8407 51.4228 83.2984 53.2279 83.2984 53.2279C82.1868 59.0241 79.8048 64.3836 76.1524 69.3063C72.5 74.2291 67.7758 78.1991 61.9796 81.2163C56.2628 84.1541 49.8314 85.623 42.6855 85.623C34.6661 85.623 27.4011 83.8365 20.8903 80.2635C14.4589 76.6111 9.37735 71.5692 5.64557 65.1379C1.99318 58.7065 0.166992 51.4017 0.166992 43.2236C0.166992 35.0454 1.99318 27.7407 5.64557 21.3093C9.37735 14.7985 14.4589 9.75664 20.8903 6.18366C27.4011 2.53127 34.6264 0.705078 42.5664 0.705078C51.9355 0.705078 60.074 3.00767 66.9818 7.61284C73.8895 12.1386 78.6535 18.5303 81.2737 26.7879H62.0987ZM108.227 30.203V84.9084H91.5535V30.203H108.227ZM140.034 64.5424V32.6237H154.802V18.9273H140.034V1.76119H123.241V18.9273H115.38V32.6237H123.241V64.4233C123.241 78.08 130.267 84.9084 144.321 84.9084H154.802V70.8546H147.06C144.52 70.8546 142.693 70.3782 141.582 69.4254C140.55 68.3932 140.034 66.7656 140.034 64.5424ZM211.338 84.9084L181.087 47.8684V84.9084H164.413V1.77698H181.087V39.0551L211.338 1.77698H231.466L197.165 42.9854L232.418 84.9084H211.338ZM261.767 20.952C258.353 22.937 255.574 25.6763 253.43 29.1698V18.9273H236.756V84.9084H253.43V52.0369C253.43 45.9231 254.74 41.6356 257.361 39.1742C260.06 36.7128 264.03 35.4821 269.271 35.4821H273.677V17.9745C269.231 17.9745 265.261 18.967 261.767 20.952ZM278.238 51.6796C278.238 45.0101 279.548 39.0948 282.169 33.9338C284.868 28.7728 288.481 24.8029 293.007 22.0239C297.612 19.2449 302.733 17.8554 308.37 17.8554C313.293 17.8554 317.581 18.8479 321.233 20.8329C324.965 22.8179 327.943 25.319 330.166 28.3361V18.9273H346.959V84.9084H330.166V75.2613C328.022 78.3579 325.044 80.9384 321.233 83.0028C317.501 84.9878 313.174 85.9803 308.251 85.9803C302.693 85.9803 297.612 84.5511 293.007 81.6927C288.481 78.8343 284.868 74.8246 282.169 69.6637C279.548 64.4233 278.238 58.4286 278.238 51.6796ZM330.166 51.9178C330.166 47.8684 329.372 44.4146 327.784 41.5562C326.196 38.6184 324.052 36.3952 321.352 34.8866C318.653 33.2986 315.755 32.5046 312.658 32.5046C309.562 32.5046 306.703 33.2589 304.083 34.7675C301.463 36.2761 299.319 38.4993 297.652 41.4371C296.064 44.2955 295.27 47.7097 295.27 51.6796C295.27 55.6496 296.064 59.1432 297.652 62.1604C299.319 65.0982 301.463 67.3611 304.083 68.9491C306.783 70.537 309.641 71.331 312.658 71.331C315.755 71.331 318.653 70.5767 321.352 69.0681C324.052 67.4802 326.196 65.257 327.784 62.3986C329.372 59.4608 330.166 55.9672 330.166 51.9178ZM358.313 84.9084H374.987V56.8009L397.378 84.9084H419.054L389.755 52.0369L418.816 18.9273H397.14L374.987 46.9156V1.02221H358.313V84.9084ZM526.376 17.9745C534.236 17.9745 540.588 20.4756 545.432 25.4778C550.275 30.4005 552.697 37.3083 552.697 46.201V84.9084H536.023V48.4639C536.023 43.2236 534.713 39.2139 532.093 36.4349C529.472 33.5765 525.899 32.1473 521.374 32.1473C516.768 32.1473 513.116 33.5765 510.417 36.4349C507.796 39.2139 506.486 43.2236 506.486 48.4639V84.9084H489.812V18.9273H506.486V27.1452C508.709 24.2868 511.528 22.0636 514.942 20.4756C518.436 18.8082 522.247 17.9745 526.376 17.9745ZM99.9809 20.8335C105.376 20.8335 109.75 16.4597 109.75 11.0645C109.75 5.66917 105.376 1.29543 99.9809 1.29543C94.5856 1.29543 90.2118 5.66917 90.2118 11.0645C90.2118 16.4597 94.5856 20.8335 99.9809 20.8335ZM450.49 17.3467C461.849 18.0458 470.833 23.5763 477.42 32.8483L438.327 68.0474C445.788 75.266 456.545 73.3398 463.1 67.2797C468.76 62.183 470.28 56.2223 468.947 50.2958L480.887 39.5449C483.391 46.9505 483.564 54.0794 481.937 60.4538C480.388 66.9157 476.872 72.6154 471.831 77.1547C456.884 90.6132 435.394 88.2673 423.345 74.8861C411.06 61.2426 411.062 39.5452 425.744 26.3256C432.997 19.7954 441.806 16.7729 450.49 17.3467ZM434.574 35.9539C425.994 43.6786 426.819 54.0214 430.629 59.1423L458.136 34.3755C453.599 30.2258 442.985 28.2214 434.574 35.9539Z" fill="#FFFCC3"/>
</svg>
