<svg width="331" height="331" viewBox="0 0 331 331" fill="none" xmlns="http://www.w3.org/2000/svg">
<path fill-rule="evenodd" clip-rule="evenodd" d="M0 165.5C0 74.2398 74.2398 0 165.5 0C256.76 0 331 74.2398 331 165.5C331 256.76 256.76 331 165.5 331C74.2398 331 0 256.76 0 165.5ZM291.959 116.735C291.449 115.346 290.458 114.189 289.181 113.457L289.143 113.448C287.866 112.726 286.365 112.466 284.912 112.726C283.458 112.994 282.143 113.763 281.198 114.892C280.254 116.022 279.744 117.458 279.744 118.939C279.754 119.689 279.883 120.421 280.142 121.143C285.347 134.978 287.977 149.498 287.967 164.287C287.967 194.216 277.087 223.025 257.325 245.398C237.953 267.335 211.45 281.578 182.585 285.597V229.785C185.521 229.183 188.438 228.405 191.281 227.451V275.753L192.429 275.475C216.922 269.521 239.119 255.334 254.917 235.508C271.197 215.08 279.809 190.456 279.809 164.296C279.837 143.859 274.373 123.755 264.002 106.151C253.639 88.5377 238.703 74.0083 220.821 64.1183C220.062 63.7108 219.256 63.4608 218.404 63.3775C217.552 63.2941 216.709 63.3867 215.895 63.646C215.08 63.9053 214.339 64.322 213.691 64.8776C213.042 65.4425 212.524 66.1093 212.144 66.8871C211.727 67.7483 211.505 68.7021 211.505 69.6559C211.505 70.7764 211.801 71.8784 212.366 72.8415C212.931 73.8046 213.746 74.6102 214.728 75.1566C230.655 83.9538 243.953 96.8812 253.195 112.55C262.437 128.218 267.317 146.118 267.317 164.305C267.317 185.15 261.057 205.19 249.195 222.275C237.888 238.573 222.303 251.102 204.06 258.584V217.682C207.014 216.645 209.607 214.83 211.616 212.413C213.765 209.82 215.098 206.681 215.487 203.338C215.876 199.985 215.283 196.624 213.774 193.614C212.357 190.781 210.209 188.41 207.542 186.725C209.985 164.284 217.125 159.848 222.356 156.598L222.367 156.592C225.479 154.665 228.164 152.999 228.164 148.146V141.238C228.164 134.08 221.053 117.374 205.162 96.2052C183.159 66.8964 170.612 63.8312 167.315 63.5905C166.079 63.465 165.007 63.5216 163.823 63.5841L163.704 63.5905C160.379 63.8312 147.831 66.8964 125.801 96.2052C109.883 117.374 102.762 134.08 102.762 141.238V148.128C102.762 152.98 105.447 154.647 108.558 156.573C113.791 159.814 120.939 164.25 123.384 186.697C120.986 188.197 118.986 190.281 117.578 192.744C116.078 195.383 115.3 198.383 115.328 201.411C115.328 208.57 120.041 215.163 126.875 217.673V258.584C108.633 251.111 93.0567 238.582 81.7406 222.275C69.8875 205.199 63.609 185.15 63.609 164.315C63.609 127.301 83.7779 93.1401 116.244 75.1566C117.458 74.4806 118.421 73.4156 118.967 72.1377C119.513 70.8598 119.625 69.4244 119.273 68.0817C118.93 66.7389 118.134 65.5351 117.041 64.6832C115.948 63.8312 114.587 63.3589 113.198 63.3589H113.189C112.142 63.3589 111.105 63.6275 110.198 64.1368C92.3066 74.0175 77.3605 88.5469 66.9797 106.151C56.5989 123.755 51.1168 143.868 51.1354 164.305C51.1354 190.475 59.7474 215.098 76.027 235.526C91.8344 255.353 114.022 269.539 138.516 275.494L139.664 275.772V227.479C142.507 228.433 145.424 229.22 148.359 229.813V285.625C119.495 281.596 92.9919 267.345 73.6193 245.416C53.8579 223.043 42.9678 194.244 42.9678 164.305C42.9585 149.517 45.5977 134.997 50.8205 121.162C51.1076 120.384 51.2372 119.569 51.2094 118.745C51.1817 117.921 50.9872 117.115 50.6446 116.365C50.3019 115.615 49.8204 114.948 49.2092 114.383C48.598 113.818 47.9035 113.383 47.1256 113.096C46.3478 112.809 45.5329 112.679 44.7087 112.707C43.8845 112.735 43.0789 112.929 42.3288 113.272C41.5787 113.615 40.912 114.096 40.3471 114.707C39.7822 115.318 39.347 116.022 39.0599 116.791C31.6054 136.71 28.9477 158.416 31.3646 179.548C33.7816 200.68 41.2824 221.219 53.043 238.943C64.8036 256.668 80.8239 271.558 99.3537 281.995C117.893 292.431 138.923 298.413 160.175 299.284L161.138 299.321V231.415C163 231.498 165.352 231.544 165.5 231.544C165.534 231.542 165.75 231.537 166.083 231.529C166.92 231.51 168.503 231.474 169.834 231.415V299.321L170.797 299.284C192.049 298.385 213.07 292.394 231.6 281.948C250.13 271.493 266.141 256.612 277.901 238.888C289.662 221.164 297.172 200.634 299.598 179.502C302.034 158.37 299.385 136.663 291.959 116.735ZM141.332 206.983C142.628 205.047 143.211 202.714 142.989 200.399C142.767 198.083 141.739 195.907 140.1 194.259C139.165 193.314 138.063 192.574 136.831 192.064C135.6 191.555 134.303 191.296 132.979 191.296H132.97C130.645 191.296 128.376 192.111 126.58 193.583C124.783 195.055 123.543 197.12 123.089 199.408C122.635 201.686 122.987 204.075 124.08 206.121C125.172 208.168 126.96 209.788 129.108 210.687C131.256 211.576 133.664 211.696 135.887 211.029C138.109 210.353 140.054 208.927 141.341 206.992L141.332 206.983ZM206.949 196.7C205.856 194.644 204.078 193.024 201.93 192.135C200.698 191.616 199.374 191.357 198.05 191.357C197.077 191.357 196.096 191.496 195.151 191.783C192.929 192.45 190.984 193.885 189.688 195.811C188.391 197.737 187.799 200.08 188.021 202.386C188.243 204.701 189.262 206.877 190.901 208.526C191.836 209.47 192.938 210.211 194.17 210.729C195.401 211.239 196.698 211.498 198.031 211.498H198.041C200.365 211.498 202.624 210.692 204.421 209.22C206.217 207.748 207.458 205.683 207.921 203.405C208.375 201.127 208.032 198.737 206.94 196.691L206.949 196.7Z" fill="#FFFCC3"/>
<path fill-rule="evenodd" clip-rule="evenodd" d="M0 165.5C0 74.2398 74.2398 0 165.5 0C256.76 0 331 74.2398 331 165.5C331 256.76 256.76 331 165.5 331C74.2398 331 0 256.76 0 165.5ZM291.959 116.735C291.449 115.346 290.458 114.189 289.181 113.457L289.143 113.448C287.866 112.726 286.365 112.466 284.912 112.726C283.458 112.994 282.143 113.763 281.198 114.892C280.254 116.022 279.744 117.458 279.744 118.939C279.754 119.689 279.883 120.421 280.142 121.143C285.347 134.978 287.977 149.498 287.967 164.287C287.967 194.216 277.087 223.025 257.325 245.398C237.953 267.335 211.45 281.578 182.585 285.597V229.785C185.521 229.183 188.438 228.405 191.281 227.451V275.753L192.429 275.475C216.922 269.521 239.119 255.334 254.917 235.508C271.197 215.08 279.809 190.456 279.809 164.296C279.837 143.859 274.373 123.755 264.002 106.151C253.639 88.5377 238.703 74.0083 220.821 64.1183C220.062 63.7108 219.256 63.4608 218.404 63.3775C217.552 63.2941 216.709 63.3867 215.895 63.646C215.08 63.9053 214.339 64.322 213.691 64.8776C213.042 65.4425 212.524 66.1093 212.144 66.8871C211.727 67.7483 211.505 68.7021 211.505 69.6559C211.505 70.7764 211.801 71.8784 212.366 72.8415C212.931 73.8046 213.746 74.6102 214.728 75.1566C230.655 83.9538 243.953 96.8812 253.195 112.55C262.437 128.218 267.317 146.118 267.317 164.305C267.317 185.15 261.057 205.19 249.195 222.275C237.888 238.573 222.303 251.102 204.06 258.584V217.682C207.014 216.645 209.607 214.83 211.616 212.413C213.765 209.82 215.098 206.681 215.487 203.338C215.876 199.985 215.283 196.624 213.774 193.614C212.357 190.781 210.209 188.41 207.542 186.725C209.985 164.284 217.125 159.848 222.356 156.598L222.367 156.592C225.479 154.665 228.164 152.999 228.164 148.146V141.238C228.164 134.08 221.053 117.374 205.162 96.2052C183.159 66.8964 170.612 63.8312 167.315 63.5905C166.079 63.465 165.007 63.5216 163.823 63.5841L163.704 63.5905C160.379 63.8312 147.831 66.8964 125.801 96.2052C109.883 117.374 102.762 134.08 102.762 141.238V148.128C102.762 152.98 105.447 154.647 108.558 156.573C113.791 159.814 120.939 164.25 123.384 186.697C120.986 188.197 118.986 190.281 117.578 192.744C116.078 195.383 115.3 198.383 115.328 201.411C115.328 208.57 120.041 215.163 126.875 217.673V258.584C108.633 251.111 93.0567 238.582 81.7406 222.275C69.8875 205.199 63.609 185.15 63.609 164.315C63.609 127.301 83.7779 93.1401 116.244 75.1566C117.458 74.4806 118.421 73.4156 118.967 72.1377C119.513 70.8598 119.625 69.4244 119.273 68.0817C118.93 66.7389 118.134 65.5351 117.041 64.6832C115.948 63.8312 114.587 63.3589 113.198 63.3589H113.189C112.142 63.3589 111.105 63.6275 110.198 64.1368C92.3066 74.0175 77.3605 88.5469 66.9797 106.151C56.5989 123.755 51.1168 143.868 51.1354 164.305C51.1354 190.475 59.7474 215.098 76.027 235.526C91.8344 255.353 114.022 269.539 138.516 275.494L139.664 275.772V227.479C142.507 228.433 145.424 229.22 148.359 229.813V285.625C119.495 281.596 92.9919 267.345 73.6193 245.416C53.8579 223.043 42.9678 194.244 42.9678 164.305C42.9585 149.517 45.5977 134.997 50.8205 121.162C51.1076 120.384 51.2372 119.569 51.2094 118.745C51.1817 117.921 50.9872 117.115 50.6446 116.365C50.3019 115.615 49.8204 114.948 49.2092 114.383C48.598 113.818 47.9035 113.383 47.1256 113.096C46.3478 112.809 45.5329 112.679 44.7087 112.707C43.8845 112.735 43.0789 112.929 42.3288 113.272C41.5787 113.615 40.912 114.096 40.3471 114.707C39.7822 115.318 39.347 116.022 39.0599 116.791C31.6054 136.71 28.9477 158.416 31.3646 179.548C33.7816 200.68 41.2824 221.219 53.043 238.943C64.8036 256.668 80.8239 271.558 99.3537 281.995C117.893 292.431 138.923 298.413 160.175 299.284L161.138 299.321V231.415C163 231.498 165.352 231.544 165.5 231.544C165.534 231.542 165.75 231.537 166.083 231.529C166.92 231.51 168.503 231.474 169.834 231.415V299.321L170.797 299.284C192.049 298.385 213.07 292.394 231.6 281.948C250.13 271.493 266.141 256.612 277.901 238.888C289.662 221.164 297.172 200.634 299.598 179.502C302.034 158.37 299.385 136.663 291.959 116.735ZM141.332 206.983C142.628 205.047 143.211 202.714 142.989 200.399C142.767 198.083 141.739 195.907 140.1 194.259C139.165 193.314 138.063 192.574 136.831 192.064C135.6 191.555 134.303 191.296 132.979 191.296H132.97C130.645 191.296 128.376 192.111 126.58 193.583C124.783 195.055 123.543 197.12 123.089 199.408C122.635 201.686 122.987 204.075 124.08 206.121C125.172 208.168 126.96 209.788 129.108 210.687C131.256 211.576 133.664 211.696 135.887 211.029C138.109 210.353 140.054 208.927 141.341 206.992L141.332 206.983ZM206.949 196.7C205.856 194.644 204.078 193.024 201.93 192.135C200.698 191.616 199.374 191.357 198.05 191.357C197.077 191.357 196.096 191.496 195.151 191.783C192.929 192.45 190.984 193.885 189.688 195.811C188.391 197.737 187.799 200.08 188.021 202.386C188.243 204.701 189.262 206.877 190.901 208.526C191.836 209.47 192.938 210.211 194.17 210.729C195.401 211.239 196.698 211.498 198.031 211.498H198.041C200.365 211.498 202.624 210.692 204.421 209.22C206.217 207.748 207.458 205.683 207.921 203.405C208.375 201.127 208.032 198.737 206.94 196.691L206.949 196.7Z" fill="url(#paint0_radial_565_5283)"/>
<path fill-rule="evenodd" clip-rule="evenodd" d="M0 165.5C0 74.2398 74.2398 0 165.5 0C256.76 0 331 74.2398 331 165.5C331 256.76 256.76 331 165.5 331C74.2398 331 0 256.76 0 165.5ZM291.959 116.735C291.449 115.346 290.458 114.189 289.181 113.457L289.143 113.448C287.866 112.726 286.365 112.466 284.912 112.726C283.458 112.994 282.143 113.763 281.198 114.892C280.254 116.022 279.744 117.458 279.744 118.939C279.754 119.689 279.883 120.421 280.142 121.143C285.347 134.978 287.977 149.498 287.967 164.287C287.967 194.216 277.087 223.025 257.325 245.398C237.953 267.335 211.45 281.578 182.585 285.597V229.785C185.521 229.183 188.438 228.405 191.281 227.451V275.753L192.429 275.475C216.922 269.521 239.119 255.334 254.917 235.508C271.197 215.08 279.809 190.456 279.809 164.296C279.837 143.859 274.373 123.755 264.002 106.151C253.639 88.5377 238.703 74.0083 220.821 64.1183C220.062 63.7108 219.256 63.4608 218.404 63.3775C217.552 63.2941 216.709 63.3867 215.895 63.646C215.08 63.9053 214.339 64.322 213.691 64.8776C213.042 65.4425 212.524 66.1093 212.144 66.8871C211.727 67.7483 211.505 68.7021 211.505 69.6559C211.505 70.7764 211.801 71.8784 212.366 72.8415C212.931 73.8046 213.746 74.6102 214.728 75.1566C230.655 83.9538 243.953 96.8812 253.195 112.55C262.437 128.218 267.317 146.118 267.317 164.305C267.317 185.15 261.057 205.19 249.195 222.275C237.888 238.573 222.303 251.102 204.06 258.584V217.682C207.014 216.645 209.607 214.83 211.616 212.413C213.765 209.82 215.098 206.681 215.487 203.338C215.876 199.985 215.283 196.624 213.774 193.614C212.357 190.781 210.209 188.41 207.542 186.725C209.985 164.284 217.125 159.848 222.356 156.598L222.367 156.592C225.479 154.665 228.164 152.999 228.164 148.146V141.238C228.164 134.08 221.053 117.374 205.162 96.2052C183.159 66.8964 170.612 63.8312 167.315 63.5905C166.079 63.465 165.007 63.5216 163.823 63.5841L163.704 63.5905C160.379 63.8312 147.831 66.8964 125.801 96.2052C109.883 117.374 102.762 134.08 102.762 141.238V148.128C102.762 152.98 105.447 154.647 108.558 156.573C113.791 159.814 120.939 164.25 123.384 186.697C120.986 188.197 118.986 190.281 117.578 192.744C116.078 195.383 115.3 198.383 115.328 201.411C115.328 208.57 120.041 215.163 126.875 217.673V258.584C108.633 251.111 93.0567 238.582 81.7406 222.275C69.8875 205.199 63.609 185.15 63.609 164.315C63.609 127.301 83.7779 93.1401 116.244 75.1566C117.458 74.4806 118.421 73.4156 118.967 72.1377C119.513 70.8598 119.625 69.4244 119.273 68.0817C118.93 66.7389 118.134 65.5351 117.041 64.6832C115.948 63.8312 114.587 63.3589 113.198 63.3589H113.189C112.142 63.3589 111.105 63.6275 110.198 64.1368C92.3066 74.0175 77.3605 88.5469 66.9797 106.151C56.5989 123.755 51.1168 143.868 51.1354 164.305C51.1354 190.475 59.7474 215.098 76.027 235.526C91.8344 255.353 114.022 269.539 138.516 275.494L139.664 275.772V227.479C142.507 228.433 145.424 229.22 148.359 229.813V285.625C119.495 281.596 92.9919 267.345 73.6193 245.416C53.8579 223.043 42.9678 194.244 42.9678 164.305C42.9585 149.517 45.5977 134.997 50.8205 121.162C51.1076 120.384 51.2372 119.569 51.2094 118.745C51.1817 117.921 50.9872 117.115 50.6446 116.365C50.3019 115.615 49.8204 114.948 49.2092 114.383C48.598 113.818 47.9035 113.383 47.1256 113.096C46.3478 112.809 45.5329 112.679 44.7087 112.707C43.8845 112.735 43.0789 112.929 42.3288 113.272C41.5787 113.615 40.912 114.096 40.3471 114.707C39.7822 115.318 39.347 116.022 39.0599 116.791C31.6054 136.71 28.9477 158.416 31.3646 179.548C33.7816 200.68 41.2824 221.219 53.043 238.943C64.8036 256.668 80.8239 271.558 99.3537 281.995C117.893 292.431 138.923 298.413 160.175 299.284L161.138 299.321V231.415C163 231.498 165.352 231.544 165.5 231.544C165.534 231.542 165.75 231.537 166.083 231.529C166.92 231.51 168.503 231.474 169.834 231.415V299.321L170.797 299.284C192.049 298.385 213.07 292.394 231.6 281.948C250.13 271.493 266.141 256.612 277.901 238.888C289.662 221.164 297.172 200.634 299.598 179.502C302.034 158.37 299.385 136.663 291.959 116.735ZM141.332 206.983C142.628 205.047 143.211 202.714 142.989 200.399C142.767 198.083 141.739 195.907 140.1 194.259C139.165 193.314 138.063 192.574 136.831 192.064C135.6 191.555 134.303 191.296 132.979 191.296H132.97C130.645 191.296 128.376 192.111 126.58 193.583C124.783 195.055 123.543 197.12 123.089 199.408C122.635 201.686 122.987 204.075 124.08 206.121C125.172 208.168 126.96 209.788 129.108 210.687C131.256 211.576 133.664 211.696 135.887 211.029C138.109 210.353 140.054 208.927 141.341 206.992L141.332 206.983ZM206.949 196.7C205.856 194.644 204.078 193.024 201.93 192.135C200.698 191.616 199.374 191.357 198.05 191.357C197.077 191.357 196.096 191.496 195.151 191.783C192.929 192.45 190.984 193.885 189.688 195.811C188.391 197.737 187.799 200.08 188.021 202.386C188.243 204.701 189.262 206.877 190.901 208.526C191.836 209.47 192.938 210.211 194.17 210.729C195.401 211.239 196.698 211.498 198.031 211.498H198.041C200.365 211.498 202.624 210.692 204.421 209.22C206.217 207.748 207.458 205.683 207.921 203.405C208.375 201.127 208.032 198.737 206.94 196.691L206.949 196.7Z" fill="url(#paint1_radial_565_5283)"/>
<defs>
<radialGradient id="paint0_radial_565_5283" cx="0" cy="0" r="1" gradientUnits="userSpaceOnUse" gradientTransform="translate(376.5 -35) rotate(103.784) scale(413.406)">
<stop stop-color="#00F0FF"/>
<stop offset="1" stop-color="white" stop-opacity="0"/>
</radialGradient>
<radialGradient id="paint1_radial_565_5283" cx="0" cy="0" r="1" gradientUnits="userSpaceOnUse" gradientTransform="translate(-5.00002 331) rotate(-1.7168) scale(367.165)">
<stop stop-color="#FF7A00"/>
<stop offset="1" stop-color="white" stop-opacity="0"/>
</radialGradient>
</defs>
</svg>
