<svg width="300" height="332" viewBox="0 0 300 332" fill="none" xmlns="http://www.w3.org/2000/svg">
<path fill-rule="evenodd" clip-rule="evenodd" d="M128.075 5.85982C141.642 -1.95327 158.358 -1.95327 171.925 5.85982L278.075 66.9907C291.642 74.8038 300 89.243 300 104.869V227.131C300 242.757 291.642 257.196 278.075 265.009L171.925 326.14C158.358 333.953 141.642 333.953 128.075 326.14L21.9247 265.009C8.35767 257.196 8.88482e-06 242.757 8.88482e-06 227.131V104.869C8.88482e-06 89.243 8.35767 74.8038 21.9247 66.9907L128.075 5.85982Z" fill="#00183C"/>
<path fill-rule="evenodd" clip-rule="evenodd" d="M128.075 5.85982C141.642 -1.95327 158.358 -1.95327 171.925 5.85982L278.075 66.9907C291.642 74.8038 300 89.243 300 104.869V227.131C300 242.757 291.642 257.196 278.075 265.009L171.925 326.14C158.358 333.953 141.642 333.953 128.075 326.14L21.9247 265.009C8.35767 257.196 8.88482e-06 242.757 8.88482e-06 227.131V104.869C8.88482e-06 89.243 8.35767 74.8038 21.9247 66.9907L128.075 5.85982Z" fill="url(#paint0_radial_700_4941)"/>
<path fill-rule="evenodd" clip-rule="evenodd" d="M128.075 5.85982C141.642 -1.95327 158.358 -1.95327 171.925 5.85982L278.075 66.9907C291.642 74.8038 300 89.243 300 104.869V227.131C300 242.757 291.642 257.196 278.075 265.009L171.925 326.14C158.358 333.953 141.642 333.953 128.075 326.14L21.9247 265.009C8.35767 257.196 8.88482e-06 242.757 8.88482e-06 227.131V104.869C8.88482e-06 89.243 8.35767 74.8038 21.9247 66.9907L128.075 5.85982Z" fill="url(#paint1_radial_700_4941)"/>
<path fill-rule="evenodd" clip-rule="evenodd" d="M131.584 11.922C142.98 5.35934 157.02 5.35934 168.416 11.922L274.566 73.0529C285.962 79.6155 292.982 91.7438 292.982 104.869V227.131C292.982 240.256 285.962 252.385 274.566 258.947L168.416 320.078C157.02 326.641 142.98 326.641 131.584 320.078L25.4336 258.947C14.0379 252.384 7.01779 240.256 7.01779 227.131V104.869C7.01779 91.7438 14.0379 79.6155 25.4336 73.0529L131.584 11.922ZM171.925 5.85982C158.358 -1.95327 141.642 -1.95327 128.075 5.85982L21.9247 66.9907C8.35768 74.8038 8.88482e-06 89.243 8.88482e-06 104.869V227.131C8.88482e-06 242.757 8.35768 257.196 21.9247 265.009L128.075 326.14C141.642 333.953 158.358 333.953 171.925 326.14L278.075 265.009C291.642 257.196 300 242.757 300 227.131V104.869C300 89.243 291.642 74.8038 278.075 66.9907L171.925 5.85982Z" fill="white" style="mix-blend-mode:soft-light"/>
<g filter="url(#filter0_d_700_4941)">
<path fill-rule="evenodd" clip-rule="evenodd" d="M144.702 91.497C146.111 89.7654 148.377 88 151.544 88C154.289 88 156.237 89.497 157.391 90.7873C158.543 92.0754 159.399 93.6774 160.068 95.237C161.423 98.3941 162.529 102.632 163.487 107.328C165.418 116.794 166.972 129.317 168.446 141.588C168.559 142.522 168.67 143.454 168.782 144.384C170.15 155.794 171.47 166.805 172.992 175.185C173.717 179.175 174.453 182.361 175.194 184.625C175.543 183.92 175.91 183.035 176.284 181.945C177.773 177.602 178.842 171.656 179.994 165.172L180.042 164.904C181.136 158.747 182.317 152.097 184.073 146.978C184.96 144.391 186.126 141.778 187.794 139.732C189.535 137.597 192.174 135.695 195.77 135.695C199.096 135.695 201.606 137.356 203.325 139.188C204.986 140.957 206.24 143.212 207.243 145.388C208.598 148.329 209.864 152.019 211.052 155.484C211.575 157.009 212.084 158.49 212.578 159.846C214.08 163.963 216.949 165.988 220.915 166.804C225.194 167.684 230.716 167.091 236.522 165.395C239.18 164.618 241.984 166.079 242.785 168.656C243.586 171.234 242.08 173.954 239.422 174.73C232.813 176.661 225.431 177.7 218.829 176.341C211.913 174.919 205.923 170.835 203.1 163.098C202.445 161.302 201.855 159.577 201.292 157.934C200.201 154.745 199.215 151.864 198.064 149.366C197.219 147.531 196.483 146.383 195.89 145.751C195.855 145.713 195.822 145.679 195.791 145.649C195.757 145.687 195.721 145.73 195.681 145.778C195.082 146.514 194.36 147.875 193.613 150.055C192.123 154.398 191.054 160.344 189.902 166.828L189.854 167.096C188.761 173.253 187.579 179.903 185.824 185.022C184.936 187.609 183.77 190.222 182.102 192.268C180.362 194.403 177.723 196.305 174.126 196.305C171.155 196.305 169.265 194.444 168.338 193.239C167.347 191.952 166.622 190.373 166.055 188.848C164.901 185.743 163.941 181.553 163.091 176.877C161.514 168.198 160.161 156.901 158.806 145.598C158.691 144.637 158.576 143.676 158.46 142.717C156.974 130.349 155.463 118.233 153.625 109.22C152.849 105.416 152.053 102.369 151.253 100.168C151.184 100.348 151.114 100.538 151.044 100.738C149.805 104.249 148.75 109.557 147.864 116.34C146.101 129.825 145.148 147.899 144.217 166.24C144.186 166.863 144.154 167.487 144.122 168.111C143.231 185.71 142.334 203.404 140.708 216.842C139.871 223.761 138.807 229.856 137.344 234.319C136.621 236.521 135.692 238.676 134.402 240.374C133.11 242.076 130.892 244 127.646 244C125.101 244 123.085 242.849 121.666 241.5C120.307 240.208 119.3 238.571 118.521 236.957C116.959 233.72 115.767 229.407 114.787 224.688C112.811 215.174 111.426 202.605 110.118 190.349C110.045 189.665 109.972 188.982 109.9 188.301C108.655 176.617 107.455 165.352 105.864 156.838C105.067 152.567 104.221 149.281 103.34 147.08C103.04 147.626 102.714 148.287 102.364 149.074C101.334 151.388 100.419 153.993 99.4058 156.875C98.7757 158.668 98.1078 160.569 97.3511 162.574C94.3559 170.511 88.1694 174.714 81.032 176.224C74.1926 177.671 66.5346 176.672 59.6379 174.747C56.9699 174.003 55.4296 171.302 56.1974 168.714C56.9652 166.127 59.7504 164.633 62.4183 165.378C68.5213 167.081 74.34 167.66 78.8896 166.698C83.1411 165.799 86.2559 163.606 87.91 159.223C88.4832 157.704 89.0751 156.027 89.6787 154.317C90.8037 151.129 91.9696 147.825 93.1328 145.211C94.0546 143.139 95.1793 140.992 96.6203 139.297C98.051 137.615 100.401 135.695 103.748 135.695C106.415 135.695 108.395 137.047 109.662 138.402C110.888 139.713 111.776 141.348 112.456 142.932C113.827 146.129 114.879 150.402 115.757 155.1C117.419 163.998 118.656 175.615 119.882 187.133C119.961 187.871 120.04 188.609 120.118 189.346C121.44 201.729 122.781 213.798 124.643 222.763C125.517 226.973 126.449 230.199 127.412 232.362C127.526 232.061 127.643 231.729 127.763 231.363C128.923 227.827 129.901 222.497 130.723 215.705C132.308 202.605 133.19 185.198 134.092 167.419C134.12 166.866 134.148 166.314 134.176 165.76C135.1 147.539 136.069 129.05 137.89 115.114C138.795 108.185 139.948 102.068 141.532 97.5807C142.315 95.3609 143.32 93.1952 144.702 91.497ZM104.666 145.205C104.666 145.205 104.659 145.211 104.646 145.22C104.659 145.209 104.666 145.205 104.666 145.205ZM196.091 145.37C196.091 145.37 196.079 145.38 196.056 145.391C196.079 145.373 196.091 145.37 196.091 145.37ZM195.499 145.4C195.48 145.392 195.47 145.384 195.47 145.384C195.47 145.384 195.48 145.387 195.499 145.4ZM173.806 186.63C173.806 186.63 173.818 186.62 173.841 186.609C173.817 186.626 173.806 186.63 173.806 186.63ZM176.406 187.421C176.417 187.434 176.423 187.442 176.423 187.442C176.423 187.442 176.417 187.436 176.406 187.421Z" fill="white"/>
</g>
<defs>
<filter id="filter0_d_700_4941" x="6" y="42" width="287" height="256" filterUnits="userSpaceOnUse" color-interpolation-filters="sRGB">
<feFlood flood-opacity="0" result="BackgroundImageFix"/>
<feColorMatrix in="SourceAlpha" type="matrix" values="0 0 0 0 0 0 0 0 0 0 0 0 0 0 0 0 0 0 127 0" result="hardAlpha"/>
<feOffset dy="4"/>
<feGaussianBlur stdDeviation="25"/>
<feComposite in2="hardAlpha" operator="out"/>
<feColorMatrix type="matrix" values="0 0 0 0 0 0 0 0 0 0 0 0 0 0 0 0 0 0 1 0"/>
<feBlend mode="normal" in2="BackgroundImageFix" result="effect1_dropShadow_700_4941"/>
<feBlend mode="normal" in="SourceGraphic" in2="effect1_dropShadow_700_4941" result="shape"/>
</filter>
<radialGradient id="paint0_radial_700_4941" cx="0" cy="0" r="1" gradientUnits="userSpaceOnUse" gradientTransform="translate(2.74144 82.5) rotate(44.9273) scale(253.466 252.145)">
<stop offset="0.129764" stop-color="#FF79B1" stop-opacity="0.66"/>
<stop offset="1" stop-color="#CA04C2" stop-opacity="0"/>
</radialGradient>
<radialGradient id="paint1_radial_700_4941" cx="0" cy="0" r="1" gradientUnits="userSpaceOnUse" gradientTransform="translate(276.136 259.847) rotate(-135.073) scale(209.014 227.617)">
<stop offset="0.00476085" stop-color="#49A8FF" stop-opacity="0.86"/>
<stop offset="0.421437" stop-color="#0085FF" stop-opacity="0.33"/>
<stop offset="1" stop-color="#0D1017" stop-opacity="0"/>
</radialGradient>
</defs>
</svg>
