<svg width="1205" height="118" viewBox="0 0 1205 118" fill="none" xmlns="http://www.w3.org/2000/svg">
<path fill-rule="evenodd" clip-rule="evenodd" d="M533.265 21.9118C530.206 21.9118 527.64 20.8827 525.568 18.8246C523.495 16.7664 522.459 14.2182 522.459 11.18C522.459 8.14178 523.495 5.5936 525.568 3.53545C527.64 1.47729 530.206 0.448242 533.265 0.448242C536.225 0.448242 538.742 1.47729 540.814 3.53545C542.886 5.5936 543.922 8.14178 543.922 11.18C543.922 14.2182 542.886 16.7664 540.814 18.8246C538.742 20.8827 536.225 21.9118 533.265 21.9118ZM540.002 84.5671V29.9245H526.251V84.5671H540.002ZM1068.87 19.8246C1070.95 21.8827 1073.51 22.9118 1076.57 22.9118C1079.53 22.9118 1082.05 21.8827 1084.12 19.8246C1086.19 17.7664 1087.23 15.2182 1087.23 12.18C1087.23 9.14178 1086.19 6.5936 1084.12 4.53545C1082.05 2.47729 1079.53 1.44824 1076.57 1.44824C1073.51 1.44824 1070.95 2.47729 1068.87 4.53545C1066.8 6.5936 1065.77 9.14178 1065.77 12.18C1065.77 15.2182 1066.8 17.7664 1068.87 19.8246ZM871.65 39.3587H859.346V85.5671H845.475V39.3587H837.634V28.1407H845.475V23.4363C845.475 15.7968 847.485 10.2481 851.506 6.79023C855.607 3.25193 862 1.48279 870.685 1.48279V12.942C866.503 12.942 863.568 13.7462 861.88 15.3545C860.191 16.8824 859.346 19.5764 859.346 23.4363V28.1407H871.65V39.3587ZM910.253 86.6527C903.981 86.6527 898.312 85.2454 893.246 82.4309C888.179 79.5359 884.199 75.5151 881.304 70.3685C878.409 65.1415 876.961 59.1103 876.961 52.2749C876.961 45.52 878.449 39.529 881.424 34.302C884.4 29.0749 888.461 25.0541 893.607 22.2396C898.754 19.425 904.504 18.0177 910.857 18.0177C917.209 18.0177 922.959 19.425 928.106 22.2396C933.252 25.0541 937.313 29.0749 940.289 34.302C943.264 39.529 944.752 45.52 944.752 52.2749C944.752 59.0299 943.224 65.0209 940.168 70.2479C937.112 75.4749 932.931 79.5359 927.623 82.4309C922.396 85.2454 916.606 86.6527 910.253 86.6527ZM910.253 74.711C913.792 74.711 917.089 73.8666 920.145 72.1779C923.281 70.4891 925.814 67.956 927.744 64.5786C929.674 61.2011 930.639 57.0999 930.639 52.2749C930.639 47.45 929.714 43.389 927.865 40.0919C926.015 36.7145 923.562 34.1814 920.506 32.4926C917.451 30.8039 914.154 29.9595 910.615 29.9595C907.077 29.9595 903.78 30.8039 900.724 32.4926C897.749 34.1814 895.377 36.7145 893.607 40.0919C891.838 43.389 890.954 47.45 890.954 52.2749C890.954 59.432 892.763 64.9806 896.382 68.921C900.081 72.781 904.705 74.711 910.253 74.711ZM977.645 20.9127C974.348 22.7623 971.695 25.3758 969.684 28.7533V19.1034H955.933V85.5671H969.684V50.5862C969.684 43.8313 971.051 39.0867 973.785 36.3526C976.6 33.6184 980.701 32.2514 986.089 32.2514H989.587V18.0177C985.003 18.0177 981.023 18.9827 977.645 20.9127ZM1056.38 1.73353V62.1661C1056.38 69.6448 1054.09 75.5553 1049.5 79.8978C1045 84.2402 1039.05 86.4115 1031.65 86.4115C1024.25 86.4115 1018.26 84.2402 1013.68 79.8978C1009.17 75.5553 1006.92 69.6448 1006.92 62.1661H1020.79C1020.87 65.8652 1021.8 68.8004 1023.57 70.9716C1025.42 73.1429 1028.11 74.2285 1031.65 74.2285C1035.19 74.2285 1037.88 73.1429 1039.73 70.9716C1041.58 68.72 1042.51 65.7848 1042.51 62.1661V1.73353H1056.38ZM1083.31 85.5671V30.9245H1069.56V85.5671H1083.31ZM1110.44 28.7533C1112.45 25.3758 1115.11 22.7623 1118.4 20.9127C1121.78 18.9827 1125.76 18.0177 1130.34 18.0177V32.2514H1126.85C1121.46 32.2514 1117.36 33.6184 1114.54 36.3526C1111.81 39.0867 1110.44 43.8313 1110.44 50.5862V85.5671H1096.69V19.1034H1110.44V28.7533ZM1140.09 34.302C1137.36 39.4486 1135.99 45.3592 1135.99 52.0337C1135.99 58.7082 1137.36 64.6992 1140.09 70.0066C1142.9 75.2337 1146.68 79.3349 1151.43 82.3103C1156.17 85.2052 1161.4 86.6527 1167.11 86.6527C1172.26 86.6527 1176.84 85.6073 1180.86 83.5165C1184.88 81.4257 1188.06 78.8122 1190.39 75.676V85.5671H1204.26V19.1034H1190.39V28.7533C1188.06 25.6975 1184.92 23.1644 1180.98 21.154C1177.12 19.0632 1172.58 18.0177 1167.35 18.0177C1161.56 18.0177 1156.25 19.4652 1151.43 22.3602C1146.68 25.1748 1142.9 29.1554 1140.09 34.302ZM1187.5 40.3332C1189.43 43.7106 1190.39 47.6912 1190.39 52.2749C1190.39 56.8587 1189.43 60.8794 1187.5 64.3373C1185.65 67.7148 1183.19 70.2881 1180.14 72.0572C1177.08 73.8264 1173.78 74.711 1170.25 74.711C1166.79 74.711 1163.49 73.8264 1160.35 72.0572C1157.3 70.2077 1154.81 67.554 1152.88 64.0961C1151.03 60.6382 1150.1 56.6174 1150.1 52.0337C1150.1 47.45 1151.03 43.5096 1152.88 40.2126C1154.81 36.8351 1157.3 34.302 1160.35 32.6132C1163.41 30.8441 1166.71 29.9595 1170.25 29.9595C1173.78 29.9595 1177.08 30.8441 1180.14 32.6132C1183.19 34.3824 1185.65 36.9557 1187.5 40.3332ZM58.9364 12.6683V1.47363H0.555664V12.6683H22.945V85.1327H36.6675V12.6683H58.9364ZM119.483 57.0858C119.804 55.0796 119.965 52.8326 119.965 50.3449C119.965 43.9251 118.601 38.2675 115.872 33.3724C113.144 28.397 109.332 24.5451 104.437 21.8166C99.5415 19.0882 93.9643 17.7239 87.7049 17.7239C81.2048 17.7239 75.4269 19.1283 70.3712 21.937C65.3958 24.7457 61.5038 28.7581 58.6951 33.9743C55.9666 39.1102 54.6024 45.0887 54.6024 51.9098C54.6024 58.7309 56.0068 64.7495 58.8155 69.9657C61.7044 75.1016 65.6366 79.114 70.612 82.003C75.6676 84.8117 81.3653 86.216 87.7049 86.216C95.489 86.216 101.989 84.29 107.205 80.4381C112.502 76.5059 116.153 71.4904 118.159 65.3915H103.353C100.304 71.5707 95.0878 74.6602 87.7049 74.6602C82.569 74.6602 78.2356 73.0553 74.7047 69.8453C71.1737 66.6354 69.2076 62.3822 68.8064 57.0858H119.483ZM100.224 33.8539C103.755 36.9033 105.56 40.9559 105.64 46.0115H68.9268C69.5688 40.8756 71.575 36.8231 74.9454 33.8539C78.3158 30.8044 82.3684 29.2797 87.103 29.2797C92.3192 29.2797 96.6927 30.8044 100.224 33.8539ZM126.487 51.669C126.487 45.0084 127.852 39.1102 130.58 33.9743C133.389 28.8384 137.161 24.8661 141.895 22.0574C146.71 19.1684 152.007 17.7239 157.784 17.7239C163.001 17.7239 167.535 18.7672 171.386 20.8536C175.319 22.8598 178.448 25.3877 180.776 28.4371V18.8073H194.618V85.1327H180.776V75.2621C178.448 78.3918 175.279 80.9999 171.266 83.0863C167.254 85.1728 162.68 86.216 157.544 86.216C151.846 86.216 146.63 84.7715 141.895 81.8826C137.161 78.9134 133.389 74.8207 130.58 69.6046C127.852 64.3082 126.487 58.3297 126.487 51.669ZM180.776 51.9098C180.776 47.3356 179.813 43.3633 177.887 39.9929C176.041 36.6225 173.593 34.0545 170.544 32.289C167.494 30.5236 164.204 29.6408 160.673 29.6408C157.142 29.6408 153.852 30.5236 150.803 32.289C147.753 33.9743 145.266 36.5021 143.34 39.8725C141.494 43.1627 140.571 47.0949 140.571 51.669C140.571 56.2432 141.494 60.2556 143.34 63.7063C145.266 67.157 147.753 69.8052 150.803 71.6509C153.932 73.4164 157.223 74.2991 160.673 74.2991C164.204 74.2991 167.494 73.4164 170.544 71.6509C173.593 69.8854 176.041 67.3175 177.887 63.947C179.813 60.4964 180.776 56.4839 180.776 51.9098ZM304.487 20.974C300.394 18.8073 295.74 17.7239 290.523 17.7239C285.628 17.7239 281.054 18.9277 276.801 21.3351C272.548 23.6623 269.418 26.8321 267.412 30.8446C265.165 26.5914 261.955 23.3413 257.782 21.0944C253.609 18.8474 248.875 17.7239 243.578 17.7239C239.646 17.7239 235.954 18.4863 232.504 20.011C229.053 21.5357 226.204 23.6623 223.957 26.3908V18.8073H210.235V85.1327H223.957V48.0579C223.957 42.1195 225.442 37.5854 228.411 34.4557C231.461 31.2458 235.553 29.6408 240.689 29.6408C245.825 29.6408 249.878 31.2458 252.847 34.4557C255.816 37.5854 257.301 42.1195 257.301 48.0579V85.1327H270.903V48.0579C270.903 42.1195 272.387 37.5854 275.357 34.4557C278.406 31.2458 282.499 29.6408 287.635 29.6408C292.77 29.6408 296.823 31.2458 299.792 34.4557C302.761 37.5854 304.246 42.1195 304.246 48.0579V85.1327H317.848V46.0115C317.848 39.9929 316.644 34.857 314.237 30.6038C311.91 26.3507 308.66 23.1407 304.487 20.974ZM373.227 1.47363V85.1327H359.504V1.47363H373.227ZM436.262 20.974C432.17 18.8073 427.515 17.7239 422.299 17.7239C418.367 17.7239 414.635 18.4863 411.104 20.011C407.654 21.5357 404.805 23.6623 402.558 26.3908V18.8073H388.836V85.1327H402.558V48.0579C402.558 42.1195 404.043 37.5854 407.012 34.4557C410.061 31.2458 414.154 29.6408 419.29 29.6408C424.426 29.6408 428.478 31.2458 431.447 34.4557C434.417 37.5854 435.901 42.1195 435.901 48.0579V85.1327H449.503V46.0115C449.503 39.9929 448.34 34.857 446.013 30.6038C443.685 26.3507 440.435 23.1407 436.262 20.974ZM488.674 86.216C483.458 86.216 478.764 85.2931 474.591 83.4474C470.498 81.5215 467.248 78.9535 464.841 75.7436C462.433 72.4534 461.149 68.8021 460.989 64.7897H475.193C475.433 67.5984 476.757 69.9657 479.165 71.8916C481.653 73.7374 484.742 74.6602 488.434 74.6602C492.285 74.6602 495.255 73.938 497.341 72.4935C499.508 70.9688 500.591 69.0428 500.591 66.7156C500.591 64.2279 499.387 62.3822 496.98 61.1785C494.653 59.9748 490.921 58.6507 485.785 57.2062C480.81 55.842 476.757 54.5179 473.628 53.2339C470.498 51.9499 467.77 49.9838 465.442 47.3356C463.195 44.6874 462.072 41.1966 462.072 36.8632C462.072 33.3323 463.115 30.1223 465.202 27.2334C467.288 24.2642 470.257 21.937 474.109 20.2518C478.041 18.5666 482.535 17.7239 487.591 17.7239C495.134 17.7239 501.193 19.6499 505.767 23.5018C510.422 27.2735 512.909 32.4495 513.23 39.0299H499.508C499.267 36.0607 498.063 33.6934 495.897 31.9279C493.73 30.1625 490.801 29.2797 487.109 29.2797C483.498 29.2797 480.73 29.9618 478.804 31.3261C476.878 32.6903 475.915 34.4959 475.915 36.7428C475.915 38.5083 476.557 39.9929 477.841 41.1966C479.125 42.4003 480.69 43.3633 482.535 44.0856C484.381 44.7276 487.109 45.5702 490.721 46.6134C495.536 47.8974 499.468 49.2215 502.517 50.5857C505.647 51.8697 508.335 53.7956 510.582 56.3636C512.829 58.9315 513.993 62.3421 514.073 66.5953C514.073 70.3669 513.03 73.7374 510.943 76.7066C508.857 79.6758 505.888 82.003 502.036 83.6882C498.264 85.3734 493.81 86.216 488.674 86.216ZM596.149 20.8536C592.217 18.7672 587.683 17.7239 582.547 17.7239C576.769 17.7239 571.473 19.1684 566.658 22.0574C561.923 24.8661 558.152 28.8384 555.343 33.9743C552.614 39.1102 551.25 45.0084 551.25 51.669C551.25 58.3297 552.614 64.3082 555.343 69.6046C558.152 74.8207 561.923 78.9134 566.658 81.8826C571.473 84.7715 576.769 86.216 582.547 86.216C587.603 86.216 592.097 85.1728 596.029 83.0863C600.041 80.9196 603.211 78.2714 605.538 75.1417V86.216C605.538 92.6359 603.813 97.531 600.362 100.901C596.992 104.272 592.538 105.957 587.001 105.957C582.266 105.957 578.174 104.874 574.723 102.707C571.352 100.621 569.146 97.852 568.102 94.4013H554.5C555.303 101.624 558.673 107.321 564.612 111.494C570.55 115.747 578.013 117.874 587.001 117.874C593.742 117.874 599.52 116.51 604.335 113.781C609.23 111.053 612.961 107.281 615.529 102.466C618.097 97.7317 619.381 92.3149 619.381 86.216V18.8073H605.538V28.4371C603.291 25.3877 600.162 22.8598 596.149 20.8536ZM602.649 39.9929C604.575 43.3633 605.538 47.3356 605.538 51.9098C605.538 56.4839 604.575 60.4964 602.649 63.947C600.804 67.3175 598.356 69.8854 595.307 71.6509C592.257 73.4164 588.967 74.2991 585.436 74.2991C581.985 74.2991 578.695 73.4164 575.566 71.6509C572.516 69.8052 570.028 67.157 568.102 63.7063C566.257 60.2556 565.334 56.2432 565.334 51.669C565.334 47.0949 566.257 43.1627 568.102 39.8725C570.028 36.5021 572.516 33.9743 575.566 32.289C578.615 30.5236 581.905 29.6408 585.436 29.6408C588.967 29.6408 592.257 30.5236 595.307 32.289C598.356 34.0545 600.804 36.6225 602.649 39.9929ZM669.304 17.7239C674.36 17.7239 678.853 18.8073 682.786 20.974C686.798 23.1407 689.928 26.3507 692.175 30.6038C694.502 34.857 695.665 39.9929 695.665 46.0115V85.1327H682.063V48.0579C682.063 42.1195 680.579 37.5854 677.61 34.4557C674.64 31.2458 670.588 29.6408 665.452 29.6408C660.316 29.6408 656.223 31.2458 653.174 34.4557C650.205 37.5854 648.72 42.1195 648.72 48.0579V85.1327H634.998V2.05687H648.72V26.5112C651.047 23.7025 653.976 21.5357 657.507 20.011C661.119 18.4863 665.051 17.7239 669.304 17.7239ZM726.771 66.7156V30.002H742.901V18.8073H726.771V2.31624H712.929V18.8073H705.104V30.002H712.929V66.7156C712.929 73.2158 714.574 77.9103 717.864 80.7992C721.154 83.6882 725.889 85.1327 732.068 85.1327H742.901V73.6972H734.475C731.667 73.6972 729.661 73.1756 728.457 72.1324C727.333 71.0089 726.771 69.2033 726.771 66.7156ZM777.216 86.216C772 86.216 767.305 85.2931 763.133 83.4474C759.04 81.5215 755.79 78.9535 753.382 75.7436C750.975 72.4534 749.691 68.8021 749.53 64.7897H763.734C763.975 67.5984 765.299 69.9657 767.707 71.8916C770.194 73.7374 773.284 74.6602 776.975 74.6602C780.827 74.6602 783.797 73.938 785.883 72.4935C788.05 70.9688 789.133 69.0428 789.133 66.7156C789.133 64.2279 787.929 62.3822 785.522 61.1785C783.195 59.9748 779.463 58.6507 774.327 57.2062C769.352 55.842 765.299 54.5179 762.17 53.2339C759.04 51.9499 756.311 49.9838 753.984 47.3356C751.737 44.6874 750.614 41.1966 750.614 36.8632C750.614 33.3323 751.657 30.1223 753.743 27.2334C755.83 24.2642 758.799 21.937 762.651 20.2518C766.583 18.5666 771.077 17.7239 776.133 17.7239C783.676 17.7239 789.735 19.6499 794.309 23.5018C798.963 27.2735 801.451 32.4495 801.772 39.0299H788.05C787.809 36.0607 786.605 33.6934 784.438 31.9279C782.272 30.1625 779.343 29.2797 775.651 29.2797C772.04 29.2797 769.272 29.9618 767.346 31.3261C765.42 32.6903 764.457 34.4959 764.457 36.7428C764.457 38.5083 765.099 39.9929 766.383 41.1966C767.667 42.4003 769.231 43.3633 771.077 44.0856C772.923 44.7276 775.651 45.5702 779.263 46.6134C784.077 47.8974 788.01 49.2215 791.059 50.5857C794.189 51.8697 796.877 53.7956 799.124 56.3636C801.371 58.9315 802.535 62.3421 802.615 66.5953C802.615 70.3669 801.572 73.7374 799.485 76.7066C797.399 79.6758 794.429 82.003 790.578 83.6882C786.806 85.3734 782.352 86.216 777.216 86.216Z" fill="#FFE5EE"/>
</svg>
