<svg width="1426" height="188" viewBox="0 0 1426 188" fill="none" xmlns="http://www.w3.org/2000/svg">
<path fill-rule="evenodd" clip-rule="evenodd" d="M93.3932 9.75299L153.35 44.3693C158.714 47.4662 162.019 53.1897 162.019 59.3837V128.616C162.019 134.81 158.714 140.534 153.35 143.631L93.3932 178.247C88.029 181.344 81.4201 181.344 76.0559 178.247L16.0988 143.631C10.7347 140.534 7.43024 134.81 7.43024 128.616V59.3837C7.43024 53.1897 10.7347 47.4662 16.0989 44.3693L76.0559 9.75299C81.4201 6.65599 88.029 6.65599 93.3932 9.75299ZM72.3408 3.31821C80.0039 -1.10607 89.4452 -1.10607 97.1083 3.31821L157.065 37.9345C164.728 42.3588 169.449 50.5352 169.449 59.3837V128.616C169.449 137.465 164.728 145.641 157.065 150.066L97.1083 184.682C89.4452 189.106 80.0039 189.106 72.3408 184.682L12.3837 150.066C4.72065 145.641 0 137.465 0 128.616V59.3837C0 50.5352 4.72065 42.3588 12.3837 37.9345L72.3408 3.31821ZM85.7379 50.7605C83.9785 50.7605 82.7196 51.7413 81.9366 52.7033C81.1686 53.6467 80.6104 54.8499 80.1752 56.083C79.2954 58.5758 78.6548 61.9744 78.1518 65.8233C77.1398 73.5656 76.6019 83.8369 76.0882 93.9598L76.0414 94.8812C75.5407 104.759 75.0505 114.428 74.1697 121.706C73.7131 125.479 73.1696 128.441 72.5252 130.405C72.4586 130.608 72.3934 130.793 72.3302 130.96C71.795 129.758 71.2773 127.966 70.7916 125.627C69.7571 120.647 69.012 113.942 68.2776 107.062L68.1466 105.833L68.1466 105.833C67.4652 99.4341 66.7779 92.9806 65.8546 88.0377C65.367 85.4274 64.782 83.0537 64.0202 81.2779C63.6426 80.3977 63.1495 79.4893 62.4684 78.761C61.7643 78.0082 60.664 77.2572 59.1825 77.2572C57.3226 77.2572 56.017 78.324 55.2221 79.2585C54.4214 80.1997 53.7965 81.3929 53.2844 82.5437C52.6381 83.9959 51.9903 85.8314 51.3653 87.6023C51.0299 88.5526 50.701 89.4843 50.3825 90.3282C49.4635 92.7631 47.7329 93.9812 45.3708 94.4808C42.8429 95.0154 39.6101 94.6935 36.2192 93.7472C34.7369 93.3335 33.1894 94.1634 32.7628 95.6008C32.3362 97.0382 33.1921 98.5388 34.6744 98.9525C38.5063 100.022 42.7611 100.577 46.5611 99.7729C50.5267 98.9342 53.964 96.5991 55.6281 92.1898C56.0485 91.0759 56.4196 90.0199 56.7697 89.0238C57.3325 87.4223 57.841 85.9753 58.4131 84.6899C58.6078 84.2524 58.7889 83.8856 58.9556 83.5823C59.4449 84.8048 59.9149 86.6301 60.3582 89.0031C61.2418 93.7332 61.9086 99.9914 62.6001 106.482L62.6001 106.482L62.7214 107.62C63.4482 114.428 64.2179 121.411 65.3157 126.697C65.8602 129.318 66.5221 131.715 67.3901 133.513C67.823 134.409 68.3823 135.319 69.1374 136.036C69.9263 136.786 71.046 137.425 72.4602 137.425C74.2638 137.425 75.4957 136.356 76.2141 135.411C76.9307 134.468 77.4469 133.27 77.8483 132.047C78.6615 129.568 79.2523 126.182 79.7175 122.338C80.6209 114.873 81.1191 105.043 81.6146 95.266V95.2658L81.6673 94.2261C82.1843 84.0369 82.7141 73.9961 83.6933 66.5044C84.1858 62.7363 84.7717 59.7874 85.4601 57.8369C85.4993 57.7258 85.538 57.6203 85.5762 57.5203C86.0211 58.7432 86.463 60.4357 86.8942 62.5493C87.9156 67.5565 88.755 74.2872 89.5808 81.1582C89.6439 81.6831 89.7069 82.2089 89.77 82.7347L89.7728 82.7588L89.7729 82.7593C90.5255 89.0386 91.2776 95.3143 92.1536 100.135C92.6256 102.734 93.1592 105.061 93.8005 106.786C94.1152 107.633 94.5185 108.511 95.0687 109.225C95.5838 109.895 96.6342 110.929 98.285 110.929C100.283 110.929 101.749 109.872 102.716 108.686C103.643 107.549 104.291 106.098 104.784 104.66C105.759 101.816 106.416 98.1221 107.024 94.702L107.05 94.5529C107.69 90.9506 108.284 87.6476 109.112 85.235C109.527 84.0237 109.928 83.2674 110.261 82.859C110.283 82.832 110.303 82.8081 110.322 82.7869C110.339 82.804 110.357 82.8229 110.377 82.8438C110.707 83.1947 111.115 83.8329 111.585 84.852C112.224 86.2399 112.772 87.8405 113.379 89.6118L113.379 89.6119L113.379 89.612C113.691 90.5248 114.019 91.483 114.383 92.4807C115.951 96.7789 119.279 99.0477 123.122 99.8381C126.79 100.593 130.892 100.015 134.563 98.943C136.04 98.5117 136.877 97.0009 136.432 95.5687C135.987 94.1366 134.429 93.3253 132.952 93.7567C129.726 94.699 126.658 95.0284 124.281 94.5394C122.078 94.0862 120.484 92.9615 119.649 90.6741C119.374 89.9214 119.092 89.0986 118.802 88.2519L118.801 88.2508C118.141 86.3256 117.438 84.2762 116.685 82.6421C116.127 81.4331 115.43 80.1804 114.508 79.1975C113.553 78.1801 112.158 77.2572 110.31 77.2572C108.312 77.2572 106.846 78.3137 105.879 79.5001C104.952 80.6368 104.304 82.088 103.811 83.5256C102.836 86.3694 102.179 90.0638 101.572 93.4838V93.4839L101.545 93.633C100.905 97.2353 100.311 100.538 99.4837 102.951C99.2759 103.557 99.0718 104.049 98.878 104.44C98.4662 103.182 98.0575 101.413 97.6547 99.1956C96.8089 94.5403 96.0755 88.4235 95.3156 82.0851L95.3155 82.0845L95.3067 82.0106C95.2477 81.5186 95.1885 81.0252 95.1291 80.5311C94.3098 73.7142 93.4466 66.7569 92.3739 61.4982C91.8416 58.889 91.2267 56.5349 90.4742 54.781C90.1024 53.9146 89.6269 53.0246 88.9867 52.309C88.3454 51.5922 87.263 50.7605 85.7379 50.7605ZM59.681 82.5486C59.6884 82.5436 59.692 82.5403 59.692 82.5403C59.692 82.5403 59.6905 82.5412 59.6875 82.5434C59.6858 82.5447 59.6837 82.5464 59.681 82.5486ZM110.469 82.6436C110.482 82.6376 110.488 82.6319 110.488 82.6319C110.488 82.6319 110.486 82.6328 110.48 82.636C110.478 82.6377 110.474 82.6402 110.469 82.6436ZM110.16 82.6485C110.149 82.6441 110.144 82.6401 110.144 82.6401C110.144 82.6401 110.149 82.6417 110.16 82.6485ZM98.1263 105.542C98.1134 105.548 98.1069 105.554 98.1069 105.554C98.1069 105.554 98.1093 105.553 98.1142 105.55C98.1173 105.549 98.1213 105.546 98.1263 105.542ZM99.5513 105.993C99.5576 106 99.5607 106.005 99.5607 106.005C99.5607 106.005 99.5576 106.001 99.5513 105.993Z" fill="#F1F1F1"/>
<path fill-rule="evenodd" clip-rule="evenodd" d="M754.709 72.9118C751.65 72.9118 749.084 71.8827 747.012 69.8246C744.94 67.7664 743.903 65.2182 743.903 62.18C743.903 59.1418 744.94 56.5936 747.012 54.5354C749.084 52.4773 751.65 51.4482 754.709 51.4482C757.67 51.4482 760.186 52.4773 762.258 54.5354C764.331 56.5936 765.367 59.1418 765.367 62.18C765.367 65.2182 764.331 67.7664 762.258 69.8246C760.186 71.8827 757.67 72.9118 754.709 72.9118ZM761.447 135.567V80.9245H747.695V135.567H761.447ZM1290.32 70.8246C1292.39 72.8827 1294.96 73.9118 1298.02 73.9118C1300.98 73.9118 1303.49 72.8827 1305.56 70.8246C1307.64 68.7664 1308.67 66.2182 1308.67 63.18C1308.67 60.1418 1307.64 57.5936 1305.56 55.5354C1303.49 53.4773 1300.98 52.4482 1298.02 52.4482C1294.96 52.4482 1292.39 53.4773 1290.32 55.5354C1288.25 57.5936 1287.21 60.1418 1287.21 63.18C1287.21 66.2182 1288.25 68.7664 1290.32 70.8246ZM1093.09 90.3587H1080.79V136.567H1066.92V90.3587H1059.08V79.1407H1066.92V74.4363C1066.92 66.7968 1068.93 61.2481 1072.95 57.7902C1077.05 54.2519 1083.44 52.4828 1092.13 52.4828V63.942C1087.95 63.942 1085.01 64.7462 1083.32 66.3545C1081.64 67.8824 1080.79 70.5764 1080.79 74.4363V79.1407H1093.09V90.3587ZM1131.7 137.653C1125.43 137.653 1119.76 136.245 1114.69 133.431C1109.62 130.536 1105.64 126.515 1102.75 121.369C1099.85 116.141 1098.41 110.11 1098.41 103.275C1098.41 96.52 1099.89 90.529 1102.87 85.302C1105.84 80.0749 1109.91 76.0541 1115.05 73.2396C1120.2 70.425 1125.95 69.0177 1132.3 69.0177C1138.65 69.0177 1144.4 70.425 1149.55 73.2396C1154.7 76.0541 1158.76 80.0749 1161.73 85.302C1164.71 90.529 1166.2 96.52 1166.2 103.275C1166.2 110.03 1164.67 116.021 1161.61 121.248C1158.56 126.475 1154.38 130.536 1149.07 133.431C1143.84 136.245 1138.05 137.653 1131.7 137.653ZM1131.7 125.711C1135.24 125.711 1138.53 124.867 1141.59 123.178C1144.73 121.489 1147.26 118.956 1149.19 115.579C1151.12 112.201 1152.08 108.1 1152.08 103.275C1152.08 98.45 1151.16 94.389 1149.31 91.0919C1147.46 87.7145 1145.01 85.1814 1141.95 83.4926C1138.89 81.8039 1135.6 80.9595 1132.06 80.9595C1128.52 80.9595 1125.22 81.8039 1122.17 83.4926C1119.19 85.1814 1116.82 87.7145 1115.05 91.0919C1113.28 94.389 1112.4 98.45 1112.4 103.275C1112.4 110.432 1114.21 115.981 1117.83 119.921C1121.53 123.781 1126.15 125.711 1131.7 125.711ZM1199.09 71.9127C1195.79 73.7623 1193.14 76.3758 1191.13 79.7533V70.1034H1177.38V136.567H1191.13V101.586C1191.13 94.8313 1192.5 90.0867 1195.23 87.3526C1198.04 84.6184 1202.15 83.2514 1207.53 83.2514H1211.03V69.0177C1206.45 69.0177 1202.47 69.9827 1199.09 71.9127ZM1277.82 52.7335V113.166C1277.82 120.645 1275.53 126.555 1270.95 130.898C1266.44 135.24 1260.49 137.411 1253.09 137.411C1245.7 137.411 1239.71 135.24 1235.12 130.898C1230.62 126.555 1228.37 120.645 1228.37 113.166H1242.24C1242.32 116.865 1243.24 119.8 1245.01 121.972C1246.86 124.143 1249.56 125.228 1253.09 125.228C1256.63 125.228 1259.33 124.143 1261.18 121.972C1263.03 119.72 1263.95 116.785 1263.95 113.166V52.7335H1277.82ZM1304.75 136.567V81.9245H1291V136.567H1304.75ZM1331.89 79.7533C1333.9 76.3758 1336.55 73.7623 1339.85 71.9127C1343.22 69.9827 1347.21 69.0177 1351.79 69.0177V83.2514H1348.29C1342.9 83.2514 1338.8 84.6184 1335.99 87.3526C1333.25 90.0867 1331.89 94.8313 1331.89 101.586V136.567H1318.14V70.1034H1331.89V79.7533ZM1361.53 85.302C1358.8 90.4486 1357.43 96.3592 1357.43 103.034C1357.43 109.708 1358.8 115.699 1361.53 121.007C1364.35 126.234 1368.13 130.335 1372.87 133.31C1377.62 136.205 1382.84 137.653 1388.55 137.653C1393.7 137.653 1398.28 136.607 1402.31 134.517C1406.33 132.426 1409.5 129.812 1411.83 126.676V136.567H1425.71V70.1034H1411.83V79.7533C1409.5 76.6975 1406.37 74.1644 1402.43 72.154C1398.57 70.0632 1394.02 69.0177 1388.8 69.0177C1383.01 69.0177 1377.7 70.4652 1372.87 73.3602C1368.13 76.1748 1364.35 80.1554 1361.53 85.302ZM1408.94 91.3332C1410.87 94.7106 1411.83 98.6912 1411.83 103.275C1411.83 107.859 1410.87 111.879 1408.94 115.337C1407.09 118.715 1404.64 121.288 1401.58 123.057C1398.53 124.826 1395.23 125.711 1391.69 125.711C1388.23 125.711 1384.94 124.826 1381.8 123.057C1378.74 121.208 1376.25 118.554 1374.32 115.096C1372.47 111.638 1371.55 107.617 1371.55 103.034C1371.55 98.45 1372.47 94.5096 1374.32 91.2126C1376.25 87.8351 1378.74 85.302 1381.8 83.6132C1384.85 81.8441 1388.15 80.9595 1391.69 80.9595C1395.23 80.9595 1398.53 81.8441 1401.58 83.6132C1404.64 85.3824 1407.09 87.9557 1408.94 91.3332ZM280.381 63.6683V52.4736H222V63.6683H244.389V136.133H258.112V63.6683H280.381ZM340.928 108.086C341.249 106.08 341.409 103.833 341.409 101.345C341.409 94.9251 340.045 89.2675 337.316 84.3724C334.588 79.397 330.776 75.5451 325.881 72.8166C320.986 70.0882 315.409 68.7239 309.149 68.7239C302.649 68.7239 296.871 70.1283 291.816 72.937C286.84 75.7457 282.948 79.7581 280.139 84.9743C277.411 90.1102 276.047 96.0887 276.047 102.91C276.047 109.731 277.451 115.75 280.26 120.966C283.149 126.102 287.081 130.114 292.056 133.003C297.112 135.812 302.81 137.216 309.149 137.216C316.933 137.216 323.433 135.29 328.65 131.438C333.946 127.506 337.597 122.49 339.604 116.392H324.798C321.748 122.571 316.532 125.66 309.149 125.66C304.013 125.66 299.68 124.055 296.149 120.845C292.618 117.635 290.652 113.382 290.251 108.086H340.928ZM321.668 84.8539C325.199 87.9033 327.005 91.9559 327.085 97.0115H290.371C291.013 91.8756 293.019 87.8231 296.39 84.8539C299.76 81.8044 303.813 80.2797 308.547 80.2797C313.764 80.2797 318.137 81.8044 321.668 84.8539ZM347.932 102.669C347.932 96.0084 349.296 90.1102 352.024 84.9743C354.833 79.8384 358.605 75.8661 363.34 73.0574C368.154 70.1684 373.451 68.7239 379.229 68.7239C384.445 68.7239 388.979 69.7672 392.831 71.8536C396.763 73.8598 399.893 76.3877 402.22 79.4371V69.8073H416.063V136.133H402.22V126.262C399.893 129.392 396.723 132 392.71 134.086C388.698 136.173 384.124 137.216 378.988 137.216C373.29 137.216 368.074 135.772 363.34 132.883C358.605 129.913 354.833 125.821 352.024 120.605C349.296 115.308 347.932 109.33 347.932 102.669ZM402.22 102.91C402.22 98.3356 401.257 94.3633 399.331 90.9929C397.485 87.6225 395.038 85.0545 391.988 83.289C388.939 81.5236 385.649 80.6408 382.118 80.6408C378.587 80.6408 375.297 81.5236 372.247 83.289C369.198 84.9743 366.71 87.5021 364.784 90.8725C362.938 94.1627 362.015 98.0949 362.015 102.669C362.015 107.243 362.938 111.256 364.784 114.706C366.71 118.157 369.198 120.805 372.247 122.651C375.377 124.416 378.667 125.299 382.118 125.299C385.649 125.299 388.939 124.416 391.988 122.651C395.038 120.885 397.485 118.317 399.331 114.947C401.257 111.496 402.22 107.484 402.22 102.91ZM525.931 71.974C521.838 69.8073 517.184 68.7239 511.968 68.7239C507.073 68.7239 502.498 69.9277 498.245 72.3351C493.992 74.6623 490.862 77.8321 488.856 81.8446C486.609 77.5914 483.399 74.3413 479.226 72.0944C475.053 69.8474 470.319 68.7239 465.022 68.7239C461.09 68.7239 457.399 69.4863 453.948 71.011C450.497 72.5357 447.649 74.6623 445.402 77.3908V69.8073H431.679V136.133H445.402V99.0579C445.402 93.1195 446.886 88.5854 449.855 85.4557C452.905 82.2458 456.998 80.6408 462.133 80.6408C467.269 80.6408 471.322 82.2458 474.291 85.4557C477.26 88.5854 478.745 93.1195 478.745 99.0579V136.133H492.347V99.0579C492.347 93.1195 493.832 88.5854 496.801 85.4557C499.85 82.2458 503.943 80.6408 509.079 80.6408C514.215 80.6408 518.267 82.2458 521.237 85.4557C524.206 88.5854 525.69 93.1195 525.69 99.0579V136.133H539.292V97.0115C539.292 90.9929 538.089 85.857 535.681 81.6038C533.354 77.3507 530.104 74.1407 525.931 71.974ZM594.671 52.4736V136.133H580.948V52.4736H594.671ZM657.707 71.974C653.614 69.8073 648.96 68.7239 643.743 68.7239C639.811 68.7239 636.08 69.4863 632.549 71.011C629.098 72.5357 626.249 74.6623 624.002 77.3908V69.8073H610.28V136.133H624.002V99.0579C624.002 93.1195 625.487 88.5854 628.456 85.4557C631.506 82.2458 635.598 80.6408 640.734 80.6408C645.87 80.6408 649.923 82.2458 652.892 85.4557C655.861 88.5854 657.346 93.1195 657.346 99.0579V136.133H670.948V97.0115C670.948 90.9929 669.784 85.857 667.457 81.6038C665.13 77.3507 661.88 74.1407 657.707 71.974ZM710.119 137.216C704.902 137.216 700.208 136.293 696.035 134.447C691.942 132.521 688.692 129.954 686.285 126.744C683.877 123.453 682.593 119.802 682.433 115.79H696.637C696.878 118.598 698.202 120.966 700.609 122.892C703.097 124.737 706.186 125.66 709.878 125.66C713.73 125.66 716.699 124.938 718.785 123.494C720.952 121.969 722.035 120.043 722.035 117.716C722.035 115.228 720.832 113.382 718.424 112.178C716.097 110.975 712.366 109.651 707.23 108.206C702.254 106.842 698.202 105.518 695.072 104.234C691.942 102.95 689.214 100.984 686.887 98.3356C684.64 95.6874 683.516 92.1966 683.516 87.8632C683.516 84.3323 684.56 81.1223 686.646 78.2334C688.732 75.2642 691.702 72.937 695.554 71.2518C699.486 69.5666 703.98 68.7239 709.035 68.7239C716.579 68.7239 722.637 70.6499 727.212 74.5018C731.866 78.2735 734.354 83.4495 734.675 90.0299H720.952C720.711 87.0607 719.508 84.6934 717.341 82.9279C715.174 81.1625 712.245 80.2797 708.554 80.2797C704.943 80.2797 702.174 80.9618 700.248 82.3261C698.322 83.6903 697.359 85.4959 697.359 87.7428C697.359 89.5083 698.001 90.9929 699.285 92.1966C700.569 93.4003 702.134 94.3633 703.98 95.0856C705.825 95.7276 708.554 96.5702 712.165 97.6134C716.98 98.8974 720.912 100.221 723.962 101.586C727.091 102.87 729.78 104.796 732.026 107.364C734.273 109.932 735.437 113.342 735.517 117.595C735.517 121.367 734.474 124.737 732.388 127.707C730.301 130.676 727.332 133.003 723.48 134.688C719.708 136.373 715.255 137.216 710.119 137.216ZM817.594 71.8536C813.661 69.7672 809.127 68.7239 803.992 68.7239C798.214 68.7239 792.917 70.1684 788.102 73.0574C783.368 75.8661 779.596 79.8384 776.787 84.9743C774.059 90.1102 772.695 96.0084 772.695 102.669C772.695 109.33 774.059 115.308 776.787 120.605C779.596 125.821 783.368 129.913 788.102 132.883C792.917 135.772 798.214 137.216 803.992 137.216C809.047 137.216 813.541 136.173 817.473 134.086C821.486 131.92 824.655 129.271 826.983 126.142V137.216C826.983 143.636 825.257 148.531 821.807 151.901C818.436 155.272 813.982 156.957 808.445 156.957C803.711 156.957 799.618 155.874 796.167 153.707C792.797 151.621 790.59 148.852 789.547 145.401H775.945C776.747 152.624 780.118 158.321 786.056 162.494C791.994 166.747 799.457 168.874 808.445 168.874C815.186 168.874 820.964 167.51 825.779 164.781C830.674 162.053 834.406 158.281 836.974 153.466C839.542 148.732 840.826 143.315 840.826 137.216V69.8073H826.983V79.4371C824.736 76.3877 821.606 73.8598 817.594 71.8536ZM824.094 90.9929C826.02 94.3633 826.983 98.3356 826.983 102.91C826.983 107.484 826.02 111.496 824.094 114.947C822.248 118.317 819.8 120.885 816.751 122.651C813.702 124.416 810.411 125.299 806.88 125.299C803.43 125.299 800.14 124.416 797.01 122.651C793.96 120.805 791.473 118.157 789.547 114.706C787.701 111.256 786.778 107.243 786.778 102.669C786.778 98.0949 787.701 94.1627 789.547 90.8725C791.473 87.5021 793.96 84.9743 797.01 83.289C800.059 81.5236 803.349 80.6408 806.88 80.6408C810.411 80.6408 813.702 81.5236 816.751 83.289C819.8 85.0545 822.248 87.6225 824.094 90.9929ZM890.748 68.7239C895.804 68.7239 900.298 69.8073 904.23 71.974C908.242 74.1407 911.372 77.3507 913.619 81.6038C915.946 85.857 917.11 90.9929 917.11 97.0115V136.133H903.508V99.0579C903.508 93.1195 902.023 88.5854 899.054 85.4557C896.085 82.2458 892.032 80.6408 886.896 80.6408C881.76 80.6408 877.668 82.2458 874.618 85.4557C871.649 88.5854 870.164 93.1195 870.164 99.0579V136.133H856.442V53.0569H870.164V77.5112C872.492 74.7025 875.421 72.5357 878.952 71.011C882.563 69.4863 886.495 68.7239 890.748 68.7239ZM948.216 117.716V81.002H964.346V69.8073H948.216V53.3162H934.373V69.8073H926.549V81.002H934.373V117.716C934.373 124.216 936.018 128.91 939.308 131.799C942.598 134.688 947.333 136.133 953.512 136.133H964.346V124.697H955.92C953.111 124.697 951.105 124.176 949.901 123.132C948.778 122.009 948.216 120.203 948.216 117.716ZM998.66 137.216C993.444 137.216 988.75 136.293 984.577 134.447C980.484 132.521 977.234 129.954 974.827 126.744C972.419 123.453 971.135 119.802 970.975 115.79H985.179C985.419 118.598 986.744 120.966 989.151 122.892C991.639 124.737 994.728 125.66 998.42 125.66C1002.27 125.66 1005.24 124.938 1007.33 123.494C1009.49 121.969 1010.58 120.043 1010.58 117.716C1010.58 115.228 1009.37 113.382 1006.97 112.178C1004.64 110.975 1000.91 109.651 995.772 108.206C990.796 106.842 986.744 105.518 983.614 104.234C980.484 102.95 977.756 100.984 975.429 98.3356C973.182 95.6874 972.058 92.1966 972.058 87.8632C972.058 84.3323 973.101 81.1223 975.188 78.2334C977.274 75.2642 980.243 72.937 984.095 71.2518C988.028 69.5666 992.521 68.7239 997.577 68.7239C1005.12 68.7239 1011.18 70.6499 1015.75 74.5018C1020.41 78.2735 1022.9 83.4495 1023.22 90.0299H1009.49C1009.25 87.0607 1008.05 84.6934 1005.88 82.9279C1003.72 81.1625 1000.79 80.2797 997.096 80.2797C993.484 80.2797 990.716 80.9618 988.79 82.3261C986.864 83.6903 985.901 85.4959 985.901 87.7428C985.901 89.5083 986.543 90.9929 987.827 92.1966C989.111 93.4003 990.676 94.3633 992.521 95.0856C994.367 95.7276 997.096 96.5702 1000.71 97.6134C1005.52 98.8974 1009.45 100.221 1012.5 101.586C1015.63 102.87 1018.32 104.796 1020.57 107.364C1022.82 109.932 1023.98 113.342 1024.06 117.595C1024.06 121.367 1023.02 124.737 1020.93 127.707C1018.84 130.676 1015.87 133.003 1012.02 134.688C1008.25 136.373 1003.8 137.216 998.66 137.216Z" fill="#F1F1F1"/>
</svg>
