<svg width="170" height="188" viewBox="0 0 170 188" fill="none" xmlns="http://www.w3.org/2000/svg">
<path fill-rule="evenodd" clip-rule="evenodd" d="M93.3932 9.75299L153.35 44.3693C158.714 47.4662 162.019 53.1897 162.019 59.3837V128.616C162.019 134.81 158.714 140.534 153.35 143.631L93.3932 178.247C88.029 181.344 81.4201 181.344 76.0559 178.247L16.0988 143.631C10.7347 140.534 7.43024 134.81 7.43024 128.616V59.3837C7.43024 53.1897 10.7347 47.4662 16.0989 44.3693L76.0559 9.75299C81.4201 6.65599 88.029 6.65599 93.3932 9.75299ZM72.3408 3.31821C80.0039 -1.10607 89.4452 -1.10607 97.1083 3.31821L157.065 37.9345C164.728 42.3588 169.449 50.5352 169.449 59.3837V128.616C169.449 137.465 164.728 145.641 157.065 150.066L97.1083 184.682C89.4452 189.106 80.0039 189.106 72.3408 184.682L12.3837 150.066C4.72065 145.641 0 137.465 0 128.616V59.3837C0 50.5352 4.72065 42.3588 12.3837 37.9345L72.3408 3.31821ZM85.7379 50.7605C83.9785 50.7605 82.7196 51.7413 81.9366 52.7033C81.1686 53.6467 80.6104 54.8499 80.1752 56.083C79.2954 58.5758 78.6548 61.9744 78.1518 65.8233C77.1398 73.5656 76.6019 83.8369 76.0882 93.9598L76.0414 94.8812C75.5407 104.759 75.0505 114.428 74.1697 121.706C73.7131 125.479 73.1696 128.441 72.5252 130.405C72.4586 130.608 72.3934 130.793 72.3302 130.96C71.795 129.758 71.2773 127.966 70.7916 125.627C69.7571 120.647 69.012 113.942 68.2776 107.062L68.1466 105.833L68.1466 105.833C67.4652 99.4341 66.7779 92.9806 65.8546 88.0377C65.367 85.4274 64.782 83.0537 64.0202 81.2779C63.6426 80.3977 63.1495 79.4893 62.4684 78.761C61.7643 78.0082 60.664 77.2572 59.1825 77.2572C57.3226 77.2572 56.017 78.324 55.2221 79.2585C54.4214 80.1997 53.7965 81.3929 53.2844 82.5437C52.6381 83.9959 51.9903 85.8314 51.3653 87.6023C51.0299 88.5526 50.701 89.4843 50.3825 90.3282C49.4635 92.7631 47.7329 93.9812 45.3708 94.4808C42.8429 95.0154 39.6101 94.6935 36.2192 93.7472C34.7369 93.3335 33.1894 94.1634 32.7628 95.6008C32.3362 97.0382 33.1921 98.5388 34.6744 98.9525C38.5063 100.022 42.7611 100.577 46.5611 99.7729C50.5267 98.9342 53.964 96.5991 55.6281 92.1898C56.0485 91.0759 56.4196 90.0199 56.7697 89.0238C57.3325 87.4223 57.841 85.9753 58.4131 84.6899C58.6078 84.2524 58.7889 83.8856 58.9556 83.5823C59.4449 84.8048 59.9149 86.6301 60.3582 89.0031C61.2418 93.7332 61.9086 99.9914 62.6001 106.482L62.6001 106.482L62.7214 107.62C63.4482 114.428 64.2179 121.411 65.3157 126.697C65.8602 129.318 66.5221 131.715 67.3901 133.513C67.823 134.409 68.3823 135.319 69.1374 136.036C69.9263 136.786 71.046 137.425 72.4602 137.425C74.2638 137.425 75.4957 136.356 76.2141 135.411C76.9307 134.468 77.4469 133.27 77.8483 132.047C78.6615 129.568 79.2523 126.182 79.7175 122.338C80.6209 114.873 81.1191 105.043 81.6146 95.266V95.2658L81.6673 94.2261C82.1843 84.0369 82.7141 73.9961 83.6933 66.5044C84.1858 62.7363 84.7717 59.7874 85.4601 57.8369C85.4993 57.7258 85.538 57.6203 85.5762 57.5203C86.0211 58.7432 86.463 60.4357 86.8942 62.5493C87.9156 67.5565 88.755 74.2872 89.5808 81.1582C89.6439 81.6831 89.7069 82.2089 89.77 82.7347L89.7728 82.7588L89.7729 82.7593C90.5255 89.0386 91.2776 95.3143 92.1536 100.135C92.6256 102.734 93.1592 105.061 93.8005 106.786C94.1152 107.633 94.5185 108.511 95.0687 109.225C95.5838 109.895 96.6342 110.929 98.285 110.929C100.283 110.929 101.749 109.872 102.716 108.686C103.643 107.549 104.291 106.098 104.784 104.66C105.759 101.816 106.416 98.1221 107.024 94.702L107.05 94.5529C107.69 90.9506 108.284 87.6476 109.112 85.235C109.527 84.0237 109.928 83.2674 110.261 82.859C110.283 82.832 110.303 82.8081 110.322 82.7869C110.339 82.804 110.357 82.8229 110.377 82.8438C110.707 83.1947 111.115 83.8329 111.585 84.852C112.224 86.2399 112.772 87.8405 113.379 89.6118L113.379 89.6119L113.379 89.612C113.691 90.5248 114.019 91.483 114.383 92.4807C115.951 96.7789 119.279 99.0477 123.122 99.8381C126.79 100.593 130.892 100.015 134.563 98.943C136.04 98.5117 136.877 97.0009 136.432 95.5687C135.987 94.1366 134.429 93.3253 132.952 93.7567C129.726 94.699 126.658 95.0284 124.281 94.5394C122.078 94.0862 120.484 92.9615 119.649 90.6741C119.374 89.9214 119.092 89.0986 118.802 88.2519L118.801 88.2508C118.141 86.3256 117.438 84.2762 116.685 82.6421C116.127 81.4331 115.43 80.1804 114.508 79.1975C113.553 78.1801 112.158 77.2572 110.31 77.2572C108.312 77.2572 106.846 78.3137 105.879 79.5001C104.952 80.6368 104.304 82.088 103.811 83.5256C102.836 86.3694 102.179 90.0638 101.572 93.4838V93.4839L101.545 93.633C100.905 97.2353 100.311 100.538 99.4837 102.951C99.2759 103.557 99.0718 104.049 98.878 104.44C98.4662 103.182 98.0575 101.413 97.6547 99.1956C96.8089 94.5403 96.0755 88.4235 95.3156 82.0851L95.3155 82.0845L95.3067 82.0106C95.2477 81.5186 95.1885 81.0252 95.1291 80.5311C94.3098 73.7142 93.4466 66.7569 92.3739 61.4982C91.8416 58.889 91.2267 56.5349 90.4742 54.781C90.1024 53.9146 89.6269 53.0246 88.9867 52.309C88.3454 51.5922 87.263 50.7605 85.7379 50.7605ZM59.681 82.5486C59.6884 82.5436 59.692 82.5403 59.692 82.5403C59.692 82.5403 59.6905 82.5412 59.6875 82.5434C59.6858 82.5447 59.6837 82.5464 59.681 82.5486ZM110.469 82.6436C110.482 82.6376 110.488 82.6319 110.488 82.6319C110.488 82.6319 110.486 82.6328 110.48 82.636C110.478 82.6377 110.474 82.6402 110.469 82.6436ZM110.16 82.6485C110.149 82.6441 110.144 82.6401 110.144 82.6401C110.144 82.6401 110.149 82.6417 110.16 82.6485ZM98.1263 105.542C98.1134 105.548 98.1069 105.554 98.1069 105.554C98.1069 105.554 98.1093 105.553 98.1142 105.55C98.1173 105.549 98.1213 105.546 98.1263 105.542ZM99.5513 105.993C99.5576 106 99.5607 106.005 99.5607 106.005C99.5607 106.005 99.5576 106.001 99.5513 105.993Z" fill="#F1F1F1"/>
</svg>
